<?xml version="1.0" encoding="UTF-8" standalone="no"?>
<svg
   xmlns:dc="http://purl.org/dc/elements/1.1/"
   xmlns:cc="http://creativecommons.org/ns#"
   xmlns:rdf="http://www.w3.org/1999/02/22-rdf-syntax-ns#"
   xmlns:svg="http://www.w3.org/2000/svg"
   xmlns="http://www.w3.org/2000/svg"
   xmlns:xlink="http://www.w3.org/1999/xlink"
   xmlns:sodipodi="http://sodipodi.sourceforge.net/DTD/sodipodi-0.dtd"
   xmlns:inkscape="http://www.inkscape.org/namespaces/inkscape"
   width="48"
   height="1400"
   version="1.1"
   id="svg373"
   sodipodi:docname="icons-big.svg"
   inkscape:version="0.92.1 r15371"
   viewBox="0 0 480 14000"
   inkscape:export-filename="V:\osc\elFinder\img\icons-big.png"
   inkscape:export-xdpi="96"
   inkscape:export-ydpi="96">
  <metadata
     id="metadata377">
    <rdf:RDF>
      <cc:Work
         rdf:about="">
        <dc:format>image/svg+xml</dc:format>
        <dc:type
           rdf:resource="http://purl.org/dc/dcmitype/StillImage" />
        <dc:title></dc:title>
      </cc:Work>
    </rdf:RDF>
  </metadata>
  <sodipodi:namedview
     pagecolor="#ffffff"
     bordercolor="#666666"
     borderopacity="1"
     objecttolerance="10"
     gridtolerance="10"
     guidetolerance="10"
     inkscape:pageopacity="0"
     inkscape:pageshadow="2"
     inkscape:window-width="1304"
     inkscape:window-height="745"
     id="namedview375"
     showgrid="true"
     inkscape:zoom="3.6203868"
     inkscape:cx="-28.84882"
     inkscape:cy="1378.3633"
     inkscape:window-x="54"
     inkscape:window-y="-8"
     inkscape:window-maximized="1"
     inkscape:current-layer="g4874"
     scale-x="10">
    <inkscape:grid
       snapvisiblegridlinesonly="false"
       type="xygrid"
       id="grid4855" />
  </sodipodi:namedview>
  <defs
     id="defs9">
    <linearGradient
       id="a">
      <stop
         offset="0"
         stop-color="#85b1d9"
         id="stop2" />
      <stop
         offset="1"
         stop-color="#dff0fe"
         id="stop4" />
    </linearGradient>
    <linearGradient
       gradientUnits="userSpaceOnUse"
       y2="12.5"
       x2="20.200001"
       y1="35.700001"
       x1="20.200001"
       id="c"
       xlink:href="#a"
       gradientTransform="matrix(1.2384623,0,0,1.2384623,-1.2075,27.023125)" />
    <linearGradient
       y2="7.4000001"
       x2="21.9"
       y1="35.400002"
       x1="21.700001"
       gradientUnits="userSpaceOnUse"
       id="b"
       xlink:href="#a"
       gradientTransform="matrix(1.2710547,0,0,1.2710547,-1.2075,-24.184375)" />
    <filter
       style="color-interpolation-filters:sRGB;"
       inkscape:label="Lightness-Contrast"
       id="filter4723">
      <feColorMatrix
         values="1 0 0 -0.2 -0 0 1 0 -0.2 -0 0 0 1 -0.2 -0 0 0 0 1 0"
         id="feColorMatrix4721" />
    </filter>
  </defs>
  <g
     transform="matrix(9.9378882,0,0,9.9378884,0,-11869.388)"
     id="g371">
    <g
       id="g4874"
       transform="translate(-0.217187,1267.8749)">
      <path
         style="display:inline;fill:#ffffff"
         inkscape:connector-curvature="0"
         id="path11"
         d="m 42.2,-61.117808 v 35.2 h -36 v -46.7 h 24.4 z" />
      <path
         style="display:inline;fill:#788b9c;stroke-width:1.00625002"
         inkscape:connector-curvature="0"
         id="path13"
         d="m 30.454999,-72.310307 11.27,11.27 v 34.313124 H 7.009375 v -45.482499 h 23.546249 m 0.60375,-1.308125 H 5.5 v 48.299999 h 37.734374 v -36.224999 z" />
      <path
         style="display:inline;fill:#eef0f2;fill-opacity:1"
         inkscape:connector-curvature="0"
         id="path15"
         d="m 42.2,-61.117808 v 0.4 h -12 v -12 h 0.4 z" />
      <path
         style="display:inline;fill:#788b9c"
         inkscape:connector-curvature="0"
         id="path17"
         d="m 31.100937,-71.518913 10,10 h -9.9 v -10 m 0,-2 h -1.4 v 13.5 h 13.4 v -1.3 z" />
      <path
         style="font-weight:400;font-size:8.5px;font-family:sans-serif;letter-spacing:0;word-spacing:0;fill:#000080;stroke-width:0.2"
         inkscape:connector-curvature="0"
         id="path19"
         word-spacing="0"
         letter-spacing="0"
         font-size="8.5"
         font-weight="400"
         aria-label="?"
         d="m 21.2,-35.617808 h 4 v 4 h -4 z m 3.8,-2.3 h -3.6 v -2.5 q 0,-1.6 0.5,-2.6 0.5,-1 2.3,-2.4 l 1.7,-1.4 q 1,-0.8 1.6,-1.6 0.5,-0.7 0.5,-1.5 0,-1.4 -1.3,-2.2 -1.3,-1 -3.3,-1 -1.5,0 -3.3,0.6 -1.7,0.6 -3.6,1.6 v -3 q 1.9,-0.8 3.7,-1.3 1.9,-0.4 3.8,-0.4 3.6,0 5.7,1.5 2.2,1.6 2.2,4 0,1.3 -0.7,2.4 -0.7,1 -2.4,2.4 l -1.8,1.4 q -1,0.7 -1.3,1.1 -0.4,0.4 -0.5,0.8 l -0.2,0.8 v 1.3 z" />
    </g>
    <g
       id="g4867"
       transform="translate(0,1268.3509)">
      <path
         style="fill:#b6dcfe;stroke-width:1.00625002"
         inkscape:connector-curvature="0"
         id="path21"
         d="m 0.60375,20.99625 v -39.445 H 13.685 l 3.82375,3.82375 h 30.1875 v 35.62125 z" />
      <path
         style="fill:#4788c7;stroke-width:1.00625002"
         inkscape:connector-curvature="0"
         id="path23"
         d="m 13.48375,-17.845 3.82375,3.82375 h 29.785 V 20.291875 H 1.308125 V -17.845 h 12.075 m 0.60375,-1.2075 H 0 V 21.6 H 48.3 V -15.22875 H 17.810625 Z" />
      <path
         style="fill:url(#b);stroke-width:1.27105474"
         inkscape:connector-curvature="0"
         id="path25"
         d="M 0.69908212,20.938069 V -12.109355 H 14.299368 l 3.813164,-2.542109 h 29.615576 v 35.589533 z" />
      <path
         style="fill:#4788c7;stroke-width:1.00625002"
         inkscape:connector-curvature="0"
         id="path27"
         d="M 47.0925,-14.02125 V 20.291875 H 1.308125 v -31.7975 h 13.08125 l 0.301875,-0.20125 3.521875,-2.314375 H 47.0925 M 48.3,-15.22875 H 17.810625 l -3.82375,2.515625 H 0 v 34.2125 h 48.3 z" />
    </g>
    <g
       id="g4861"
       transform="translate(0,1268.6634)">
      <path
         style="fill:#b6dcfe;stroke-width:1.00625002"
         inkscape:connector-curvature="0"
         id="path29"
         d="M 0.60375,70.99625 V 32.5575 h 12.779375 l 3.723125,3.723125 H 42.765625 V 70.99625 Z" />
      <path
         style="fill:#4788c7;stroke-width:1.00625002"
         inkscape:connector-curvature="0"
         id="path31"
         d="m 13.08125,33.16125 3.723125,3.723125 H 42.2625 V 70.3925 H 1.2075 V 33.16125 H 13.08125 M 13.685,31.95375 H 0 V 71.6 H 43.26875 V 35.676875 H 17.408125 Z" />
      <path
         style="fill:url(#c);stroke-width:1.23846233"
         inkscape:connector-curvature="0"
         id="path33"
         d="M 0.7740397,70.988537 5.4801965,44.980829 H 18.855589 l 3.715387,-2.476925 h 25.016939 l -4.706157,28.484633 z" />
      <path
         style="fill:#4788c7;stroke-width:1.00625002"
         inkscape:connector-curvature="0"
         id="path35"
         d="m 46.89125,43.123125 -4.528125,27.16875 H 1.509375 L 6.0375,45.63875 H 19.018125 L 19.32,45.4375 22.640625,43.22375 h 24.15 M 48.3,41.815 H 22.33875 l -3.723125,2.515625 h -13.685 L 0,71.499375 h 43.26875 z" />
    </g>
    <g
       id="g4881"
       transform="translate(-0.217186,1267.8749)">
      <path
         style="fill:#ffffff;stroke-width:1.00415802"
         inkscape:connector-curvature="0"
         id="path37"
         d="M 6.2029106,125.1172 V 78.1226 H 30.704365 l 11.648233,11.648232 v 35.145528 z" />
      <path
         style="fill:#4788c7;stroke-width:1.00625002"
         inkscape:connector-curvature="0"
         id="path39"
         d="M 30.454999,78.828441 41.724998,89.89719 v 34.41375 H 7.0093749 V 78.727816 H 30.555624 m 0.60375,-1.308125 H 5.5 v 48.299999 h 37.734372 v -36.225 z" />
      <path
         style="fill:#dff0fe;stroke-width:1.00415802"
         inkscape:connector-curvature="0"
         id="path41"
         d="M 30.302702,90.272911 V 78.223015 h 0.401663 l 11.648233,11.648233 v 0.401663 z" />
      <path
         style="fill:#4788c7;stroke-width:1.00415802"
         inkscape:connector-curvature="0"
         id="path43"
         d="m 31.005613,79.428005 10.04158,10.04158 h -9.941164 v -10.04158 m 0,-2.008316 h -1.405822 v 13.556133 h 13.455717 v -1.305406 z" />
      <path
         style="fill:none;stroke:#4788c7;stroke-width:1.33887398;stroke-miterlimit:10"
         inkscape:connector-curvature="0"
         id="path45"
         stroke-miterlimit="10"
         d="m 15.54158,99.61158 h 1.506237 v 6.02495 m 6.527027,-0.60249 c -0.702911,0 -1.305406,-0.70292 -1.305406,-1.40583 v -2.71122 a 1.3556135,1.3556135 0 0 1 2.711227,0 v 2.71122 c 0,0.70291 -0.602495,1.30541 -1.405821,1.30541 z m 8.033264,0 c -0.702911,0 -1.305406,-0.70292 -1.305406,-1.40583 v -2.71122 a 1.3556135,1.3556135 0 0 1 2.711227,0 v 2.71122 c 0,0.70291 -0.602495,1.30541 -1.405821,1.30541 z m 0,4.01663 h 1.506237 v 6.02495 m -8.13368,-0.70292 c -0.803327,0 -1.405821,-0.60249 -1.405821,-1.40582 v -2.61081 a 1.3556133,1.3556133 0 0 1 2.711226,0 v 2.61081 c 0,0.80333 -0.602495,1.40582 -1.305405,1.40582 z m -8.033264,0 c -0.803326,0 -1.405821,-0.60249 -1.405821,-1.40582 v -2.61081 a 1.3556133,1.3556133 0 0 1 2.711226,0 v 2.61081 c 0,0.80333 -0.602494,1.40582 -1.305405,1.40582 z" />
    </g>
    <g
       id="g"
       transform="matrix(1.0107447,0,0,1.0062525,-0.27626287,1268.1485)">
      <path
         d="m 6.5,37.5 v -35 h 18.3 l 8.7,8.7 v 26.3 z"
         transform="matrix(1.33333,0,0,1.33333,-2.5,124)"
         id="path47"
         inkscape:connector-curvature="0"
         style="fill:#ffffff" />
      <path
         d="M 24.6,3 33,11.4 V 37 H 7 V 3 H 24.6 M 25,2 H 6 V 38 H 34 V 11 Z"
         transform="matrix(1.33333,0,0,1.33333,-2.5,124)"
         id="path49"
         inkscape:connector-curvature="0"
         style="fill:#4788c7" />
      <path
         d="m 24.5,11.5 v -9 h 0.3 l 8.7,8.7 v 0.3 z"
         transform="matrix(1.33333,0,0,1.33333,-2.5,124)"
         id="path51"
         inkscape:connector-curvature="0"
         style="fill:#dff2fe;fill-opacity:1" />
      <path
         d="M 25,3.4 32.6,11 H 25 V 3.4 M 25,2 h -1 v 10 h 10 v -1 z"
         transform="matrix(1.33333,0,0,1.33333,-2.5,124)"
         id="path53"
         inkscape:connector-curvature="0"
         style="fill:#4788c7" />
      <g
         id="g57"
         style="fill:#4788c7">
        <path
           d="m 27.5,17 h -15 A 0.5,0.5 0 0 1 12,16.5 C 12,16.2 12.2,16 12.5,16 h 15 c 0.3,0 0.5,0.2 0.5,0.5 0,0.3 -0.2,0.5 -0.5,0.5 z m -4,3 h -11 A 0.5,0.5 0 0 1 12,19.5 C 12,19.2 12.2,19 12.5,19 h 11 c 0.3,0 0.5,0.2 0.5,0.5 0,0.3 -0.2,0.5 -0.5,0.5 z m 4,3 h -15 A 0.5,0.5 0 0 1 12,22.5 C 12,22.2 12.2,22 12.5,22 h 15 c 0.3,0 0.5,0.2 0.5,0.5 0,0.3 -0.2,0.5 -0.5,0.5 z m -4,3 h -11 A 0.5,0.5 0 0 1 12,25.5 C 12,25.2 12.2,25 12.5,25 h 11 c 0.3,0 0.5,0.2 0.5,0.5 0,0.3 -0.2,0.5 -0.5,0.5 z m 4,3 h -15 A 0.5,0.5 0 0 1 12,28.5 C 12,28.2 12.2,28 12.5,28 h 15 c 0.3,0 0.5,0.2 0.5,0.5 0,0.3 -0.2,0.5 -0.5,0.5 z"
           transform="matrix(1.33333,0,0,1.33333,-2.5,125.2)"
           id="path55"
           inkscape:connector-curvature="0" />
      </g>
    </g>
    <g
       id="g4891"
       transform="translate(-0.217187,1267.8749)">
      <path
         style="fill:#ffffff;stroke-width:1.00625002"
         inkscape:connector-curvature="0"
         id="path60"
         d="m 6.204375,178.84969 h 24.552499 l 11.6725,11.6725 v 35.21875 H 6.204375 Z" />
      <path
         style="fill:#2ea26c;stroke-width:1.00625002"
         inkscape:connector-curvature="0"
         id="path62"
         d="m 30.454999,179.55407 11.27,11.06875 v 34.41375 H 7.009375 v -45.68375 h 23.546249 m 0.60375,-1.30813 H 5.5 v 48.3 h 37.734374 v -36.225 z" />
      <path
         style="fill:#e8f8f1;stroke-width:1.00625002;fill-opacity:1"
         inkscape:connector-curvature="0"
         id="path64"
         d="m 30.354374,178.84969 h 0.4025 l 11.6725,11.6725 v 0.4025 h -12.075 z" />
      <path
         style="fill:#2ea26c;stroke-width:1.00625002"
         inkscape:connector-curvature="0"
         id="path66"
         d="m 31.058749,180.05719 10.0625,10.0625 h -9.961875 v -10.0625 m 0,-2.0125 h -1.408749 v 13.58438 h 13.483749 v -1.30813 z" />
      <g
         id="g74"
         transform="matrix(1.3416633,0,0,1.3416633,-2.5499998,178.14532)"
         style="filter:url(#filter4723)">
        <path
           style="fill:#79efa8"
           inkscape:connector-curvature="0"
           id="path68"
           d="m 28,29 v -3 l -5,-4.8 -3,2.8 4.6,5 z" />
        <circle
           style="fill:#b5ffc9"
           id="circle70"
           cx="26"
           cy="17"
           r="2" />
        <path
           style="fill:#b5ffc9"
           inkscape:connector-curvature="0"
           id="path72"
           d="M 26,29 H 12 v -4 l 5,-5 z" />
      </g>
    </g>
    <g
       id="g96"
       transform="matrix(1.00625,0,0,1.00625,-0.2515625,1268.4171)">
      <path
         d="m 6.2,273.9 v -46.7 h 24.4 l 11.6,11.6 v 35 z"
         id="path76"
         inkscape:connector-curvature="0"
         style="display:inline;fill:#ffffff;fill-opacity:1" />
      <path
         d="M 30.3,227.9 41.5,239 v 34.1 H 7 V 227.8 H 30.4 M 31,226.4 H 5.5 v 48 H 43 v -36 z"
         id="path78"
         inkscape:connector-curvature="0"
         style="fill:#7bad2a" />
      <path
         d="m 42.2,239.2 h -12 v -12 h 0.4 l 11.6,11.6 z"
         id="path80"
         inkscape:connector-curvature="0"
         style="fill:#f2f9e7;fill-opacity:1" />
      <path
         d="M 30.9,228.4 41,238.5 H 31 v -10.1 m 0,-1.9 H 29.6 V 240 H 43 v -1.4 z"
         id="path82"
         inkscape:connector-curvature="0"
         style="fill:#7bad2a" />
      <g
         id="g94">
        <path
           d="m 24.9,260 v -12.6 c 3.4,0 5.3,1.3 5.3,1.3 v 2.7 c 0,0 -2.4,-1.4 -4.7,-1.4"
           id="path84"
           inkscape:connector-curvature="0"
           style="fill:#c9e69a" />
        <path
           d="m 25.5,260 h -1.3 v -13.3 h 0.7 c 3.7,0 5.6,1.5 5.7,1.5 l 0.3,0.1 v 4.1 l -1,-0.5 c 0,0 -2.4,-1.2 -4.4,-1.2 z m 0,-10.6 c 1.5,0 3.1,0.5 4,0.9 v -1.2 c -0.5,-0.3 -1.8,-1 -4,-1 z"
           id="path86"
           inkscape:connector-curvature="0"
           style="fill:#7bad2a" />
        <g
           transform="matrix(1.33333,0,0,1.33333,-2.5,225.4)"
           id="g92">
          <circle
             cx="18"
             cy="26"
             r="2.5"
             id="circle88"
             style="fill:#c4e490" />
          <path
             d="m 18,24 a 2,2 0 0 1 2,2 2,2 0 0 1 -2,2 2,2 0 0 1 -2,-2 c 0,-1.1 0.9,-2 2,-2 m 0,-1 a 3,3 0 0 0 -3,3 3,3 0 0 0 3,3 3,3 0 0 0 3,-3 3,3 0 0 0 -3,-3 z"
             id="path90"
             inkscape:connector-curvature="0"
             style="fill:#7bad2a" />
        </g>
      </g>
    </g>
    <g
       id="g110"
       transform="matrix(1.00625,0,0,1.004158,-0.2515625,1268.7945)">
      <path
         d="m 30.6,277.3 11.6,11.6 v 35 h -36 v -46.6 z"
         id="path98"
         inkscape:connector-curvature="0"
         style="fill:#ffffff" />
      <path
         d="m 30.3,278 11.2,11.2 v 34 H 7 V 278 H 30.4 M 31,276.7 H 5.5 v 48 H 43 v -36 z"
         id="path100"
         inkscape:connector-curvature="0"
         style="fill:#788b9c" />
      <path
         d="m 30.6,277.3 11.6,11.6 v 0.4 h -12 v -12 z"
         id="path102"
         inkscape:connector-curvature="0"
         style="fill:#eef0f2;fill-opacity:1" />
      <path
         d="m 30.9,278.5 10,10.1 H 31 v -10.1 m 0,-1.9 H 29.6 V 290 H 43 v -1.3 z"
         id="path104"
         inkscape:connector-curvature="0"
         style="fill:#788b9c" />
      <g
         id="g108">
        <path
           d="m 18.9,313.9 14.7,-8.3 -14.7,-8.3 z"
           id="path106"
           inkscape:connector-curvature="0"
           style="fill:#8bb7f0" />
      </g>
    </g>
    <g
       id="g144"
       transform="matrix(1.00625,0,0,1.00625,-0.2515625,1268.3165)">
      <path
         d="m 34.2,496.6 h -20 a 0.7,0.7 0 0 1 -0.7,-0.7 c 0,-0.3 0.3,-0.6 0.7,-0.6 h 20 c 0.4,0 0.7,0.3 0.7,0.6 0,0.4 -0.3,0.7 -0.7,0.7 z m -5.3,4 H 14.2 a 0.7,0.7 0 0 1 -0.7,-0.7 c 0,-0.3 0.3,-0.6 0.7,-0.6 H 29 c 0.3,0 0.6,0.3 0.6,0.6 0,0.4 -0.3,0.7 -0.6,0.7 z m 5.3,4 h -20 a 0.7,0.7 0 0 1 -0.7,-0.7 c 0,-0.3 0.3,-0.6 0.7,-0.6 h 20 c 0.4,0 0.7,0.3 0.7,0.6 0,0.4 -0.3,0.7 -0.7,0.7 z m -5.3,4 H 14.2 a 0.7,0.7 0 0 1 -0.7,-0.7 c 0,-0.3 0.3,-0.6 0.7,-0.6 H 29 c 0.3,0 0.6,0.3 0.6,0.6 0,0.4 -0.3,0.7 -0.6,0.7 z m 5.3,4 h -20 a 0.7,0.7 0 0 1 -0.7,-0.7 c 0,-0.3 0.3,-0.6 0.7,-0.6 h 20 c 0.4,0 0.7,0.3 0.7,0.6 0,0.4 -0.3,0.7 -0.7,0.7 z"
         id="path112"
         inkscape:connector-curvature="0"
         style="fill:#4788c7" />
      <path
         d="m 6.2,524 v -46.7 h 24.4 l 11.6,11.6 v 35 z"
         id="path114"
         inkscape:connector-curvature="0"
         style="fill:#ffffff" />
      <path
         d="m 30.3,478 11.2,11 v 34.2 H 7 V 477.8 H 30.4 M 31,476.5 H 5.5 v 48 H 43 v -36 z"
         id="path116"
         inkscape:connector-curvature="0"
         style="fill:#4788c7" />
      <path
         d="m 30.2,489.3 v -12 h 0.4 l 11.6,11.6 v 0.4 z"
         id="path118"
         inkscape:connector-curvature="0"
         style="fill:#dff0fe" />
      <path
         d="m 30.9,478.5 10,10 H 31 v -10 m 0,-2 H 29.6 V 490 H 43 v -1.3 z"
         id="path120"
         inkscape:connector-curvature="0"
         style="fill:#4788c7" />
      <g
         id="g142">
        <path
           d="m 36.7,507 a 12.4,12.4 0 0 1 -24.8,0 c 0,-6.8 5.5,-12.3 12.4,-12.3 6.9,0 12.4,5.5 12.4,12.3 z"
           id="path122"
           inkscape:connector-curvature="0"
           style="fill:#c2e8ff" />
        <path
           d="m 31.6,516.7 -0.4,-1.3 a 8,8 0 0 1 -0.6,-1.7 v -0.5 c -0.1,-0.4 -0.2,-0.9 -0.6,-1.3 l -0.6,-0.4 h -0.2 c -0.5,-0.3 -1,-0.3 -1.4,-0.3 -0.8,0 -1.2,-0.1 -1.6,-0.6 -0.1,-0.2 -0.1,-0.4 0,-0.8 v -0.3 l 0.3,-0.6 0.3,-0.6 v -0.1 l 0.4,-0.8 0.5,-1.3 0.1,-0.6 v -0.3 l 0.6,-0.3 h 0.1 l 0.1,-0.2 c 0.1,0 0.3,-0.1 0.3,-0.4 l -0.1,-0.4 c 0,0 0,-0.2 0.2,-0.2 l 1,-1 a 29.8,29.8 0 0 0 1.4,-1.3 v -0.5 c 0,-0.1 -0.2,-0.3 -0.4,-0.3 a 3,3 0 0 0 -0.4,-0.1 l -0.3,-0.2 h -0.1 v -0.1 l 0.5,-0.7 0.5,-0.7 0.3,-0.3 c 0.1,-0.3 0.3,-0.5 0.5,-0.6 a 1,1 0 0 1 0.7,0 12.3,12.3 0 0 1 -1,19.1 z"
           id="path124"
           inkscape:connector-curvature="0"
           style="fill:#bae0bd" />
        <path
           d="m 32.4,498.2 h 0.1 a 12,12 0 0 1 3.8,8.8 c 0,3.7 -1.6,7.1 -4.4,9.4 -0.2,-0.3 -0.3,-0.7 -0.3,-1 v -0.1 l -0.1,-0.1 c -0.3,-0.5 -0.4,-1 -0.5,-1.6 l -0.1,-0.4 c -0.1,-0.4 -0.2,-1 -0.6,-1.5 -0.2,-0.3 -0.6,-0.5 -0.8,-0.5 l -0.2,-0.1 -1.5,-0.3 c -0.8,0 -1,0 -1.3,-0.3 v -0.6 -0.3 l 0.3,-0.6 0.3,-0.6 0.4,-0.8 0.6,-1.4 v -0.7 -0.1 l 0.5,-0.2 0.2,-0.1 c 0.1,-0.1 0.4,-0.3 0.4,-0.8 v -0.4 l 1,-1 1,-1 c 0.3,0 0.4,-0.2 0.5,-0.4 v -0.7 a 0.9,0.9 0 0 0 -0.6,-0.5 l -0.4,-0.1 0.7,-1.2 0.3,-0.3 0.4,-0.5 h 0.3 m 0,-0.7 H 32 c -0.4,0.2 -0.7,0.8 -1,1.1 l -1,1.4 c -0.1,0.2 -0.3,0.5 -0.1,0.6 l 0.3,0.1 0.7,0.3 c 0.1,0 0.3,0.2 0.1,0.3 l -0.1,0.2 -2.2,2 -0.3,0.6 c 0,0.1 0.2,0.1 0.2,0.3 l -0.3,0.3 -0.7,0.4 c -0.2,0.3 0,0.7 -0.2,1 -0.1,0.8 -0.6,1.3 -0.9,2 l -0.7,1.4 c 0,0.6 -0.1,1 0.2,1.4 0.7,1 2,0.5 3,1 0.3,0 0.6,0 0.7,0.3 0.5,0.5 0.5,1.2 0.6,1.6 l 0.6,1.8 c 0.1,0.7 0.4,1.4 0.6,2 l 0.3,-0.2 a 12.8,12.8 0 0 0 1,-19.7 l -0.4,-0.1 z"
           id="path126"
           inkscape:connector-curvature="0"
           style="fill:#5e9c76" />
        <path
           d="m 24.4,500 -0.1,-1.1 0.1,-0.7 c 0.1,-0.4 0.2,-0.8 0.1,-1.3 l -0.1,-1.2 v -0.3 H 24 l -0.4,-0.1 H 23.3 V 495 l 0.2,-0.4 a 12.2,12.2 0 0 1 4.9,0.7 c 0,0.1 -0.1,0.5 -0.5,1.1 v 0.2 c -0.2,0.5 -0.5,1 -0.8,1.1 -0.3,0.4 -0.7,0.8 -1.1,1 l -0.7,0.6 -0.7,0.5 a 2.7,2.7 0 0 0 -0.3,0.2 z"
           id="path128"
           inkscape:connector-curvature="0"
           style="fill:#bae0bd" />
        <path
           d="m 24.2,494.9 c 1.3,0 2.6,0.2 3.9,0.6 l -0.4,0.8 v 0.2 a 2,2 0 0 1 -0.7,1 l -1.1,1 -0.7,0.5 -0.6,0.5 v -0.6 l 0.1,-0.6 c 0.1,-0.4 0.3,-0.8 0.2,-1.4 l -0.2,-1.3 v -0.4 L 24.2,495 h -0.4 v -0.1 h 0.4 m 0,-0.7 H 23.4 L 23,495 c -0.1,0.7 0.5,0.6 1,0.7 l 0.2,1.3 c 0.2,0.7 -0.3,1.2 -0.3,1.9 0,0.4 0,1.2 0.3,1.5 h 0.2 l 0.5,-0.3 1.3,-1 1.2,-1 c 0.4,-0.4 0.7,-1 0.9,-1.4 0.1,-0.3 0.6,-1.1 0.5,-1.6 a 13,13 0 0 0 -4.6,-0.9 z"
           id="path130"
           inkscape:connector-curvature="0"
           style="fill:#5e9c76" />
        <g
           id="g136">
          <path
             d="m 20.5,519 a 12.4,12.4 0 0 1 -2.2,-1 v -0.5 l -0.2,-0.6 -0.2,-0.8 a 18.7,18.7 0 0 0 -0.6,-1.4 c -0.2,-0.5 -0.5,-1 -0.5,-1.5 v -0.5 c 0,-0.5 0,-1.1 -0.3,-1.7 h 2.9 l 0.3,0.1 c 0.3,0.1 0.7,0.2 0.9,0.4 v 0.3 l 0.3,0.5 c 0.6,0.7 1.3,0.8 2,1 l 0.6,0.2 c 0.1,0 0.2,0 0.2,0.3 0.2,0.4 0,0.9 0,1.1 l -0.2,0.3 c 0,0.3 -0.2,0.7 -0.4,1 l -0.8,0.4 -0.8,0.9 -0.4,0.5 -0.1,0.1 v 0.1 l -0.5,0.7 z m -5,-8.7 -0.6,-0.3 c -0.3,0 -0.6,-0.2 -0.8,-0.3 -1,-0.6 -1.7,-1.5 -2.1,-2.2 0,-0.2 -0.2,-0.3 -0.3,-0.4 0,-3.5 1.4,-6.7 3.8,-9 a 12,12 0 0 1 3.5,-0.7 h 0.7 c 0.4,0.2 0.8,0.4 1,0.7 0.3,0.3 0.7,0.6 0.7,1 h -1.2 l -0.6,-0.6 a 1,1 0 0 0 -0.4,-0.1 c -1,0 -2.3,1.8 -2.4,2.5 a 2,2 0 0 0 0,1.4 c 0.2,0.3 0.5,0.5 0.8,0.6 0.5,0 1,-0.4 1.5,-0.9 l 0.5,-0.3 0.4,-0.3 0.2,-0.1 h 0.2 c 0.9,0 1.5,0.8 1.7,1.6 v 0.5 c -0.3,0.6 -1.4,1.1 -2.4,1.4 H 19.6 19 c -0.9,0.4 -1.8,1.4 -1.8,2.4 l -0.1,0.8 a 1,1 0 0 0 -0.6,-0.5 c -0.1,-0.2 -0.2,-0.2 -0.4,-0.2 l -0.4,-0.1 -0.6,-0.2 a 1,1 0 0 0 -0.5,0.2 c -0.3,0.2 -0.8,0.8 -0.8,1.4 0,0.2 0,0.5 0.3,0.7 l 0.4,0.2 h 0.3 l 0.2,-0.1 h 0.1 v 0.2 a 56.9,56.9 0 0 0 0.5,0.7 z"
             id="path132"
             inkscape:connector-curvature="0"
             style="fill:#bae0bd" />
          <path
             d="m 19,497.7 h 0.6 l 1,0.7 0.3,0.4 h -0.5 l -0.5,-0.5 -0.1,-0.1 h -0.2 l -0.4,-0.1 c -1.3,0 -2.6,2 -2.8,2.6 -0.1,0.5 -0.1,1.3 0.2,1.8 0.2,0.4 0.5,0.6 1,0.7 0.6,0 1,-0.4 1.7,-1 l 0.5,-0.2 0.3,-0.3 0.2,-0.1 c 0.7,0 1.3,0.7 1.5,1.4 v 0.2 c -0.2,0.4 -1,1 -2.1,1.3 h -0.4 a 1,1 0 0 0 -0.5,0 c -1,0.4 -2,1.5 -2,2.6 v 0.1 A 0.9,0.9 0 0 0 16.1,507 l -0.3,-0.1 a 2,2 0 0 0 -0.7,-0.2 c -0.3,0 -0.5,0 -0.7,0.2 l -0.1,0.1 c -0.3,0.2 -0.8,0.9 -0.8,1.6 v 0.2 c -0.5,-0.5 -1,-1 -1.2,-1.5 a 7,7 0 0 0 -0.2,-0.3 12,12 0 0 1 3.6,-8.7 c 1.2,-0.3 2.4,-0.6 3.3,-0.6 m 0.3,13.7 a 16.4,16.4 0 0 0 1,0.3 v 0.2 l 0.2,0.5 0.1,0.1 v 0.1 c 0.7,0.7 1.5,0.9 2.1,1 l 0.7,0.2 v 0.9 h -0.1 v 0.1 l -0.1,0.3 -0.3,0.8 -0.7,0.4 H 22 l -0.9,1 -0.4,0.5 -0.2,0.2 v 0.1 l -0.2,0.4 -1.8,-0.7 v -0.4 l -0.1,-0.5 v -0.2 l -0.3,-0.7 -0.2,-0.7 a 8,8 0 0 0 -0.4,-0.8 3,3 0 0 1 -0.4,-1.3 v -0.5 L 17,511.4 h 2.2 M 19,497 c -1,0 -2.5,0.2 -3.7,0.6 -2.4,2.4 -3.9,5.7 -3.9,9.3 v 0.2 l 0.3,0.4 c 0.4,0.9 1.3,1.8 2.2,2.4 0.6,0.4 1.7,0.4 2.3,1.1 0.4,0.6 0.3,1.3 0.3,2 0,1 0.6,1.7 0.9,2.4 l 0.4,1.4 0.2,1.2 v 0.1 c 0.8,0.5 1.7,0.8 2.5,1 0.2,0 0.8,-0.8 0.8,-1 0.4,-0.4 0.7,-1 1.2,-1.3 l 0.8,-0.5 c 0.3,-0.3 0.5,-1 0.6,-1.3 0.2,-0.3 0.3,-1 0.2,-1.4 -0.1,-0.2 -0.2,-0.4 -0.5,-0.5 -0.8,-0.3 -1.7,-0.3 -2.4,-1 l -0.3,-1 -1.5,-0.5 h -2.9 c -0.4,-0.2 -0.7,-0.7 -1,-1.2 0,-0.1 0,-0.4 -0.3,-0.4 h -0.7 -0.2 l -0.1,-0.5 c 0,-0.4 0.3,-0.8 0.5,-1.1 l 0.4,-0.1 1,0.2 0.3,0.2 c 0.4,0.1 0.5,0.7 0.5,1.1 v 0.3 c 0,0.2 0.2,0.2 0.3,0.2 l 0.3,-2.2 c 0,-0.9 0.9,-1.8 1.6,-2 h 0.7 c 1,-0.3 3.1,-1.2 2.7,-2.4 -0.3,-1 -1,-1.9 -2.1,-1.9 H 20 l -0.7,0.5 c -0.4,0.3 -1.3,1.1 -1.7,1.1 -0.8,-0.1 -0.8,-1.1 -0.6,-1.6 0.1,-0.5 1.3,-2.2 2.1,-2.2 h 0.2 l 0.6,0.6 c 0.3,0.2 0.7,0.2 1.2,0.2 l 0.4,-0.2 0.1,-0.3 c 0,-0.4 -0.4,-0.8 -0.7,-1.1 -0.3,-0.3 -0.7,-0.6 -1.2,-0.7 A 3,3 0 0 0 18.9,497 Z"
             id="path134"
             inkscape:connector-curvature="0"
             style="fill:#5e9c76" />
        </g>
        <g
           id="g140">
          <path
             d="m 24.2,494.9 a 12.1,12.1 0 1 1 0,24.2 12.1,12.1 0 0 1 0,-24.2 m 0,-0.7 a 12.8,12.8 0 1 0 0,25.6 12.8,12.8 0 0 0 0,-25.6 z"
             id="path138"
             inkscape:connector-curvature="0"
             style="fill:#7496c4" />
        </g>
      </g>
    </g>
    <g
       id="g164"
       transform="matrix(1.00625,0,0,1.00625,-0.2515625,1268.3165)">
      <path
         d="m 6.2,374 v -46.7 h 24.4 l 11.6,11.6 v 35 z"
         id="path146"
         inkscape:connector-curvature="0"
         style="fill:#ffffff" />
      <path
         d="m 30.3,328 11.2,11 v 34.2 H 7 V 327.8 H 30.4 M 31,326.5 H 5.5 v 48 H 43 v -36 z"
         id="path148"
         inkscape:connector-curvature="0"
         style="fill:#4788c7" />
      <path
         d="m 30.2,339.3 v -12 h 0.4 l 11.6,11.6 v 0.4 z"
         id="path150"
         inkscape:connector-curvature="0"
         style="fill:#dff0fe" />
      <path
         d="m 30.9,328.5 10,10 H 31 v -10 m 0,-2 H 29.6 V 340 H 43 v -1.3 z"
         id="path152"
         inkscape:connector-curvature="0"
         style="fill:#4788c7" />
      <path
         d="m 34.2,347.9 h -20 a 0.7,0.7 0 0 1 -0.7,-0.7 c 0,-0.3 0.3,-0.6 0.7,-0.6 h 20 c 0.4,0 0.7,0.3 0.7,0.6 0,0.4 -0.3,0.7 -0.7,0.7 z"
         id="path154"
         inkscape:connector-curvature="0"
         style="fill:#800080" />
      <path
         d="M 28.9,351.9 H 14.2 a 0.7,0.7 0 0 1 -0.7,-0.7 c 0,-0.3 0.3,-0.6 0.7,-0.6 H 29 c 0.3,0 0.6,0.3 0.6,0.6 0,0.4 -0.3,0.7 -0.6,0.7 z"
         id="path156"
         inkscape:connector-curvature="0"
         style="fill:#ff5555" />
      <path
         d="m 34.2,355.9 h -20 a 0.7,0.7 0 0 1 -0.7,-0.7 c 0,-0.3 0.3,-0.6 0.7,-0.6 h 20 c 0.4,0 0.7,0.3 0.7,0.6 0,0.4 -0.3,0.7 -0.7,0.7 z"
         id="path158"
         inkscape:connector-curvature="0"
         style="fill:#008000" />
      <path
         d="M 28.9,359.9 H 14.2 a 0.7,0.7 0 0 1 -0.7,-0.7 c 0,-0.3 0.3,-0.6 0.7,-0.6 H 29 c 0.3,0 0.6,0.3 0.6,0.6 0,0.4 -0.3,0.7 -0.6,0.7 z"
         id="path160"
         inkscape:connector-curvature="0"
         style="fill:#808000" />
      <path
         d="m 34.2,363.9 h -20 a 0.7,0.7 0 0 1 -0.7,-0.7 c 0,-0.3 0.3,-0.6 0.7,-0.6 h 20 c 0.4,0 0.7,0.3 0.7,0.6 0,0.4 -0.3,0.7 -0.7,0.7 z"
         id="path162"
         inkscape:connector-curvature="0"
         style="fill:#550000" />
    </g>
    <g
       id="g174"
       transform="matrix(1.00625,0,0,1.00625,-0.2515625,1268.5177)">
      <path
         d="m 42.2,388.6 v 35 H 6.2 V 377 h 24.4 z"
         id="path166"
         inkscape:connector-curvature="0"
         style="fill:#ffffff" />
      <path
         d="m 30.3,377.6 11.2,11.2 V 423 H 7 V 377.6 H 30.4 M 31,376.3 H 5.5 v 48 H 43 v -36 z"
         id="path168"
         inkscape:connector-curvature="0"
         style="fill:#c74343" />
      <path
         d="m 42.2,388.6 v 0.4 h -12 v -12 h 0.4 z"
         id="path170"
         inkscape:connector-curvature="0"
         style="fill:#ffd9d9" />
      <path
         d="M 30.9,378.2 41,388.3 H 31 v -10.1 m 0,-1.9 h -1.4 v 13.3 H 43 v -1.3 z m -15.9,40.4 c -0.9,0 -1.6,-0.6 -1.6,-1.3 0,-1.9 2.4,-3.3 5.5,-4.4 a 38,38 0 0 0 3.5,-7.9 c -0.8,-2 -1.2,-3.7 -1.2,-5 0,-0.7 0.1,-1.4 0.4,-1.8 0.2,-0.5 0.8,-0.9 1.4,-0.9 0.6,0 1.1,0.3 1.4,0.8 0.2,0.4 0.2,1 0.2,1.6 0,1.2 -0.4,3 -0.9,5 a 26,26 0 0 0 3.7,6.2 c 2.4,-0.3 4.4,-0.1 5.5,0.3 1.3,0.4 1.6,1.2 1.6,1.7 0,0.5 -0.3,1.9 -2.5,1.9 -1.9,0 -3.8,-1 -5.2,-2.7 -2.4,0.3 -5,0.8 -7.2,1.5 -1.2,3 -3,5 -4.6,5 z m -0.2,-1.3 h 0.2 c 0.7,0 1.8,-1 2.8,-2.5 -1.8,0.8 -3,1.7 -3,2.5 z m 14.1,-5 c 1,1 2.3,1.5 3.3,1.5 1.2,0 1.2,-0.4 1.2,-0.5 0,-0.3 -0.5,-0.4 -0.6,-0.5 -1,-0.4 -2.3,-0.6 -3.9,-0.4 z m -5.7,-5.5 a 40,40 0 0 1 -2.4,5.4 c 1.7,-0.4 3.4,-0.8 5,-1 a 35,35 0 0 1 -2.6,-4.4 z m 0,-8.2 c -0.2,0 -0.3,0 -0.3,0.2 l -0.1,1 c 0,0.8 0.1,1.8 0.4,2.8 0.2,-1 0.4,-2 0.4,-2.9 0,-0.7 -0.2,-1 -0.2,-1 h -0.2 z"
         id="path172"
         inkscape:connector-curvature="0"
         style="fill:#c74343" />
    </g>
    <g
       id="g184"
       transform="matrix(1.00625,0,0,1.00625,-0.2515625,1268.3165)">
      <path
         d="m 6.2,474 v -46.7 h 24.4 l 11.6,11.6 v 35 z"
         id="path176"
         inkscape:connector-curvature="0"
         style="fill:#ffffff" />
      <path
         d="m 30.2,439.3 v -12 h 0.4 l 11.6,11.6 v 0.4 z"
         id="path178"
         inkscape:connector-curvature="0"
         style="fill:#ffd5d5" />
      <path
         d="m 30.3,428 11.2,11 v 34.2 H 7 V 427.8 H 30.4 M 31,426.5 H 5.5 v 48 H 43 v -36 z"
         id="path180"
         inkscape:connector-curvature="0"
         style="fill:#e64a19" />
      <path
         d="m 30.9,428.5 10,10 H 31 v -10 m 0,-2 H 29.6 V 440 H 43 v -1.3 z m -18.2,22.5 14.5,-5.3 7.9,2 v 22.4 l -8,2 -14.4,-5.3 14.5,2 v -19.1 l -9.3,2 v 13.1 l -5.2,2 z"
         id="path182"
         inkscape:connector-curvature="0"
         style="fill:#e64a19" />
    </g>
    <g
       id="d"
       transform="matrix(1.0107447,0,0,1.0062525,-0.27626287,1268.1475)">
      <path
         d="m 6.5,37.5 v -35 h 18.3 l 8.7,8.7 v 26.3 z"
         transform="matrix(1.33333,0,0,1.33333,-2.5,524)"
         id="path186"
         inkscape:connector-curvature="0"
         style="fill:#ffffff" />
      <path
         d="M 24.6,3 33,11.4 V 37 H 7 V 3 H 24.6 M 25,2 H 6 V 38 H 34 V 11 Z"
         transform="matrix(1.33333,0,0,1.33333,-2.5,524)"
         id="path188"
         inkscape:connector-curvature="0"
         style="fill:#4788c7" />
      <path
         d="m 24.5,11.5 v -9 h 0.3 l 8.7,8.7 v 0.3 z"
         transform="matrix(1.33333,0,0,1.33333,-2.5,524)"
         id="path190"
         inkscape:connector-curvature="0"
         style="fill:#dff0fe" />
      <path
         d="M 25,3.4 32.6,11 H 25 V 3.4 M 25,2 h -1 v 10 h 10 v -1 z"
         transform="matrix(1.33333,0,0,1.33333,-2.5,524)"
         id="path192"
         inkscape:connector-curvature="0"
         style="fill:#4788c7" />
      <g
         stroke-miterlimit="10"
         id="g196"
         style="fill:none;stroke:#4788c7;stroke-linecap:round;stroke-miterlimit:10">
        <path
           d="m 25.5,19.5 2,4 -2,4 m -11,-8 -2,4 2,4 m 8,-11 -5,14"
           transform="matrix(1.33333,0,0,1.33333,-2.5,525.3)"
           id="path194"
           inkscape:connector-curvature="0" />
      </g>
    </g>
    <g
       id="f"
       transform="matrix(1.0107447,0,0,1.0062525,-0.27626287,1268.1463)">
      <path
         d="m 6.5,2.5 h 27 v 35 h -27 z"
         transform="matrix(1.33333,0,0,1.33333,-2.5,974)"
         id="path199"
         inkscape:connector-curvature="0"
         style="fill:#ffeea3" />
      <path
         d="M 33,3 V 37 H 7 V 3 H 33 M 34,2 H 6 v 36 h 28 z"
         transform="matrix(1.33333,0,0,1.33333,-2.5,974)"
         id="path201"
         inkscape:connector-curvature="0"
         style="fill:#ba9b48" />
      <path
         d="m 20,30.5 c -2,0 -3.5,-1.6 -3.5,-3.5 0,-0.6 0.4,-2.5 1,-5.3 0.1,-0.7 0.7,-1.2 1.4,-1.2 h 2.2 c 0.7,0 1.3,0.5 1.4,1.2 l 1,5.3 c 0,2 -1.6,3.5 -3.5,3.5 z"
         transform="matrix(1.33333,0,0,1.33333,-2.5,974)"
         id="path203"
         inkscape:connector-curvature="0"
         style="fill:#fffae0" />
      <path
         d="m 21,21 c 0.5,0 1,0.3 1,0.8 1,4 1,5 1,5.2 a 3,3 0 0 1 -6,0 c 0,-0.2 0,-1.1 1,-5.2 A 1,1 0 0 1 19,21 h 2 m 0,-1 h -2 a 2,2 0 0 0 -2,1.6 c -0.4,1.8 -1,4.6 -1,5.4 a 4,4 0 0 0 8,0 c 0,-0.8 -0.6,-3.6 -1,-5.4 A 2,2 0 0 0 21,20 Z"
         transform="matrix(1.33333,0,0,1.33333,-2.5,974)"
         id="path205"
         inkscape:connector-curvature="0"
         style="fill:#ba9b48" />
      <circle
         cx="20"
         cy="27"
         r="1.5"
         transform="matrix(1.33333,0,0,1.33333,-2.5,974)"
         id="circle207"
         style="fill:#ba9b48" />
      <path
         d="M 22.5,19 H 20 l -1,-1 h 3.5 z"
         transform="matrix(1.33333,0,0,1.33333,-2.5,974)"
         id="path209"
         inkscape:connector-curvature="0"
         style="fill:#ba9b48" />
      <circle
         cx="22.5"
         cy="18.5"
         r="0.5"
         transform="matrix(1.33333,0,0,1.33333,-2.5,974)"
         id="circle211"
         style="fill:#ba9b48" />
      <path
         d="M 17.5,20 H 20 l 1,-1 h -3.5 z"
         transform="matrix(1.33333,0,0,1.33333,-2.5,974)"
         id="path213"
         inkscape:connector-curvature="0"
         style="fill:#ba9b48" />
      <circle
         cx="17.5"
         cy="19.5"
         r="0.5"
         transform="matrix(1.33333,0,0,1.33333,-2.5,974)"
         id="circle215"
         style="fill:#ba9b48" />
      <path
         d="M 22.5,17 H 20 l -1,-1 h 3.5 z"
         transform="matrix(1.33333,0,0,1.33333,-2.5,974)"
         id="path217"
         inkscape:connector-curvature="0"
         style="fill:#ba9b48" />
      <circle
         cx="22.5"
         cy="16.5"
         r="0.5"
         transform="matrix(1.33333,0,0,1.33333,-2.5,974)"
         id="circle219"
         style="fill:#ba9b48" />
      <path
         d="M 17.5,18 H 20 l 1,-1 h -3.5 z"
         transform="matrix(1.33333,0,0,1.33333,-2.5,974)"
         id="path221"
         inkscape:connector-curvature="0"
         style="fill:#ba9b48" />
      <circle
         cx="17.5"
         cy="17.5"
         r="0.5"
         transform="matrix(1.33333,0,0,1.33333,-2.5,974)"
         id="circle223"
         style="fill:#ba9b48" />
      <path
         d="M 22.5,15 H 20 l -1,-1 h 3.5 z"
         transform="matrix(1.33333,0,0,1.33333,-2.5,974)"
         id="path225"
         inkscape:connector-curvature="0"
         style="fill:#ba9b48" />
      <circle
         cx="22.5"
         cy="14.5"
         r="0.5"
         transform="matrix(1.33333,0,0,1.33333,-2.5,974)"
         id="circle227"
         style="fill:#ba9b48" />
      <path
         d="M 17.5,16 H 20 l 1,-1 h -3.5 z"
         transform="matrix(1.33333,0,0,1.33333,-2.5,974)"
         id="path229"
         inkscape:connector-curvature="0"
         style="fill:#ba9b48" />
      <circle
         cx="17.5"
         cy="15.5"
         r="0.5"
         transform="matrix(1.33333,0,0,1.33333,-2.5,974)"
         id="circle231"
         style="fill:#ba9b48" />
      <path
         d="M 22.5,13 H 20 l -1,-1 h 3.5 z"
         transform="matrix(1.33333,0,0,1.33333,-2.5,974)"
         id="path233"
         inkscape:connector-curvature="0"
         style="fill:#ba9b48" />
      <circle
         cx="22.5"
         cy="12.5"
         r="0.5"
         transform="matrix(1.33333,0,0,1.33333,-2.5,974)"
         id="circle235"
         style="fill:#ba9b48" />
      <path
         d="M 17.5,14 H 20 l 1,-1 h -3.5 z"
         transform="matrix(1.33333,0,0,1.33333,-2.5,974)"
         id="path237"
         inkscape:connector-curvature="0"
         style="fill:#ba9b48" />
      <circle
         cx="17.5"
         cy="13.5"
         r="0.5"
         transform="matrix(1.33333,0,0,1.33333,-2.5,974)"
         id="circle239"
         style="fill:#ba9b48" />
      <path
         d="M 22.5,11 H 20 l -1,-1 h 3.5 z"
         transform="matrix(1.33333,0,0,1.33333,-2.5,974)"
         id="path241"
         inkscape:connector-curvature="0"
         style="fill:#ba9b48" />
      <circle
         cx="22.5"
         cy="10.5"
         r="0.5"
         transform="matrix(1.33333,0,0,1.33333,-2.5,974)"
         id="circle243"
         style="fill:#ba9b48" />
      <path
         d="M 17.5,12 H 20 l 1,-1 h -3.5 z"
         transform="matrix(1.33333,0,0,1.33333,-2.5,974)"
         id="path245"
         inkscape:connector-curvature="0"
         style="fill:#ba9b48" />
      <circle
         cx="17.5"
         cy="11.5"
         r="0.5"
         transform="matrix(1.33333,0,0,1.33333,-2.5,974)"
         id="circle247"
         style="fill:#ba9b48" />
      <path
         d="M 22.5,9 H 20 L 19,8 h 3.5 z"
         transform="matrix(1.33333,0,0,1.33333,-2.5,974)"
         id="path249"
         inkscape:connector-curvature="0"
         style="fill:#ba9b48" />
      <circle
         cx="22.5"
         cy="8.5"
         r="0.5"
         transform="matrix(1.33333,0,0,1.33333,-2.5,974)"
         id="circle251"
         style="fill:#ba9b48" />
      <path
         d="M 17.5,10 H 20 l 1,-1 h -3.5 z"
         transform="matrix(1.33333,0,0,1.33333,-2.5,974)"
         id="path253"
         inkscape:connector-curvature="0"
         style="fill:#ba9b48" />
      <circle
         cx="17.5"
         cy="9.5"
         r="0.5"
         transform="matrix(1.33333,0,0,1.33333,-2.5,974)"
         id="circle255"
         style="fill:#ba9b48" />
      <path
         d="M 22.5,7 H 20 L 19,6 h 3.5 z"
         transform="matrix(1.33333,0,0,1.33333,-2.5,974)"
         id="path257"
         inkscape:connector-curvature="0"
         style="fill:#ba9b48" />
      <circle
         cx="22.5"
         cy="6.5"
         r="0.5"
         transform="matrix(1.33333,0,0,1.33333,-2.5,974)"
         id="circle259"
         style="fill:#ba9b48" />
      <path
         d="M 17.5,8 H 20 l 1,-1 h -3.5 z"
         transform="matrix(1.33333,0,0,1.33333,-2.5,974)"
         id="path261"
         inkscape:connector-curvature="0"
         style="fill:#ba9b48" />
      <circle
         cx="17.5"
         cy="7.5"
         r="0.5"
         transform="matrix(1.33333,0,0,1.33333,-2.5,974)"
         id="circle263"
         style="fill:#ba9b48" />
      <path
         d="M 22.5,5 H 20 L 19,4 h 3.5 z"
         transform="matrix(1.33333,0,0,1.33333,-2.5,974)"
         id="path265"
         inkscape:connector-curvature="0"
         style="fill:#ba9b48" />
      <circle
         cx="22.5"
         cy="4.5"
         r="0.5"
         transform="matrix(1.33333,0,0,1.33333,-2.5,974)"
         id="circle267"
         style="fill:#ba9b48" />
      <path
         d="M 17.5,6 H 20 l 1,-1 h -3.5 z"
         transform="matrix(1.33333,0,0,1.33333,-2.5,974)"
         id="path269"
         inkscape:connector-curvature="0"
         style="fill:#ba9b48" />
      <circle
         cx="17.5"
         cy="5.5"
         r="0.5"
         transform="matrix(1.33333,0,0,1.33333,-2.5,974)"
         id="circle271"
         style="fill:#ba9b48" />
      <g
         id="g275">
        <path
           d="M 17.5,4 H 20 l 1,-1 h -3.5 z"
           transform="matrix(1.33333,0,0,1.33333,-2.5,974)"
           id="path273"
           inkscape:connector-curvature="0"
           style="fill:#ba9b48" />
      </g>
      <g
         transform="matrix(1.33333,0,0,1.33333,-2.5,974)"
         id="g279">
        <circle
           cx="17.5"
           cy="3.5"
           r="0.5"
           id="circle277"
           style="fill:#ba9b48" />
      </g>
    </g>
    <g
       id="g298"
       transform="matrix(1.00625,0,0,1.004158,-0.2515625,1270.7777)">
      <path
         d="m 6.2,1223.9 v -46.7 h 24.4 l 11.6,11.6 v 35 z"
         id="path282"
         inkscape:connector-curvature="0"
         style="fill:#ffffff" />
      <path
         d="m 30.3,1177.9 11.2,11.2 v 34.1 H 7 V 1178 h 23.4 m 0.6,-1.4 H 5.5 v 48 H 43 v -36 z"
         id="path284"
         inkscape:connector-curvature="0"
         style="fill:#c74343" />
      <g
         id="g290">
        <path
           d="m 30.2,1189.2 v -12 h 0.4 l 11.6,11.6 v 0.4 z"
           id="path286"
           inkscape:connector-curvature="0"
           style="fill:#ffd9d9" />
        <path
           d="M 30.9,1178.4 41,1188.5 H 31 v -10 m 0,-2 h -1.4 v 13.4 H 43 v -1.4 z"
           id="path288"
           inkscape:connector-curvature="0"
           style="fill:#c74343" />
      </g>
      <g
         id="g296">
        <path
           d="m 10.6,1195.9 a 3,3 0 0 1 3,-3 h 21 a 3,3 0 0 1 3.1,3 v 21 a 3,3 0 0 1 -3,3 H 13.6 a 3,3 0 0 1 -3,-3 z"
           id="path292"
           inkscape:connector-curvature="0"
           style="fill:#f44336" />
        <path
           d="m 12.8,1195.1 v 22.6 h 22.6 v -22.6 z m 12.9,7.7 h -3.8 v 2.7 h 3.4 v 1.8 h -3.4 v 4.4 H 19.7 V 1201 h 6 z m 3.1,8.9 h -2 V 1201 h 2 z"
           id="path294"
           inkscape:connector-curvature="0"
           style="fill:#210403" />
      </g>
    </g>
    <g
       id="g328"
       transform="matrix(1.004158,0,0,1.0147059,-0.2008315,1257.438)">
      <path
         d="m 22.8,1262.2 v -34.7 h 16.9 l 8,8.6 v 26.1 z"
         id="path300"
         inkscape:connector-curvature="0"
         style="fill:#ffffff" />
      <path
         d="m 39.5,1228 7.8,8.3 v 25.4 h -24 V 1228 h 16.2 m 0.4,-1 H 22.3 v 35.7 h 26 V 1236 Z"
         id="path302"
         inkscape:connector-curvature="0"
         style="fill:#4788c7" />
      <path
         d="m 39.4,1236.4 v -9 h 0.3 l 8,8.7 v 0.3 z"
         id="path304"
         inkscape:connector-curvature="0"
         style="fill:#dff0fe" />
      <path
         d="m 39.9,1228.4 7,7.5 h -7 v -7.5 m 0,-1.4 h -1 v 10 h 9.3 v -1 z"
         id="path306"
         inkscape:connector-curvature="0"
         style="fill:#4788c7" />
      <g
         id="g316">
        <path
           d="m 12.2,1267.6 v -34.8 h 17 l 8,8.7 v 26 z"
           id="path308"
           inkscape:connector-curvature="0"
           style="fill:#ffffff" />
        <path
           d="m 29,1233.3 7.7,8.4 v 25.4 h -24 v -33.8 H 29 m 0.4,-1 H 11.8 v 35.7 h 25.8 v -26.7 z"
           id="path310"
           inkscape:connector-curvature="0"
           style="fill:#4788c7" />
        <path
           d="m 28.9,1241.8 v -9 h 0.2 l 8,8.7 v 0.3 z"
           id="path312"
           inkscape:connector-curvature="0"
           style="fill:#dff0fe" />
        <path
           d="m 29.3,1233.7 7,7.6 h -7 v -7.6 m 0,-1.4 h -0.9 v 10 h 9.2 v -1 z"
           id="path314"
           inkscape:connector-curvature="0"
           style="fill:#4788c7" />
      </g>
      <g
         id="g326">
        <path
           d="m 0.7,1274 v -34.7 h 16.9 l 8,8.7 v 26 z"
           id="path318"
           inkscape:connector-curvature="0"
           style="fill:#ffffff" />
        <path
           d="m 17.4,1239.8 7.7,8.4 v 25.4 h -24 v -33.8 h 16.3 m 0.4,-1 H 0.2 v 35.8 h 25.9 v -26.8 z"
           id="path320"
           inkscape:connector-curvature="0"
           style="fill:#4788c7" />
        <path
           d="m 17.3,1248.3 v -9 h 0.3 l 8,8.7 v 0.3 z"
           id="path322"
           inkscape:connector-curvature="0"
           style="fill:#dff0fe" />
        <path
           d="m 17.8,1240.3 7,7.5 h -7 v -7.5 m 0,-1.4 h -1 v 9.9 h 9.3 v -1 z"
           id="path324"
           inkscape:connector-curvature="0"
           style="fill:#4788c7" />
      </g>
    </g>
    <g
       id="e"
       transform="matrix(1.0107447,0,0,1.0062525,-0.27626287,1268.1473)">
      <path
         d="m 6.5,37.5 v -35 h 18.3 l 8.7,8.7 v 26.3 z"
         transform="matrix(1.33333,0,0,1.33333,-2.5,574)"
         id="path330"
         inkscape:connector-curvature="0"
         style="fill:#ffffff" />
      <path
         d="M 24.6,3 33,11.4 V 37 H 7 V 3 H 24.6 M 25,2 H 6 V 38 H 34 V 11 Z"
         transform="matrix(1.33333,0,0,1.33333,-2.5,574)"
         id="path332"
         inkscape:connector-curvature="0"
         style="fill:#4788c7" />
      <path
         d="m 24.5,11.5 v -9 h 0.3 l 8.7,8.7 v 0.3 z"
         transform="matrix(1.33333,0,0,1.33333,-2.5,574)"
         id="path334"
         inkscape:connector-curvature="0"
         style="fill:#dff0fe" />
      <path
         d="M 25,3.4 32.6,11 H 25 V 3.4 M 25,2 h -1 v 10 h 10 v -1 z"
         transform="matrix(1.33333,0,0,1.33333,-2.5,574)"
         id="path336"
         inkscape:connector-curvature="0"
         style="fill:#4788c7" />
      <g
         id="g346">
        <path
           d="m 2.5,3.5 h 35 v 33 h -35 z"
           transform="matrix(0.74402,0,0,0.74402,9.4,593)"
           id="path338"
           inkscape:connector-curvature="0"
           style="fill:#ffffff" />
        <path
           d="M 37,4 V 36 H 3 V 4 H 37 M 38,3 H 2 v 34 h 36 z"
           transform="matrix(0.74402,0,0,0.74402,9.4,593)"
           id="path340"
           inkscape:connector-curvature="0"
           style="fill:#4788c7" />
        <path
           d="M 3,4 H 37 V 9 H 3 Z"
           transform="matrix(0.74402,0,0,0.74402,9.4,593)"
           id="path342"
           inkscape:connector-curvature="0"
           style="fill:#98ccfd" />
        <path
           d="m 14.6,24.6 c 0.5,1.1 1.3,1.9 2.2,1.9 2.1,0 3.2,-2 3.2,-4.5 0,-2.5 -1.2,-4.5 -3.2,-4.5 -1,0 -1.7,0.8 -2.2,2 m 10.8,5.1 c -0.5,1.1 -1.3,1.9 -2.2,1.9 -2.1,0 -3.2,-2 -3.2,-4.5 0,-2.5 1.2,-4.5 3.2,-4.5 1,0 1.7,0.8 2.2,2 m 3.1,9 a 20.6,20.6 0 0 0 0,-13 m -17,0 a 20.6,20.6 0 0 0 0,13"
           stroke-miterlimit="10"
           transform="matrix(0.74402,0,0,0.74402,9.4,593)"
           id="path344"
           inkscape:connector-curvature="0"
           style="fill:none;stroke:#4788c7;stroke-linecap:round;stroke-miterlimit:10" />
      </g>
    </g>
    <use
       height="100%"
       width="100%"
       transform="translate(0,402.49997)"
       xlink:href="#d"
       id="use349"
       x="0"
       y="0" />
    <use
       height="100%"
       width="100%"
       transform="translate(0,50.312474)"
       xlink:href="#e"
       id="use351"
       x="0"
       y="0" />
    <use
       height="100%"
       width="100%"
       transform="translate(0,100.62497)"
       xlink:href="#e"
       id="use353"
       x="0"
       y="0" />
    <use
       height="100%"
       width="100%"
       transform="translate(0,150.93747)"
       xlink:href="#e"
       id="use355"
       x="0"
       y="0" />
    <use
       height="100%"
       width="100%"
       transform="translate(0,201.24997)"
       xlink:href="#e"
       id="use357"
       x="0"
       y="0" />
    <use
       height="100%"
       width="100%"
       transform="translate(0,251.56247)"
       xlink:href="#e"
       id="use359"
       x="0"
       y="0" />
    <use
       height="100%"
       width="100%"
       transform="translate(0,301.87497)"
       xlink:href="#e"
       id="use361"
       x="0"
       y="0" />
    <use
       height="100%"
       width="100%"
       transform="translate(0,50.312474)"
       xlink:href="#f"
       id="use363"
       x="0"
       y="0" />
    <use
       height="100%"
       width="100%"
       transform="translate(0,100.62497)"
       xlink:href="#f"
       id="use365"
       x="0"
       y="0" />
    <use
       height="100%"
       width="100%"
       transform="translate(0,150.93747)"
       xlink:href="#f"
       id="use367"
       x="0"
       y="0" />
    <use
       height="100%"
       width="100%"
       transform="translate(0,1157.1875)"
       xlink:href="#g"
       id="use369"
       x="0"
       y="0" />
  </g>
</svg>
