<svg xmlns="http://www.w3.org/2000/svg" xmlns:xlink="http://www.w3.org/1999/xlink" width="49" height="1401" viewBox="0 0 12.7 370.422"><defs><linearGradient id="A"><stop offset="0" stop-color="#85b1d9"/><stop offset="1" stop-color="#dff0fe"/></linearGradient><linearGradient xlink:href="#A" id="B" x1="20.177" y1="35.734" x2="20.177" y2="12.514" gradientUnits="userSpaceOnUse"/><linearGradient xlink:href="#A" id="C" gradientUnits="userSpaceOnUse" x1="21.703" y1="35.389" x2="21.875" y2="7.4"/></defs><g transform="translate(-.017 73.422)"><g transform="matrix(1.111111 0 0 1.111111 -.615045 7.41506)"><g transform="matrix(.3175 0 0 .3175 -.066146 -73.388336)"><path d="M24.793 2.5l8.707 8.707V37.5h-27v-35z" fill="#fff"/><path d="M24.586 3L33 11.414V37H7V3h17.586M25 2H6v36h28V11z" fill="#788b9c"/><path d="M24.793 2.5l8.707 8.707v.293h-9v-9z" fill="#fff"/><path d="M25 3.414L32.586 11H25V3.414M25 2h-1v10h10v-1z" fill="#788b9c"/></g><text transform="scale(1.1030678,0.90656258)" y="-69.289" x="3.433" style="line-height:1.25;letter-spacing:0px;word-spacing:0px" font-size="8.4992733px" font-family="sans-serif" fill="navy"><tspan y="-69.289" x="3.433">?</tspan></text></g><path d="M.499-48.436v-9.842h3.268l.952.953h7.527v8.89z" fill="#b6dcfe"/><path d="M3.701-58.119l.953.952h7.434v8.573H.658v-9.525h3.044m.131-.318H.34v10.16h12.065v-9.208h-7.62z" fill="#4788c7"/><path d="M1.5 35.5v-26h10.652l3-2H38.5v28z" fill="url(#C)" transform="matrix(.3175 0 0 .3175 .022747 -59.706902)"/><path d="M12.088-57.167v8.573H.658v-7.937h3.272l.079-.053.873-.582h7.206m.318-.317h-7.62l-.953.635H.34v8.573h12.065z" fill="#4788c7"/><path d="M.34-35.259v-9.842h3.268l.952.953h6.574v8.89z" fill="#b6dcfe"/><path d="M3.543-44.943l.952.952h6.481v8.573H.499v-9.525h3.044m.131-.318H.181v10.16h11.112v-9.208H4.626z" fill="#4788c7"/><path d="M1.598 35.5l3.82-21h10.734l3-2H39.41l-3.832 23z" fill="url(#B)" transform="matrix(.3175 0 0 .3175 -.136003 -46.530701)"/><path d="M12.189-42.403l-1.165 6.985H.562l1.155-6.35h3.324l.079-.053.873-.582h6.196m.375-.317H5.896l-.953.635H1.451l-1.27 6.985h11.112z" fill="#4788c7"/><path d="M1.605-21.206v-12.347h6.453l3.072 3.072v9.276z" fill="#fff"/><path d="M7.985-33.377l2.968 2.968v9.026H1.781v-11.994h6.204m.146-.353H1.428v12.7h9.878v-9.525z" fill="#4788c7"/><path d="M7.955-30.378v-3.175h.103l3.072 3.072v.103z" fill="#dff0fe"/><path d="M8.131-33.231l2.676 2.676H8.131v-2.676m0-.499h-.353v3.528h3.528v-.353z" fill="#4788c7"/><path d="M13.5 18.5h1V23m5-.5a1 1 0 0 1-1-1v-2a1 1 0 1 1 2 0v2a1 1 0 0 1-1 1zm6 0a1 1 0 0 1-1-1v-2a1 1 0 0 1 2 0v2a1 1 0 0 1-1 1zm0 3h1V30m-6-.5a1 1 0 0 1-1-1v-2a1 1 0 1 1 2 0v2a1 1 0 0 1-1 1zm-6 0a1 1 0 0 1-1-1v-2a1 1 0 1 1 2 0v2a1 1 0 0 1-1 1z" fill="none" stroke="#4788c7" stroke-miterlimit="10" transform="matrix(.352778 0 0 .352778 -.688541 -34.435207)"/><path d="M1.605-7.977v-12.347h6.453l3.072 3.072v9.276z" fill="#fff"/><path d="M7.985-20.148l2.968 2.968v9.026H1.781v-11.994h6.204m.146-.353H1.428v12.7h9.878v-9.525z" fill="#4788c7"/><path d="M7.955-17.149v-3.175h.103l3.072 3.072v.103z" fill="#dff0fe"/><path d="M8.131-20.001l2.676 2.676H8.131v-2.676m0-.499h-.353v3.528h3.528v-.353zm.882 5.292H3.721c-.098 0-.176-.079-.176-.176s.079-.176.176-.176h5.292c.098 0 .176.079.176.176s-.079.176-.176.176zM7.602-14.15H3.721c-.098 0-.176-.079-.176-.176s.079-.176.176-.176h3.881c.098 0 .176.079.176.176s-.079.176-.176.176zm1.411 1.058H3.721c-.098 0-.176-.079-.176-.176s.079-.176.176-.176h5.292c.098 0 .176.079.176.176s-.079.176-.176.176zm-1.411 1.058H3.721c-.098 0-.176-.079-.176-.176s.079-.176.176-.176h3.881c.098 0 .176.079.176.176s-.079.176-.176.176zm1.411 1.058H3.721c-.098 0-.176-.079-.176-.176s.079-.176.176-.176h5.292c.098 0 .176.079.176.176s-.079.176-.176.176z" fill="#4788c7"/><g transform="matrix(.352778 0 0 .352778 -.688541 -7.976572)"><path d="M6.5 37.5v-35h18.293l8.707 8.707V37.5z" fill="#fff"/><path d="M24.586 3L33 11.414V37H7V3h17.586M25 2H6v36h28V11z" fill="#788b9c"/><path d="M24.5 11.5v-9h.293l8.707 8.707v.293z" fill="#fff"/><path d="M25 3.414L32.586 11H25V3.414M25 2h-1v10h10v-1z" fill="#788b9c"/><path d="M23 21.169L20 24l4.554 5H28v-3z" fill="#7aadf0"/><g fill="#b5deff"><circle r="2" cy="17" cx="26"/><path d="M12 29v-4l5-5 9 9z"/></g></g><g transform="matrix(.352778 0 0 .352778 -.688541 5.237524)"><path d="M33.5 11.2v26.3h-27v-35h18.3z" fill="#c2e8ff"/><path d="M24.6 3l8.4 8.4V37H7V3h17.6m.4-1H6v36h28V11z" fill="#7496c4"/><path d="M33.5 11.2v.3h-9v-9h.3z" fill="#fff"/><path d="M25 3.4l7.6 7.6H25V3.4M25 2h-1v10h10v-1z" fill="#7496c4"/><path d="M20.5 26v-9.5c2.6 0 4 1 4 1v2s-1.8-1-3.5-1" fill="#8bb7f0"/><path d="M21 26h-1V16h.5c2.8 0 4.2 1.1 4.3 1.1l.2.1v3.1l-.7-.4S22.5 19 21 19zm0-8c1.1 0 2.3.4 3 .7v-.9c-.4-.2-1.4-.7-3-.8z" fill="#4e7ab5"/><circle r="2.5" cy="26" cx="18" fill="#8bb7f0"/><path d="M18 24c1.1 0 2 .9 2 2s-.9 2-2 2-2-.9-2-2 .9-2 2-2m0-1c-1.7 0-3 1.3-3 3s1.3 3 3 3 3-1.3 3-3-1.3-3-3-3z" fill="#4e7ab5"/></g><g transform="matrix(.352778 0 0 .352778 -.688541 18.488504)"><path d="M6.5 2.5h18.293l8.707 8.707V37.5h-27z" fill="#fff"/><path d="M24.586 3L33 11.414V37H7V3h17.586M25 2H6v36h28V11z" fill="#788b9c"/><path d="M24.5 2.5h.293l8.707 8.707v.293h-9z" fill="#fff"/><path d="M25 3.414L32.586 11H25V3.414M25 2h-1v10h10v-1z" fill="#788b9c"/><path d="M16 28.231L27.077 22 16 15.769z" fill="#8bb7f0"/></g><g transform="matrix(1.000037 0 0 1.000037 -.336057 39.618561)"><path d="M9.349 37.776H4.057c-.098 0-.176-.079-.176-.176s.079-.176.176-.176h5.291c.098 0 .176.079.176.176s-.079.176-.176.176zm-1.411 1.058h-3.88c-.098 0-.176-.079-.176-.176s.079-.176.176-.176h3.88c.098 0 .176.079.176.176s-.079.176-.176.176zm1.411 1.058H4.057c-.098 0-.176-.079-.176-.176s.079-.176.176-.176h5.291c.098 0 .176.079.176.176s-.079.176-.176.176zm-1.411 1.058h-3.88c-.098 0-.176-.079-.176-.176s.079-.176.176-.176h3.88c.098 0 .176.079.176.176s-.079.176-.176.176zm1.411 1.058H4.057c-.098 0-.176-.079-.176-.176s.079-.176.176-.176h5.291c.098 0 .176.079.176.176s-.079.176-.176.176z" fill="#4788c7"/><path d="M1.941 45.007V32.661h6.453l3.072 3.072v9.275z" fill="#fff"/><path d="M8.321 32.837l2.968 2.968v9.026H2.117V32.837h6.204m.146-.353H1.764v12.7h9.877v-9.525z" fill="#4788c7"/><path d="M8.29 35.836v-3.175h.103l3.072 3.072v.103z" fill="#dff0fe"/><path d="M8.467 32.983l2.676 2.676H8.467v-2.676m0-.499h-.353v3.528h3.528v-.353z" fill="#4788c7"/><g transform="matrix(.178296 0 0 .178296 3.136902 36.970673)"><path d="M38.47 20.011c0 10.191-8.343 18.305-18.393 18.305S1.683 30.203 1.683 20.011 9.836 1.706 20.077 1.706 38.47 9.82 38.47 20.011z" fill="#c2e8ff"/><path d="M30.933 34.296c-.19-.597-.388-1.213-.511-1.83l-.013-.065-.03-.06c-.409-.818-.621-1.667-.826-2.488-.068-.209-.107-.415-.151-.633-.12-.607-.269-1.358-.79-1.919-.246-.426-.631-.56-.942-.669-.104-.036-.214-.073-.322-.127-.698-.3-1.403-.326-2.085-.351-1.083-.04-1.772-.099-2.265-.788-.204-.307-.193-.62-.152-1.191l.028-.526a10.06 10.06 0 0 0 .488-.898c.159-.319.309-.62.508-.917l.029-.043.019-.049c.157-.391.344-.753.526-1.107.311-.604.631-1.227.785-1.944.129-.303.13-.625.13-.913 0-.17 0-.344.029-.462.188-.146.542-.324.859-.484l.071-.036.08-.068c.041-.041.086-.069.144-.105.142-.087.435-.268.435-.681 0-.248-.11-.411-.194-.506a1.43 1.43 0 0 1 .264-.435l1.602-1.494 1.531-1.423c.222-.078.374-.259.437-.462.131-.203.159-.445.068-.663-.102-.248-.34-.426-.614-.472a4.4 4.4 0 0 0-.518-.2c-.143-.048-.286-.095-.478-.19l-.105-.053h-.126a.69.69 0 0 1 .146-.225l.711-1.048.648-.972c.089-.075.241-.272.399-.481.262-.345.558-.736.854-.835.214-.093.385-.129.567-.129.132 0 .271.02.416.06C36.4 9.937 38.5 14.759 38.5 20c0 5.861-2.701 11.238-7.416 14.776l-.151-.48z" fill="#bae0bd"/><path d="M32.17 6.85a.96.96 0 0 1 .172.016C35.992 10.29 38 14.945 38 20c0 5.479-2.427 10.523-6.656 13.942-.165-.52-.328-1.053-.432-1.573l-.026-.131-.06-.12c-.387-.773-.591-1.593-.788-2.385l-.01-.039-.013-.038c-.043-.129-.082-.326-.124-.534-.123-.622-.29-1.463-.878-2.122-.341-.547-.86-.729-1.181-.841-.085-.03-.175-.059-.264-.103l-.025-.013-.026-.011c-.758-.326-1.544-.354-2.238-.38-1.067-.039-1.536-.102-1.858-.553-.118-.177-.116-.374-.079-.892l.025-.412c.17-.284.307-.558.44-.824.152-.305.296-.592.477-.864l.058-.087.039-.097c.145-.362.32-.703.506-1.064.319-.621.649-1.262.819-2.023.151-.38.151-.755.151-1.063v-.176c.181-.107.444-.239.636-.335l.138-.067.113-.113c.02-.016.041-.027.059-.038.166-.103.672-.415.672-1.107a1.22 1.22 0 0 0-.119-.534c.015-.023.029-.042.041-.054.521-.521 1.036-.984 1.581-1.474l1.475-1.367a1.2 1.2 0 0 0 .614-.675c.191-.328.223-.715.077-1.07-.159-.384-.51-.667-.921-.759-.206-.093-.375-.149-.515-.196l-.085-.029 1.09-1.634a7.02 7.02 0 0 0 .431-.53c.162-.214.465-.612.615-.663l.045-.015.044-.019c.105-.046.21-.068.322-.068m0-1a1.78 1.78 0 0 0-.727.155c-.648.217-1.079 1.081-1.511 1.512L28.637 9.46c-.217.216-.432.648-.217.864 0 .216.217.216.432.216.432.217.649.217 1.081.432.216 0 .432.217.216.432 0 0 0 .217-.216.217l-3.239 3.022c-.216.216-.432.648-.432.864s.216.216.216.432-.216.217-.432.432c-.432.217-.864.432-1.08.649-.216.432 0 1.08-.216 1.511-.216 1.079-.865 1.943-1.297 3.023-.432.647-.647 1.295-1.078 1.943 0 .864-.217 1.511.215 2.159 1.081 1.511 3.023.648 4.534 1.296.432.215.864.215 1.081.647.647.649.647 1.728.864 2.376.215.864.432 1.727.864 2.591.216 1.081.648 2.16.864 3.023.141-.11.306-.213.463-.318C35.927 31.822 39 26.302 39 20c0-5.597-2.373-10.575-6.161-14.037a2.16 2.16 0 0 0-.669-.113z" fill="#5e9c76"/><path d="M20.245 9.581c-.177-.414-.177-1.245-.177-1.633 0-.396.108-.735.224-1.094.161-.505.345-1.078.198-1.811.01-.131-.158-1.495-.21-1.907l-.042-.34-.333-.083c-.218-.055-.436-.085-.639-.112-.184-.025-.462-.062-.526-.114.003-.001-.017-.074.022-.271.035-.094.165-.361.363-.691L20 1.5a18.66 18.66 0 0 1 6.346 1.104c.034.195-.174.783-.646 1.686l-.102.196c-.282.833-.693 1.464-1.125 1.752-.492.478-1.12 1.106-1.729 1.511-.345.23-.683.512-1.01.784-.312.259-.622.52-.934.727-.127.059-.273.149-.398.227l-.157.094z" fill="#bae0bd"/><path d="M20 2a18.18 18.18 0 0 1 5.766.932c-.072.225-.222.577-.509 1.126l-.105.203-.032.064-.022.068c-.215.646-.569 1.206-.901 1.428l-.082.055-.07.07c-.402.402-1.009 1.009-1.576 1.387-.367.245-.716.536-1.054.817l-.819.646c-.026-.326-.026-.681-.026-.848 0-.318.092-.607.199-.941.166-.52.372-1.163.227-1.987-.02-.289-.093-.941-.218-1.946l-.085-.68-.665-.166a6.1 6.1 0 0 0-.656-.118l.053-.098L20 2m0-1a20.27 20.27 0 0 0-1.161.041c-.27.419-.485.832-.566 1.078-.216 1.079.648.864 1.511 1.079L20 5.141c.216 1.081-.432 1.727-.432 2.807 0 .648 0 1.727.432 2.159h.216c.216 0 .432-.216.864-.432.648-.432 1.296-1.079 1.943-1.511s1.296-1.079 1.728-1.511c.648-.432 1.079-1.295 1.295-1.944.216-.432.956-1.704.739-2.351-.017-.034-.039-.094-.06-.147A19.18 19.18 0 0 0 20 1z" fill="#5e9c76"/><path d="M14.488 37.641a18.47 18.47 0 0 1-3.237-1.356.91.91 0 0 0-.056-.075l-.093-.697-.103-.795-.002-.075-.023-.081-.647-2.16c-.148-.374-.329-.72-.514-1.073-.372-.711-.757-1.447-.757-2.223l.018-.632c.034-.858.07-1.745-.443-2.539h4.165l.458.136c.466.134 1.093.314 1.37.531.061.143.099.294.141.465.057.227.121.485.254.75l.036.072.058.058c.881.882 1.876 1.122 2.839 1.354l1.027.279c.181.096.204.165.331.546.162.486-.017 1.219-.188 1.562l-.136.402c-.159.505-.358 1.135-.635 1.41-.375.376-.759.568-1.165.771-.505.332-.85.786-1.183 1.225-.213.28-.433.57-.675.812l-.146.146v.207c-.05.105-.462.723-.694.98zM7.16 24.809c-.326-.138-.661-.245-.979-.345-.478-.152-.929-.295-1.211-.506-1.352-.901-2.527-2.151-3.091-3.278-.119-.2-.245-.388-.376-.575L1.5 20c0-5.098 1.993-9.825 5.616-13.325 1.803-.598 3.756-.967 5.12-.967.473 0 .856.043 1.143.129.517.171 1.103.538 1.518.953.349.349.933.933.933 1.375 0 .003 0 .006.001.008l-.07.07c-.063.063-.093.07-.294.07-.542 0-1.101 0-1.438-.134l-.882-.882-.112-.037a1.39 1.39 0 0 0-.441-.071c-1.634 0-3.428 2.749-3.656 3.661-.155.462-.246 1.474.185 2.215.24.414.608.681 1.066.772h.019c.677 0 1.359-.524 2.257-1.261l.69-.54c.184-.088.361-.206.539-.324.127-.084.253-.169.41-.253.062-.005.122-.008.182-.008 1.334 0 2.307 1.277 2.646 2.464.093.253.081.455-.023.675-.413.866-2.1 1.688-3.541 2.167-.047.016-.086.021-.117.021-.046 0-.078-.011-.106-.02a1.38 1.38 0 0 0-.449-.088c-.16 0-.318.039-.471.114-1.256.5-2.652 1.979-2.652 3.47-.079.357-.131.771-.175 1.19-.173-.33-.425-.604-.776-.756a.84.84 0 0 0-.713-.288c-.152 0-.347-.073-.553-.15-.268-.1-.57-.214-.904-.214a1.36 1.36 0 0 0-.764.232c-.38.366-1.086 1.177-1.086 2.144 0 .239 0 .64.363 1.001l.057.056.071.036a1.1 1.1 0 0 0 .499.116c.187 0 .351-.041.496-.078.097-.024.189-.047.253-.047l.104.053.095.005a1.75 1.75 0 0 1 .005.152v.151l.31.478.305.474z" fill="#bae0bd"/><path d="M12.236 6.208c.528 0 .835.059.972.1.453.15.977.479 1.335.836.124.124.413.413.604.668-.315-.004-.646-.017-.849-.069l-.883-.883-.224-.075a1.89 1.89 0 0 0-.6-.096c-1.958 0-3.843 2.98-4.13 3.997-.224.703-.248 1.814.226 2.63.314.541.799.891 1.401 1.011l.097.019h.099c.753 0 1.477-.548 2.495-1.385l.608-.481c.239-.125.42-.246.582-.353l.276-.176h.037c1.027 0 1.867 1.057 2.165 2.102l.011.039.014.038c.028.075.033.136-.019.245-.278.582-1.562 1.34-3.203 1.893-.13-.042-.324-.098-.56-.098-.223 0-.442.049-.651.146-1.436.588-2.909 2.161-2.97 3.832l-.035.192c-.044-.026-.09-.051-.138-.074-.282-.256-.523-.366-.986-.366-.065-.001-.253-.072-.378-.118-.292-.11-.656-.246-1.08-.246a1.84 1.84 0 0 0-1.04.316l-.082.055-.07.07c-.348.348-1.156 1.281-1.156 2.435l.007.249c-.778-.693-1.42-1.479-1.783-2.206l-.017-.035-.02-.033L2 19.942c.015-4.9 1.923-9.444 5.381-12.828 1.726-.561 3.568-.906 4.855-.906m.483 20.227l.396.117c.286.082.831.239 1.096.378.024.077.045.163.069.259.06.24.135.538.292.852l.073.145.115.115c.981.982 2.093 1.25 3.075 1.487l.91.242c.023.049.061.163.092.256.106.319-.022.901-.161 1.178l-.032.064-.023.068-.111.344c-.128.406-.322 1.019-.512 1.209-.317.318-.634.476-1.035.676l-.056.028-.052.035c-.521.348-.892.835-1.25 1.307-.212.279-.412.543-.63.761l-.293.293v.236c-.08.148-.231.382-.371.574a17.96 17.96 0 0 1-2.644-1.119l-.07-.497-.098-.722v-.162l-.051-.154-.648-2.16-.009-.028-.011-.028c-.151-.377-.34-.739-.523-1.089-.36-.689-.7-1.34-.7-1.992l.017-.611c.026-.65.055-1.359-.166-2.06h3.311m-.483-21.229c-1.514 0-3.601.427-5.386 1.029C3.24 9.685 1 14.553 1 20c0 .091.009.18.01.271l.422.632c.648 1.295 1.943 2.592 3.239 3.454.864.648 2.591.648 3.454 1.727.648.865.432 1.943.432 3.023 0 1.295.864 2.375 1.295 3.453l.648 2.16c0 .216.216 1.511.216 1.727.069.035.126.114.177.212 1.153.632 2.378 1.14 3.657 1.524h.002c.014 0 .03-.008.044-.008.002 0 .005 0 .007.001.216 0 1.08-1.296 1.08-1.512.648-.648 1.079-1.511 1.727-1.943.432-.216.864-.432 1.295-.865s.648-1.295.864-1.943c.216-.431.432-1.294.216-1.942-.137-.41-.216-.648-.648-.864-1.295-.432-2.591-.432-3.67-1.512-.216-.432-.216-.864-.432-1.295-.432-.432-1.511-.648-2.159-.864H8.557c-.648-.216-1.079-1.08-1.511-1.727 0-.216 0-.649-.432-.649-.091-.045-.182-.062-.273-.062-.249 0-.499.125-.748.125a.6.6 0 0 1-.275-.063c-.216-.215-.216-.432-.216-.647 0-.649.432-1.296.864-1.728a.85.85 0 0 1 .486-.148c.486 0 .971.364 1.457.364.216 0 .216 0 .432.216.648.216.864 1.079.864 1.728v.432c0 .216.216.216.432.216.216-1.079.216-2.16.432-3.239 0-1.295 1.295-2.592 2.375-3.023a.55.55 0 0 1 .248-.062c.208 0 .374.125.582.125a.55.55 0 0 0 .25-.063c1.295-.432 4.534-1.727 3.886-3.453-.404-1.415-1.564-2.827-3.126-2.827-.108 0-.217.007-.328.021-.432.217-.648.432-1.079.649-.648.432-1.943 1.727-2.591 1.727-1.079-.216-1.079-1.727-.864-2.376.201-.803 1.893-3.282 3.171-3.282.097 0 .192.014.284.045l.864.864c.432.216 1.08.216 1.727.216.216 0 .432 0 .648-.216s.216-.216.216-.432c0-.648-.648-1.296-1.08-1.728s-1.08-.864-1.727-1.078c-.346-.106-.786-.153-1.289-.153z" fill="#5e9c76"/><path d="M20 2c10.093 0 18 7.907 18 18 0 9.925-8.075 18-18 18S2 29.925 2 20C2 9.907 9.907 2 20 2m0-1A18.89 18.89 0 0 0 1 20c0 10.578 8.619 19 19 19s19-8.422 19-19A18.89 18.89 0 0 0 20 1z" fill="#7496c4"/></g></g><path d="M1.605 44.94V32.593h6.453l3.072 3.072v9.276z" fill="#fff"/><path d="M7.985 32.769l2.968 2.968v9.026H1.781V32.769h6.204m.146-.353H1.428v12.7h9.878v-9.525z" fill="#4788c7"/><path d="M7.955 35.768v-3.175h.103l3.072 3.072v.103z" fill="#dff0fe"/><path d="M8.131 32.915l2.676 2.676H8.131v-2.676m0-.499h-.353v3.528h3.528v-.353z" fill="#4788c7"/><path d="M9.013 37.708H3.721c-.098 0-.176-.078-.176-.176s.079-.176.176-.176h5.292c.098 0 .176.079.176.176s-.079.176-.176.176z" fill="purple"/><path d="M7.602 38.766H3.721c-.098 0-.176-.079-.176-.176s.079-.176.176-.176h3.881c.098 0 .176.079.176.176s-.079.176-.176.176z" fill="#f55"/><path d="M9.013 39.825H3.721c-.098 0-.176-.079-.176-.176s.079-.176.176-.176h5.292c.098 0 .176.079.176.176s-.079.176-.176.176z" fill="green"/><path d="M7.602 40.883H3.721c-.098 0-.176-.079-.176-.176s.079-.176.176-.176h3.881c.098 0 .176.079.176.176s-.079.176-.176.176z" fill="olive"/><path d="M9.013 41.941H3.721c-.098 0-.176-.079-.176-.176s.079-.176.176-.176h5.292c.098 0 .176.079.176.176s-.079.176-.176.176z" fill="#500"/><g transform="matrix(.352778 0 0 .352778 -.688541 44.866959)"><path d="M24.8 2.5l8.7 8.7v26.3h-27v-35z" fill="#fff"/><path d="M24.6 3l8.4 8.4V37H7V3h17.6m.4-1H6v36h28V11z" fill="#c74343"/><path d="M24.8 2.5l8.7 8.7v.3h-9v-9z" fill="#ffd9d9"/><path d="M25 3.4l7.6 7.6H25V3.4M25 2h-1v10h10v-1zM13.2 30c-.7 0-1.2-.5-1.2-1 0-1.4 1.8-2.5 4.1-3.3 1-1.7 2-3.9 2.6-5.9-.6-1.5-.9-2.8-.9-3.8 0-.5.1-1 .3-1.3.2-.4.6-.7 1.1-.7.4 0 .8.2 1 .6.2.3.2.7.2 1.2 0 .9-.3 2.3-.7 3.8.7 1.6 1.7 3.3 2.8 4.6 1.8-.2 3.3-.1 4.1.2 1 .3 1.2.9 1.2 1.3s-.2 1.4-1.9 1.4c-1.4 0-2.8-.8-3.9-2-1.8.2-3.8.6-5.4 1.1-.9 2.3-2.3 3.8-3.4 3.8zm-.2-1h.2c.5 0 1.3-.7 2.1-1.9-1.4.6-2.3 1.3-2.3 1.9zm10.6-3.7c.8.7 1.7 1.1 2.5 1.1.9 0 .9-.3.9-.4 0-.2-.4-.3-.5-.4-.7-.3-1.7-.4-2.9-.3zm-4.3-4.2a29.97 29.97 0 0 1-1.8 4.1l3.8-.8c-.7-1-1.4-2.1-2-3.3zm0-6.1c-.1 0-.2 0-.2.1-.1.1-.1.3-.1.8 0 .6.1 1.3.3 2.1.2-.8.3-1.6.3-2.2 0-.5-.1-.7-.1-.8h-.2z" fill="#c74343"/></g><g transform="matrix(1.000037 0 0 1.000037 -.247911 -.002649)"><path d="M1.852 71.398V59.052h6.453l3.072 3.072v9.275z" fill="#fff"/><path d="M8.202 62.226v-3.175h.103l3.072 3.072v.103z" fill="#ffd5d5"/><g fill="#e64a19"><path d="M8.232 59.228l2.968 2.968v9.026H2.029V59.228h6.204m.146-.353H1.676v12.7h9.877V62.05z"/><path d="M8.379 59.374l2.676 2.676H8.379v-2.676m0-.499h-.353v3.528h3.528v-.353zm-4.788 5.64l3.832-1.393 2.09.523v5.922l-2.09.523-3.832-1.393 3.832.523v-5.051l-2.438.522v3.484l-1.393.523z"/></g></g><path d="M1.605 97.857V85.51h6.453l3.072 3.072v9.276z" fill="#fff"/><path d="M7.985 85.686l2.968 2.968v9.026H1.781V85.686h6.204m.146-.353H1.428v12.7h9.878v-9.525z" fill="#4788c7"/><path d="M7.955 88.685V85.51h.103l3.072 3.072v.103z" fill="#dff0fe"/><path d="M8.131 85.832l2.676 2.676H8.131v-2.676m0-.499h-.353v3.528h3.528v-.353z" fill="#4788c7"/><path d="M25.5 19.5l2 4-2 4m-11-8l-2 4 2 4m8-11l-5 14" fill="none" stroke="#4788c7" stroke-linecap="round" stroke-miterlimit="10" transform="matrix(.352778 0 0 .352778 -.688541 84.627762)"/><path d="M1.605 203.69v-12.347h6.453l3.072 3.072v9.276z" fill="#fff"/><path d="M7.985 191.519l2.968 2.968v9.026H1.781v-11.994h6.204m.146-.353H1.428v12.7h9.878v-9.525z" fill="#4788c7"/><path d="M7.955 194.518v-3.175h.103l3.072 3.072v.103z" fill="#dff0fe"/><path d="M8.131 191.666l2.676 2.676H8.131v-2.676m0-.499h-.353v3.528h3.528v-.353z" fill="#4788c7"/><path d="M25.5 19.5l2 4-2 4m-11-8l-2 4 2 4m8-11l-5 14" fill="none" stroke="#4788c7" stroke-linecap="round" stroke-miterlimit="10" transform="matrix(.352778 0 0 .352778 -.688541 190.461105)"/><g transform="matrix(.352778 0 0 .352778 -.688541 203.690277)"><path d="M6.5 2.5h27v35h-27z" fill="#ffeea3"/><path d="M33 3v34H7V3h26m1-1H6v36h28z" fill="#ba9b48"/><path d="M20 30.5c-1.93 0-3.5-1.57-3.5-3.5 0-.55.354-2.491.973-5.325.151-.692.753-1.175 1.465-1.175h2.125c.712 0 1.313.483 1.465 1.175L23.5 27c0 1.93-1.57 3.5-3.5 3.5z" fill="#fffae0"/><g fill="#ba9b48"><path d="M21.063 21a.99.99 0 0 1 .976.782L23 27c0 1.654-1.346 3-3 3s-3-1.346-3-3c0-.19.069-1.126.961-5.218a.99.99 0 0 1 .976-.782h2.126m0-1h-2.125c-.941 0-1.753.65-1.953 1.569C16.589 23.381 16 26.216 16 27a4 4 0 1 0 8 0c0-.784-.589-3.619-.984-5.431-.2-.919-1.012-1.569-1.953-1.569z"/><circle r="1.5" cy="27" cx="20"/><path d="M19 18h3.5v1H20z"/><circle r=".5" cy="18.5" cx="22.5"/><path d="M21 19h-3.5v1H20z"/><circle r=".5" cy="19.5" cx="17.5"/><path d="M19 16h3.5v1H20z"/><circle r=".5" cy="16.5" cx="22.5"/><path d="M21 17h-3.5v1H20z"/><circle r=".5" cy="17.5" cx="17.5"/><path d="M19 14h3.5v1H20z"/><circle r=".5" cy="14.5" cx="22.5"/><path d="M21 15h-3.5v1H20z"/><circle r=".5" cy="15.5" cx="17.5"/><path d="M19 12h3.5v1H20z"/><circle r=".5" cy="12.5" cx="22.5"/><path d="M21 13h-3.5v1H20z"/><circle r=".5" cy="13.5" cx="17.5"/><path d="M19 10h3.5v1H20z"/><circle r=".5" cy="10.5" cx="22.5"/><path d="M21 11h-3.5v1H20z"/><circle r=".5" cy="11.5" cx="17.5"/><path d="M19 8h3.5v1H20z"/><circle r=".5" cy="8.5" cx="22.5"/><path d="M21 9h-3.5v1H20z"/><circle r=".5" cy="9.5" cx="17.5"/><path d="M19 6h3.5v1H20z"/><circle r=".5" cy="6.5" cx="22.5"/><path d="M21 7h-3.5v1H20z"/><circle r=".5" cy="7.5" cx="17.5"/><path d="M19 4h3.5v1H20z"/><circle r=".5" cy="4.5" cx="22.5"/><path d="M21 5h-3.5v1H20z"/><circle r=".5" cy="5.5" cx="17.5"/><path d="M21 3h-3.5v1H20z"/><circle r=".5" cy="3.5" cx="17.5"/></g></g><g transform="matrix(.352778 0 0 .352778 -.688541 216.919434)"><path d="M6.5 2.5h27v35h-27z" fill="#ffeea3"/><path d="M33 3v34H7V3h26m1-1H6v36h28z" fill="#ba9b48"/><path d="M20 30.5c-1.93 0-3.5-1.57-3.5-3.5 0-.55.354-2.491.973-5.325.151-.692.753-1.175 1.465-1.175h2.125c.712 0 1.313.483 1.465 1.175L23.5 27c0 1.93-1.57 3.5-3.5 3.5z" fill="#fffae0"/><g fill="#ba9b48"><path d="M21.063 21a.99.99 0 0 1 .976.782L23 27c0 1.654-1.346 3-3 3s-3-1.346-3-3c0-.19.069-1.126.961-5.218a.99.99 0 0 1 .976-.782h2.126m0-1h-2.125c-.941 0-1.753.65-1.953 1.569C16.589 23.381 16 26.216 16 27a4 4 0 1 0 8 0c0-.784-.589-3.619-.984-5.431-.2-.919-1.012-1.569-1.953-1.569z"/><circle r="1.5" cy="27" cx="20"/><path d="M22.5 18v1H20l-1-1z"/><circle r=".5" cy="18.5" cx="22.5"/><path d="M17.5 19v1H20l1-1z"/><circle r=".5" cy="19.5" cx="17.5"/><path d="M22.5 16v1H20l-1-1z"/><circle r=".5" cy="16.5" cx="22.5"/><path d="M17.5 17v1H20l1-1z"/><circle r=".5" cy="17.5" cx="17.5"/><path d="M22.5 14v1H20l-1-1z"/><circle r=".5" cy="14.5" cx="22.5"/><path d="M17.5 15v1H20l1-1z"/><circle r=".5" cy="15.5" cx="17.5"/><path d="M22.5 12v1H20l-1-1z"/><circle r=".5" cy="12.5" cx="22.5"/><path d="M17.5 13v1H20l1-1z"/><circle r=".5" cy="13.5" cx="17.5"/><path d="M22.5 10v1H20l-1-1z"/><circle r=".5" cy="10.5" cx="22.5"/><path d="M17.5 11v1H20l1-1z"/><circle r=".5" cy="11.5" cx="17.5"/><path d="M22.5 8v1H20l-1-1z"/><circle r=".5" cy="8.5" cx="22.5"/><path d="M17.5 9v1H20l1-1z"/><circle r=".5" cy="9.5" cx="17.5"/><path d="M22.5 6v1H20l-1-1z"/><circle r=".5" cy="6.5" cx="22.5"/><path d="M17.5 7v1H20l1-1z"/><circle r=".5" cy="7.5" cx="17.5"/><path d="M22.5 4v1H20l-1-1z"/><circle r=".5" cy="4.5" cx="22.5"/><path d="M17.5 5v1H20l1-1z"/><circle r=".5" cy="5.5" cx="17.5"/><path d="M17.5 3v1H20l1-1z"/><circle r=".5" cy="3.5" cx="17.5"/></g></g><g transform="matrix(.352778 0 0 .352778 -.688541 230.201996)"><path d="M6.5 2.5h27v35h-27z" fill="#ffeea3"/><path d="M33 3v34H7V3h26m1-1H6v36h28z" fill="#ba9b48"/><path d="M20 30.5c-1.93 0-3.5-1.57-3.5-3.5 0-.55.354-2.491.973-5.325.151-.692.753-1.175 1.465-1.175h2.125c.712 0 1.313.483 1.465 1.175L23.5 27c0 1.93-1.57 3.5-3.5 3.5z" fill="#fffae0"/><g fill="#ba9b48"><path d="M21.063 21a.99.99 0 0 1 .976.782L23 27c0 1.654-1.346 3-3 3s-3-1.346-3-3c0-.19.069-1.126.961-5.218a.99.99 0 0 1 .976-.782h2.126m0-1h-2.125c-.941 0-1.753.65-1.953 1.569C16.589 23.381 16 26.216 16 27a4 4 0 1 0 8 0c0-.784-.589-3.619-.984-5.431-.2-.919-1.012-1.569-1.953-1.569z"/><circle r="1.5" cy="27" cx="20"/><path d="M22.5 18v1H20l-1-1z"/><circle r=".5" cy="18.5" cx="22.5"/><path d="M17.5 19v1H20l1-1z"/><circle r=".5" cy="19.5" cx="17.5"/><path d="M22.5 16v1H20l-1-1z"/><circle r=".5" cy="16.5" cx="22.5"/><path d="M17.5 17v1H20l1-1z"/><circle r=".5" cy="17.5" cx="17.5"/><path d="M22.5 14v1H20l-1-1z"/><circle r=".5" cy="14.5" cx="22.5"/><path d="M17.5 15v1H20l1-1z"/><circle r=".5" cy="15.5" cx="17.5"/><path d="M22.5 12v1H20l-1-1z"/><circle r=".5" cy="12.5" cx="22.5"/><path d="M17.5 13v1H20l1-1z"/><circle r=".5" cy="13.5" cx="17.5"/><path d="M22.5 10v1H20l-1-1z"/><circle r=".5" cy="10.5" cx="22.5"/><path d="M17.5 11v1H20l1-1z"/><circle r=".5" cy="11.5" cx="17.5"/><path d="M22.5 8v1H20l-1-1z"/><circle r=".5" cy="8.5" cx="22.5"/><path d="M17.5 9v1H20l1-1z"/><circle r=".5" cy="9.5" cx="17.5"/><path d="M22.5 6v1H20l-1-1z"/><circle r=".5" cy="6.5" cx="22.5"/><path d="M17.5 7v1H20l1-1z"/><circle r=".5" cy="7.5" cx="17.5"/><path d="M22.5 4v1H20l-1-1z"/><circle r=".5" cy="4.5" cx="22.5"/><path d="M17.5 5v1H20l1-1z"/><circle r=".5" cy="5.5" cx="17.5"/><path d="M17.5 3v1H20l1-1z"/><circle r=".5" cy="3.5" cx="17.5"/></g></g><g transform="matrix(.352778 0 0 .352778 -.688541 243.377777)"><path d="M6.5 2.5h27v35h-27z" fill="#ffeea3"/><path d="M33 3v34H7V3h26m1-1H6v36h28z" fill="#ba9b48"/><path d="M20 30.5c-1.93 0-3.5-1.57-3.5-3.5 0-.55.354-2.491.973-5.325.151-.692.753-1.175 1.465-1.175h2.125c.712 0 1.313.483 1.465 1.175L23.5 27c0 1.93-1.57 3.5-3.5 3.5z" fill="#fffae0"/><g fill="#ba9b48"><path d="M21.063 21a.99.99 0 0 1 .976.782L23 27c0 1.654-1.346 3-3 3s-3-1.346-3-3c0-.19.069-1.126.961-5.218a.99.99 0 0 1 .976-.782h2.126m0-1h-2.125c-.941 0-1.753.65-1.953 1.569C16.589 23.381 16 26.216 16 27a4 4 0 1 0 8 0c0-.784-.589-3.619-.984-5.431-.2-.919-1.012-1.569-1.953-1.569z"/><circle r="1.5" cy="27" cx="20"/><path d="M22.5 18v1H20l-1-1z"/><circle r=".5" cy="18.5" cx="22.5"/><path d="M17.5 19v1H20l1-1z"/><circle r=".5" cy="19.5" cx="17.5"/><path d="M22.5 16v1H20l-1-1z"/><circle r=".5" cy="16.5" cx="22.5"/><path d="M17.5 17v1H20l1-1z"/><circle r=".5" cy="17.5" cx="17.5"/><path d="M22.5 14v1H20l-1-1z"/><circle r=".5" cy="14.5" cx="22.5"/><path d="M17.5 15v1H20l1-1z"/><circle r=".5" cy="15.5" cx="17.5"/><path d="M22.5 12v1H20l-1-1z"/><circle r=".5" cy="12.5" cx="22.5"/><path d="M17.5 13v1H20l1-1z"/><circle r=".5" cy="13.5" cx="17.5"/><path d="M22.5 10v1H20l-1-1z"/><circle r=".5" cy="10.5" cx="22.5"/><path d="M17.5 11v1H20l1-1z"/><circle r=".5" cy="11.5" cx="17.5"/><path d="M22.5 8v1H20l-1-1z"/><circle r=".5" cy="8.5" cx="22.5"/><path d="M17.5 9v1H20l1-1z"/><circle r=".5" cy="9.5" cx="17.5"/><path d="M22.5 6v1H20l-1-1z"/><circle r=".5" cy="6.5" cx="22.5"/><path d="M17.5 7v1H20l1-1z"/><circle r=".5" cy="7.5" cx="17.5"/><path d="M22.5 4v1H20l-1-1z"/><circle r=".5" cy="4.5" cx="22.5"/><path d="M17.5 5v1H20l1-1z"/><circle r=".5" cy="5.5" cx="17.5"/><path d="M17.5 3v1H20l1-1z"/><circle r=".5" cy="3.5" cx="17.5"/></g></g><g transform="matrix(.352778 0 0 .352778 -.688973 256.59671)"><path d="M33.5 11.2v26.3h-27v-35h18.3z" fill="#fff"/><path d="M24.6 3l8.4 8.4V37H7V3h17.6m.4-1H6v36h28V11z" fill="#c74343"/><path d="M33.5 11.2v.3h-9v-9h.3z" fill="#ffd9d9"/><path d="M25 3.4l7.6 7.6H25V3.4M25 2h-1v10h10v-1zM13.2 30c-.7 0-1.2-.5-1.2-1 0-1.4 1.8-2.5 4.1-3.3 1-1.7 2-3.9 2.6-5.9-.6-1.5-.9-2.8-.9-3.8 0-.5.1-1 .3-1.3.2-.4.6-.7 1.1-.7a1.1 1.1 0 0 1 1 .6c.2.3.2.7.2 1.2 0 .9-.3 2.3-.7 3.8.7 1.6 1.7 3.3 2.8 4.6 1.8-.2 3.3-.1 4.1.2 1 .3 1.2.9 1.2 1.3s-.2 1.4-1.9 1.4c-1.4 0-2.8-.8-3.9-2-1.8.2-3.8.6-5.4 1.1-.9 2.3-2.3 3.8-3.4 3.8zm-.2-1h.2c.5 0 1.3-.7 2.1-1.9-1.4.6-2.3 1.3-2.3 1.9zm10.6-3.7c.8.7 1.7 1.1 2.5 1.1.9 0 .9-.3.9-.4 0-.2-.4-.3-.5-.4-.7-.3-1.7-.4-2.9-.3zm-4.3-4.2a29.97 29.97 0 0 1-1.8 4.1l3.8-.8c-.7-1-1.4-2.1-2-3.3zm0-6.1c-.1 0-.2 0-.2.1-.1.1-.1.3-.1.8 0 .6.1 1.3.3 2.1.2-.8.3-1.6.3-2.2 0-.5-.1-.7-.1-.8h-.2z" fill="#c74343"/></g><path d="M2.763 262.098c0-.441.357-.797.797-.797h5.58c.441 0 .797.357.797.797v5.58c0 .441-.357.797-.797.797H3.56c-.441 0-.797-.357-.797-.797z" fill="#f44336"/><path d="M3.361 261.899v5.979h5.979v-5.979zm3.391 2.028h-.996v.726h.889v.475h-.889v1.156h-.572v-2.834h1.569zm.838 2.356h-.525v-2.84h.525z" fill="#210403"/><g transform="matrix(.244354 0 0 .262534 4.01909 270.290466)"><path d="M8.096 36.864v-35h18.293l8.707 8.707v26.293z" fill="#fff"/><path d="M26.182 2.364l8.414 8.414v25.586h-26v-34h17.586m.414-1h-19v36h28v-27z" fill="#4788c7"/><path d="M26.096 10.864v-9h.293l8.707 8.707v.293z" fill="#dff0fe"/><path d="M26.596 2.778l7.586 7.586h-7.586V2.778m0-1.414h-1v10h10v-1z" fill="#4788c7"/><path d="M-3.341 42.243v-35h18.293l8.707 8.707v26.293z" fill="#fff"/><path d="M14.744 7.742l8.414 8.414v25.586h-26v-34h17.586m.414-1h-19v36h28v-27z" fill="#4788c7"/><path d="M14.659 16.242v-9h.293l8.707 8.707v.293z" fill="#dff0fe"/><path d="M15.159 8.156l7.586 7.586h-7.586V8.156m0-1.414h-1v10h10v-1z" fill="#4788c7"/><path d="M-15.878 48.819v-35H2.415l8.707 8.707v26.293z" fill="#fff"/><path d="M2.208 14.319l8.414 8.414v25.586h-26v-34H2.208m.414-1h-19v36h28v-27z" fill="#4788c7"/><path d="M2.122 22.819v-9h.293l8.707 8.707v.293z" fill="#dff0fe"/><path d="M2.622 14.733l7.586 7.586H2.622v-7.586m0-1.414h-1v10h10v-1z" fill="#4788c7"/></g><path d="M1.605 296.295v-12.347h6.453l3.072 3.072v9.276z" fill="#fff"/><path d="M7.985 284.124l2.968 2.968v9.026H1.781v-11.994h6.204m.146-.353H1.428v12.7h9.878v-9.525z" fill="#4788c7"/><path d="M7.955 287.122v-3.175h.103l3.072 3.072v.103z" fill="#dff0fe"/><path d="M8.131 284.27l2.676 2.676H8.131v-2.676m0-.499h-.353v3.528h3.528v-.353zm.882 5.292H3.721c-.098 0-.176-.079-.176-.176s.079-.176.176-.176h5.292c.098 0 .176.079.176.176s-.079.176-.176.176zm-1.411 1.058H3.721c-.098 0-.176-.079-.176-.176s.079-.176.176-.176h3.881c.098 0 .176.079.176.176s-.079.176-.176.176zm1.411 1.058H3.721c-.098 0-.176-.079-.176-.176s.079-.176.176-.176h5.292c.098 0 .176.079.176.176s-.079.176-.176.176zm-1.411 1.058H3.721c-.098 0-.176-.079-.176-.176s.079-.176.176-.176h3.881c.098 0 .176.079.176.176s-.079.176-.176.176zm1.411 1.058H3.721c-.098 0-.176-.079-.176-.176s.079-.176.176-.176h5.292c.098 0 .176.079.176.176s-.079.176-.176.176z" fill="#4788c7"/><path d="M1.604 124.325v-12.347h6.453l3.072 3.072v9.276z" fill="#fff"/><path d="M7.985 112.154l2.968 2.968v9.026H1.781v-11.994h6.204m.146-.353H1.428v12.7h9.878v-9.525z" fill="#4788c7"/><path d="M7.954 115.153v-3.175h.103l3.072 3.072v.103z" fill="#dff0fe"/><path d="M8.131 112.3l2.676 2.676H8.131V112.3m0-.499h-.353v3.528h3.528v-.353z" fill="#4788c7"/><path d="M2.949 116.654h6.89v6.496h-6.89z" fill="#fff"/><path d="M9.741 116.753v6.299H3.048v-6.299h6.693m.197-.197H2.851v6.693h7.087z" fill="#4788c7"/><path d="M3.048 116.753h6.693v.984H3.048z" fill="#98ccfd"/><path d="M14.594 24.57c.48 1.164 1.285 1.93 2.191 1.93C18.902 26.5 20 24.484 20 22s-1.191-4.5-3.215-4.5c-.906 0-1.711.766-2.191 1.93m10.813 5.141c-.48 1.164-1.285 1.929-2.191 1.929C21.098 26.5 20 24.485 20 22s1.191-4.5 3.215-4.5c.906 0 1.711.766 2.191 1.93m3.066 9.07c.652-1.954 1.027-4.157 1.027-6.5s-.375-4.547-1.027-6.5m-16.945 0c-.652 1.953-1.027 4.156-1.027 6.5s.375 4.547 1.027 6.5" fill="none" stroke="#4788c7" stroke-linecap="round" stroke-miterlimit="10" transform="matrix(.196855 0 0 .196855 2.457323 115.965172)"/><path d="M1.604 111.086V98.739h6.453l3.072 3.072v9.276z" fill="#fff"/><path d="M7.985 98.915l2.968 2.968v9.026H1.781V98.915h6.204m.146-.353H1.428v12.7h9.878v-9.525z" fill="#4788c7"/><path d="M7.954 101.914v-3.175h.103l3.072 3.072v.103z" fill="#dff0fe"/><path d="M8.131 99.061l2.676 2.676H8.131v-2.676m0-.499h-.353v3.528h3.528v-.353z" fill="#4788c7"/><path d="M2.949 103.415h6.89v6.496h-6.89z" fill="#fff"/><path d="M9.741 103.514v6.299H3.048v-6.299h6.693m.197-.197H2.851v6.693h7.087z" fill="#4788c7"/><path d="M3.048 103.514h6.693v.984H3.048z" fill="#98ccfd"/><path d="M14.594 24.57c.48 1.164 1.285 1.93 2.191 1.93C18.902 26.5 20 24.484 20 22s-1.191-4.5-3.215-4.5c-.906 0-1.711.766-2.191 1.93m10.813 5.141c-.48 1.164-1.285 1.929-2.191 1.929C21.098 26.5 20 24.485 20 22s1.191-4.5 3.215-4.5c.906 0 1.711.766 2.191 1.93m3.066 9.07c.652-1.953 1.027-4.156 1.027-6.5s-.375-4.547-1.027-6.5m-16.945 0c-.652 1.953-1.027 4.156-1.027 6.5s.375 4.547 1.027 6.5" fill="none" stroke="#4788c7" stroke-linecap="round" stroke-miterlimit="10" transform="matrix(.196855 0 0 .196855 2.457323 102.726173)"/><path d="M1.604 137.545v-12.347h6.453l3.072 3.072v9.276z" fill="#fff"/><path d="M7.985 125.374l2.968 2.968v9.026H1.781v-11.994h6.204m.146-.353H1.428v12.7h9.878v-9.525z" fill="#4788c7"/><path d="M7.954 128.373v-3.175h.103l3.072 3.072v.103z" fill="#dff0fe"/><path d="M8.131 125.52l2.676 2.676H8.131v-2.676m0-.499h-.353v3.528h3.528v-.353z" fill="#4788c7"/><path d="M2.949 129.874h6.89v6.496h-6.89z" fill="#fff"/><path d="M9.741 129.973v6.299H3.048v-6.299h6.693m.197-.197H2.851v6.693h7.087z" fill="#4788c7"/><path d="M3.048 129.973h6.693v.984H3.048z" fill="#98ccfd"/><path d="M14.594 24.57c.48 1.164 1.285 1.93 2.191 1.93C18.902 26.5 20 24.484 20 22s-1.191-4.5-3.215-4.5c-.906 0-1.711.766-2.191 1.93m10.813 5.141c-.48 1.164-1.285 1.929-2.191 1.929C21.098 26.5 20 24.485 20 22s1.191-4.5 3.215-4.5c.906 0 1.711.766 2.191 1.93m3.066 9.07c.652-1.954 1.027-4.157 1.027-6.5s-.375-4.547-1.027-6.5m-16.945 0c-.652 1.953-1.027 4.156-1.027 6.5s.375 4.547 1.027 6.5" fill="none" stroke="#4788c7" stroke-linecap="round" stroke-miterlimit="10" transform="matrix(.196855 0 0 .196855 2.457323 129.185165)"/><path d="M1.604 150.722v-12.347h6.453l3.072 3.072v9.276z" fill="#fff"/><path d="M7.985 138.551l2.968 2.968v9.026H1.781v-11.994h6.204m.146-.353H1.428v12.7h9.878v-9.525z" fill="#4788c7"/><path d="M7.954 141.55v-3.175h.103l3.072 3.072v.103z" fill="#dff0fe"/><path d="M8.131 138.697l2.676 2.676H8.131v-2.676m0-.499h-.353v3.528h3.528v-.353z" fill="#4788c7"/><path d="M2.949 143.051h6.89v6.496h-6.89z" fill="#fff"/><path d="M9.741 143.15v6.299H3.048v-6.299h6.693m.197-.197H2.851v6.693h7.087z" fill="#4788c7"/><path d="M3.048 143.15h6.693v.984H3.048z" fill="#98ccfd"/><path d="M14.594 24.57c.48 1.164 1.285 1.93 2.191 1.93C18.902 26.5 20 24.484 20 22s-1.191-4.5-3.215-4.5c-.906 0-1.711.766-2.191 1.93m10.813 5.141c-.48 1.164-1.285 1.929-2.191 1.929C21.098 26.5 20 24.484 20 22s1.191-4.499 3.215-4.499c.906 0 1.711.765 2.191 1.929m3.066 9.07c.652-1.953 1.027-4.156 1.027-6.5s-.375-4.547-1.027-6.5m-16.945 0c-.652 1.953-1.027 4.156-1.027 6.5s.375 4.547 1.027 6.5" fill="none" stroke="#4788c7" stroke-linecap="round" stroke-miterlimit="10" transform="matrix(.196855 0 0 .196855 2.457323 142.362167)"/><path d="M1.604 163.952v-12.347h6.453l3.072 3.072v9.276z" fill="#fff"/><path d="M7.985 151.781l2.968 2.968v9.026H1.781v-11.994h6.204m.146-.353H1.428v12.7h9.878v-9.525z" fill="#4788c7"/><path d="M7.954 154.78v-3.175h.103l3.072 3.072v.103z" fill="#dff0fe"/><path d="M8.131 151.927l2.676 2.676H8.131v-2.676m0-.499h-.353v3.528h3.528v-.353z" fill="#4788c7"/><path d="M2.949 156.281h6.89v6.496h-6.89z" fill="#fff"/><path d="M9.741 156.38v6.299H3.048v-6.299h6.693m.197-.197H2.851v6.693h7.087z" fill="#4788c7"/><path d="M3.048 156.38h6.693v.984H3.048z" fill="#98ccfd"/><path d="M14.594 24.57c.48 1.164 1.285 1.93 2.191 1.93C18.902 26.5 20 24.484 20 22s-1.191-4.5-3.215-4.5c-.906 0-1.711.766-2.191 1.93m10.813 5.14c-.48 1.164-1.285 1.93-2.191 1.93C21.098 26.5 20 24.484 20 22s1.191-4.5 3.215-4.5c.906 0 1.711.766 2.191 1.929m3.066 9.07c.652-1.953 1.027-4.156 1.027-6.5s-.375-4.547-1.027-6.5m-16.945 0c-.652 1.953-1.027 4.156-1.027 6.5s.375 4.547 1.027 6.5" fill="none" stroke="#4788c7" stroke-linecap="round" stroke-miterlimit="10" transform="matrix(.196855 0 0 .196855 2.457323 155.592178)"/><path d="M1.604 177.181v-12.347h6.453l3.072 3.072v9.276z" fill="#fff"/><path d="M7.985 165.01l2.968 2.968v9.026H1.781V165.01h6.204m.146-.353H1.428v12.7h9.878v-9.525z" fill="#4788c7"/><path d="M7.954 168.009v-3.175h.103l3.072 3.072v.103z" fill="#dff0fe"/><path d="M8.131 165.156l2.676 2.676H8.131v-2.676m0-.499h-.353v3.528h3.528v-.353z" fill="#4788c7"/><path d="M2.949 169.51h6.89v6.496h-6.89z" fill="#fff"/><path d="M9.741 169.609v6.299H3.048v-6.299h6.693m.197-.197H2.851v6.693h7.087z" fill="#4788c7"/><path d="M3.048 169.609h6.693v.984H3.048z" fill="#98ccfd"/><path d="M14.594 24.57c.48 1.164 1.285 1.93 2.191 1.93C18.902 26.5 20 24.484 20 22s-1.191-4.5-3.215-4.5c-.906 0-1.711.766-2.191 1.93m10.813 5.141c-.48 1.164-1.285 1.929-2.191 1.929C21.098 26.5 20 24.484 20 22s1.191-4.5 3.215-4.5c.906 0 1.711.765 2.191 1.929m3.066 9.07c.652-1.953 1.027-4.156 1.027-6.5s-.375-4.547-1.027-6.5m-16.945 0c-.652 1.953-1.027 4.156-1.027 6.5s.375 4.547 1.027 6.5" fill="none" stroke="#4788c7" stroke-linecap="round" stroke-miterlimit="10" transform="matrix(.196855 0 0 .196855 2.457323 168.821167)"/><path d="M1.604 190.41v-12.347h6.453l3.072 3.072v9.276z" fill="#fff"/><path d="M7.985 178.239l2.968 2.968v9.026H1.781v-11.994h6.204m.146-.353H1.428v12.7h9.878v-9.525z" fill="#4788c7"/><path d="M7.954 181.238v-3.175h.103l3.072 3.072v.103z" fill="#dff0fe"/><path d="M8.131 178.385l2.676 2.676H8.131v-2.676m0-.499h-.353v3.528h3.528v-.353z" fill="#4788c7"/><path d="M2.949 182.739h6.89v6.496h-6.89z" fill="#fff"/><path d="M9.741 182.838v6.299H3.048v-6.299h6.693m.197-.197H2.851v6.693h7.087z" fill="#4788c7"/><path d="M3.048 182.838h6.693v.984H3.048z" fill="#98ccfd"/><path d="M14.594 24.57c.48 1.164 1.285 1.93 2.191 1.93C18.902 26.5 20 24.484 20 22s-1.191-4.5-3.215-4.5c-.906 0-1.711.766-2.191 1.93m10.813 5.141c-.48 1.164-1.285 1.929-2.191 1.929C21.098 26.5 20 24.484 20 22s1.191-4.5 3.215-4.5c.906 0 1.711.766 2.191 1.93m3.066 9.07c.652-1.953 1.027-4.156 1.027-6.5s-.375-4.547-1.027-6.5m-16.945 0c-.652 1.953-1.027 4.156-1.027 6.5s.375 4.547 1.027 6.5" fill="none" stroke="#4788c7" stroke-linecap="round" stroke-miterlimit="10" transform="matrix(.196855 0 0 .196855 2.457323 182.050171)"/></g></svg>