<svg xmlns="http://www.w3.org/2000/svg" width="48" height="1400" xmlns:xlink="http://www.w3.org/1999/xlink" viewBox="0 0 480 14000"><defs><linearGradient id="a"><stop offset="0" stop-color="#85b1d9"/><stop offset="1" stop-color="#dff0fe"/></linearGradient><linearGradient id="c" x1="20.2" x2="20.2" y1="35.7" y2="12.5" gradientUnits="userSpaceOnUse" xlink:href="#a" gradientTransform="matrix(1.238 0 0 1.238 -1.208 27.023)"/><linearGradient id="b" x1="21.7" x2="21.9" y1="35.4" y2="7.4" gradientUnits="userSpaceOnUse" xlink:href="#a" gradientTransform="matrix(1.271 0 0 1.271 -1.208 -24.184)"/><filter id="d" color-interpolation-filters="sRGB"><feColorMatrix values="1 0 0 -0.2 -0 0 1 0 -0.2 -0 0 0 1 -0.2 -0 0 0 0 1 0"/></filter></defs><g transform="matrix(9.938 0 0 9.938 0 -11869.388)"><g><path fill="#fff" d="M41.98 1206.76v35.2h-36v-46.7h24.4z"/><path fill="#788b9c" d="M30.24 1195.56l11.27 11.27v34.32H6.8v-45.48h23.54m.6-1.3H5.28v48.3h37.74v-36.24z"/><path fill="#eef0f2" d="M41.98 1206.76v.4h-12v-12h.4z"/><path fill="#788b9c" d="M30.88 1196.36l10 10h-9.9v-10m0-2h-1.4v13.5h13.4v-1.3z"/><path fill="#000080" d="M20.98 1232.26h4v4h-4zm3.8-2.3h-3.6v-2.5q0-1.6.5-2.6t2.3-2.4l1.7-1.4q1-.8 1.6-1.6.5-.7.5-1.5 0-1.4-1.3-2.2-1.3-1-3.3-1-1.5 0-3.3.6-1.7.6-3.6 1.6v-3q1.9-.8 3.7-1.3 1.9-.4 3.8-.4 3.6 0 5.7 1.5 2.2 1.6 2.2 4 0 1.3-.7 2.4-.7 1-2.4 2.4l-1.8 1.4q-1 .7-1.3 1.1-.4.4-.5.8l-.2.8v1.3z" word-spacing="0" letter-spacing="0" font-size="8.5" font-weight="400" font-family="sans-serif"/></g><g><path fill="#b6dcfe" d="M.6 1289.35v-39.45h13.1l3.8 3.83h30.2v35.62z"/><path fill="#4788c7" d="M13.48 1250.5l3.83 3.83h29.8v34.3H1.3v-38.12H13.4m.6-1.2H0v40.65h48.3v-36.83H17.8z"/><path fill="url(#b)" d="M.7 20.94V-12.1h13.6l3.8-2.55h29.63v35.6z" transform="translate(0 1268.351)"/><path fill="#4788c7" d="M47.1 1254.33v34.3H1.3v-31.78h13.1l.3-.2 3.5-2.32h28.9m1.2-1.2H17.8l-3.8 2.5H0v34.22h48.3z"/></g><g><path fill="#b6dcfe" d="M.6 1339.66v-38.44h12.78l3.73 3.72h25.67v34.72z"/><path fill="#4788c7" d="M13.08 1301.82l3.72 3.73h25.46v33.5H1.2v-37.23H13.1m.6-1.2H0v39.64h43.27v-35.92H17.4z"/><path fill="url(#c)" d="M.77 71l4.7-26.02h13.4l3.7-2.48H47.6L42.87 71z" transform="translate(0 1268.663)"/><path fill="#4788c7" d="M46.9 1311.8l-4.54 27.15H1.5l4.54-24.65h12.98l.3-.2 3.32-2.2H46.8m1.5-1.42H22.34l-3.72 2.5H4.92L0 1340.17h43.27z"/></g><g><path fill="#fff" d="M6 1393v-47h24.5l11.64 11.65v35.14z"/><path fill="#4788c7" d="M30.24 1346.7l11.27 11.07v34.42H6.8v-45.6h23.54m.6-1.3H5.28v48.3h37.74v-36.23z"/><path fill="#dff0fe" d="M30.1 1358.15v-12.05h.4l11.64 11.65v.4z"/><path fill="#4788c7" d="M30.8 1347.3l10.03 10.04H30.9v-10.04m0-2h-1.42v13.55h13.46v-1.3z"/><path fill="none" stroke="#4788c7" stroke-width="1.339" stroke-miterlimit="10" d="M15.32 1367.5h1.5v6m6.54-.6c-.7 0-1.3-.7-1.3-1.4v-2.7a1.36 1.36 0 0 1 2.7 0v2.7c0 .7-.6 1.3-1.4 1.3zm8.03 0c-.7 0-1.3-.7-1.3-1.4v-2.7a1.36 1.36 0 0 1 2.7 0v2.7c0 .7-.6 1.3-1.4 1.3zm0 4.03h1.5v6.02m-8.14-.7c-.8 0-1.4-.6-1.4-1.4v-2.62a1.36 1.36 0 0 1 2.7 0v2.6c0 .82-.6 1.42-1.3 1.42zm-8.03 0c-.8 0-1.4-.6-1.4-1.4v-2.62a1.36 1.36 0 0 1 2.7 0v2.6c0 .82-.6 1.42-1.3 1.42z"/></g><g id="h"><path fill="#fff" d="M5.96 1443.25v-46.97h24.67l11.73 11.67v35.3z"/><path fill="#4788c7" d="M30.36 1396.95l11.32 11.27v34.36H6.63v-45.63h23.73m.54-1.34H5.28v48.32h37.75v-36.23z"/><path fill="#dff2fe" d="M30.22 1408.36v-12.08h.4l11.73 11.67v.4z"/><path fill="#4788c7" d="M30.9 1397.5l10.24 10.2H30.9v-10.2m0-1.9h-1.35v13.43h13.48v-1.34z"/><g fill="#4788c7"><path d="M34.27 1416.95H14.05a.67.67 0 0 1-.68-.68c0-.4.27-.67.68-.67h20.22c.4 0 .67.27.67.67s-.27.68-.67.68zm-5.4 4.02H14.06a.67.67 0 0 1-.68-.67c0-.4.27-.67.68-.67h14.83c.4 0 .67.27.67.67s-.27.67-.67.67zm5.4 4.03H14.05a.67.67 0 0 1-.68-.67c0-.4.27-.67.68-.67h20.22c.4 0 .67.26.67.67 0 .4-.27.67-.67.67zm-5.4 4.02H14.06a.67.67 0 0 1-.68-.67c0-.4.27-.67.68-.67h14.83c.4 0 .67.27.67.67s-.27.67-.67.67zm5.4 4.03H14.05a.67.67 0 0 1-.68-.67c0-.4.27-.67.68-.67h20.22c.4 0 .67.28.67.68s-.27.67-.67.67z"/></g></g><g><path fill="#fff" d="M6 1446.72h24.54l11.67 11.68v35.22H6z"/><path fill="#2ea26c" d="M30.24 1447.43l11.27 11.07v34.4H6.8v-45.67h23.54m.6-1.3H5.28v48.3h37.74v-36.24z"/><path fill="#e8f8f1" d="M30.14 1446.72h.4l11.67 11.68v.4H30.15z"/><path fill="#2ea26c" d="M30.84 1447.93L40.9 1458h-9.96v-10.07m0-2h-1.4v13.57H43v-1.3z"/><g transform="matrix(1.342 0 0 1.342 -2.767 1446.02)" filter="url(#d)"><path fill="#79efa8" d="M28 29v-3l-5-4.8-3 2.8 4.6 5z"/><circle cx="26" cy="17" r="2" fill="#b5ffc9"/><path fill="#b5ffc9" d="M26 29H12v-4l5-5z"/></g></g><g><path fill="#fff" d="M6 1544.03v-47h24.54l11.67 11.68v35.23z"/><path fill="#7bad2a" d="M30.24 1497.74l11.27 11.17v34.32H6.8v-45.58h23.54m.6-1.4H5.28v48.3h37.74v-36.23z"/><path fill="#f2f9e7" d="M42.2 1509.1H30.15v-12.06h.4l11.67 11.67z"/><path fill="#7bad2a" d="M30.84 1498.24L41 1508.4H30.94v-10.16m0-1.9h-1.4v13.58H43v-1.4z"/><g><path fill="#c9e69a" d="M24.8 1530.04v-12.68c3.43 0 5.34 1.3 5.34 1.3v2.73s-2.42-1.42-4.73-1.42"/><path fill="#7bad2a" d="M25.4 1530.04h-1.3v-13.38h.7c3.73 0 5.64 1.5 5.74 1.5l.3.1v4.13l-1-.5s-2.42-1.22-4.43-1.22zm0-10.66c1.52 0 3.13.5 4.03.9v-1.2c-.5-.3-1.8-1-4.02-1z"/><g transform="matrix(1.341 0 0 1.341 -2.767 1495.169)"><circle cx="18" cy="26" r="2.5" fill="#c4e490"/><path fill="#7bad2a" d="M18 24a2 2 0 0 1 2 2 2 2 0 0 1-2 2 2 2 0 0 1-2-2c0-1.1.9-2 2-2m0-1a3 3 0 0 0-3 3 3 3 0 0 0 3 3 3 3 0 0 0 3-3 3 3 0 0 0-3-3z"/></g></g></g><g><path fill="#fff" d="M30.54 1547.25l11.67 11.65v35.14H6v-46.8z"/><path fill="#788b9c" d="M30.24 1547.95l11.27 11.25v34.14H6.8v-45.4h23.54m.6-1.3H5.28v48.2h37.74v-36.15z"/><path fill="#eef0f2" d="M30.54 1547.25l11.67 11.65v.4H30.15v-12.05z"/><path fill="#788b9c" d="M30.84 1548.45l10.06 10.14h-9.96v-10.15m0-1.9h-1.4V1560H43v-1.3z"/><g><path fill="#8bb7f0" d="M18.77 1584l14.8-8.33-14.8-8.34z"/></g></g><g><path fill="#4788c7" d="M34.16 1768.02H14.04a.7.7 0 0 1-.7-.7c0-.3.3-.6.7-.6h20.12c.4 0 .7.3.7.6 0 .4-.3.7-.7.7zm-5.33 4.03h-14.8a.7.7 0 0 1-.7-.7c0-.3.3-.6.7-.6h14.9c.3 0 .6.3.6.6 0 .4-.3.7-.6.7zm5.33 4.02H14.04a.7.7 0 0 1-.7-.7c0-.3.3-.6.7-.6h20.12c.4 0 .7.3.7.6 0 .4-.3.7-.7.7zm-5.33 4.03h-14.8a.7.7 0 0 1-.7-.7c0-.3.3-.6.7-.6h14.9c.3 0 .6.3.6.6 0 .4-.3.7-.6.7zm5.33 4.02H14.04a.7.7 0 0 1-.7-.7c0-.3.3-.6.7-.6h20.12c.4 0 .7.3.7.6 0 .4-.3.7-.7.7z"/><path fill="#fff" d="M6 1795.6v-47h24.54l11.67 11.67v35.22z"/><path fill="#4788c7" d="M30.24 1749.3l11.27 11.07v34.42H6.8v-45.7h23.54m.6-1.3H5.28v48.3h37.74v-36.23z"/><path fill="#dff0fe" d="M30.14 1760.67v-12.07h.4l11.67 11.67v.4z"/><path fill="#4788c7" d="M30.84 1749.8l10.06 10.07h-9.96v-10.06m0-2h-1.4v13.58H43v-1.3z"/><g><path fill="#c2e8ff" d="M36.68 1778.5a12.48 12.48 0 0 1-24.96 0c0-6.86 5.54-12.4 12.48-12.4s12.48 5.54 12.48 12.4z"/><path fill="#bae0bd" d="M31.55 1788.25l-.4-1.3a8.05 8.05 0 0 1-.6-1.72v-.5c-.1-.4-.2-.9-.6-1.3l-.62-.42h-.2c-.5-.3-1-.3-1.4-.3-.8 0-1.22-.1-1.62-.6-.1-.2-.1-.4 0-.8v-.3l.3-.6.32-.6v-.1l.4-.8.5-1.32.1-.6v-.3l.6-.3h.1l.1-.2c.1 0 .3-.1.3-.4l-.1-.4s0-.22.2-.22l1.02-1a30 30 0 0 0 1.4-1.3v-.5c0-.1-.2-.3-.4-.3a3.02 3.02 0 0 0-.4-.12l-.3-.2h-.1v-.1l.5-.7.5-.7.3-.3c.1-.3.3-.5.5-.6a1 1 0 0 1 .7 0 12.38 12.38 0 0 1-1 19.2z"/><path fill="#5e9c76" d="M32.35 1769.63h.1a12.08 12.08 0 0 1 3.83 8.86c0 3.7-1.6 7.13-4.43 9.44-.2-.3-.3-.7-.3-1v-.1l-.1-.1c-.3-.5-.4-1-.5-1.6l-.1-.42c-.1-.4-.2-1-.6-1.5-.2-.3-.62-.5-.82-.5l-.2-.1-1.5-.3c-.8 0-1 0-1.32-.3V1781.1l.32-.6.3-.6.4-.8.6-1.42V1776.88l.5-.2.2-.1c.1-.1.4-.3.4-.8v-.4l1.02-1.02 1-1c.3 0 .4-.2.5-.4v-.7a.9.9 0 0 0-.6-.52l-.4-.1.7-1.2.3-.3.4-.5h.3m0-.7h-.4c-.4.2-.7.8-1 1.1l-1 1.4c-.1.2-.3.5-.1.6l.3.1.7.3c.1 0 .3.2.1.3l-.1.2-2.2 2.02-.3.6c0 .1.2.1.2.3l-.3.3-.72.4c-.2.32 0 .72-.2 1.02-.1.8-.6 1.3-.9 2l-.7 1.42c0 .6-.1 1 .2 1.4.7 1.02 2 .5 3 1.02.3 0 .6 0 .7.3.52.5.52 1.2.62 1.6l.6 1.82c.1.7.4 1.4.6 2l.3-.2a12.88 12.88 0 0 0 1-19.8l-.4-.1z"/><path fill="#bae0bd" d="M24.3 1771.44l-.1-1.1.1-.7c.1-.4.2-.8.1-1.32l-.1-1.2v-.3h-.4l-.4-.1h-.3v-.3l.2-.4a12.28 12.28 0 0 1 4.93.7c0 .1-.1.5-.5 1.1v.2c-.2.5-.5 1-.8 1.1-.3.4-.72.8-1.12 1l-.7.62-.7.5a2.72 2.72 0 0 0-.3.2z"/><path fill="#5e9c76" d="M24.1 1766.3c1.3 0 2.62.2 3.92.6l-.4.82v.2a2 2 0 0 1-.7 1l-1.1 1-.7.52-.62.5v-.6l.1-.6c.1-.4.3-.8.2-1.42l-.2-1.3v-.4l-.5-.2h-.4v-.1h.4m0-.7h-.8l-.4.8c-.1.7.5.6 1 .7l.2 1.3c.2.7-.3 1.2-.3 1.9 0 .42 0 1.22.3 1.52h.2l.5-.3 1.3-1 1.22-1c.4-.4.7-1.02.9-1.42.1-.3.6-1.1.5-1.6a13.08 13.08 0 0 0-4.62-.9z"/><g><path fill="#bae0bd" d="M20.38 1790.56a12.48 12.48 0 0 1-2.22-1v-.5l-.2-.6-.2-.82a18.82 18.82 0 0 0-.6-1.4c-.2-.5-.5-1-.5-1.52v-.5c0-.5 0-1.1-.3-1.7h2.9l.3.1c.3.1.72.2.92.4v.3l.3.5c.6.7 1.3.8 2 1l.62.2c.1 0 .2 0 .2.3.2.4 0 .9 0 1.1l-.2.32c0 .3-.2.7-.4 1l-.8.4-.82.9-.4.5-.1.1v.12l-.5.7zm-5.03-8.75l-.6-.3c-.3 0-.6-.2-.8-.3-1.02-.6-1.72-1.5-2.13-2.2 0-.2-.2-.3-.3-.4 0-3.54 1.4-6.76 3.83-9.07a12.08 12.08 0 0 1 3.52-.7h.7c.4.2.8.4 1 .7.3.3.7.6.7 1h-1.2l-.6-.6a1 1 0 0 0-.4-.1c-1 0-2.32 1.8-2.42 2.52a2 2 0 0 0 0 1.4c.2.3.5.5.8.6.5 0 1-.4 1.52-.9l.5-.3.4-.3.2-.1h.2c.9 0 1.52.8 1.72 1.6v.5c-.32.62-1.42 1.12-2.43 1.42h-.7c-.9.4-1.8 1.4-1.8 2.42l-.1.8a1 1 0 0 0-.62-.5c-.1-.2-.2-.2-.4-.2l-.4-.1-.6-.2a1 1 0 0 0-.5.2c-.3.2-.82.8-.82 1.4 0 .2 0 .5.3.7l.4.2h.3l.2-.1h.1v.2a57.26 57.26 0 0 0 .52.7z"/><path fill="#5e9c76" d="M18.87 1769.13h.6l1 .7.3.4h-.5l-.5-.5-.1-.1h-.2l-.4-.1c-1.3 0-2.62 2-2.82 2.62-.1.5-.1 1.3.2 1.8.2.4.5.6 1 .7.6 0 1-.4 1.72-1l.5-.2.3-.3.2-.1c.7 0 1.3.7 1.5 1.4v.2c-.2.4-1 1.02-2.1 1.32h-.4a1 1 0 0 0-.5 0c-1 .4-2.02 1.5-2.02 2.62v.1a.9.9 0 0 0-.7-.2l-.3-.12a2 2 0 0 0-.7-.2c-.3 0-.5 0-.7.2l-.1.1c-.3.2-.82.9-.82 1.62v.2c-.5-.5-1-1-1.2-1.5a7.04 7.04 0 0 0-.2-.3 12.08 12.08 0 0 1 3.62-8.77c1.2-.3 2.4-.6 3.32-.6m.3 13.78a16.5 16.5 0 0 0 1 .3v.22l.2.5.1.1v.1c.7.7 1.52.9 2.12 1l.7.2v.9h-.1v.1l-.1.32-.3.8-.7.4h-.2l-.92 1-.4.5-.2.2v.1l-.2.42-1.82-.7v-.4l-.1-.5v-.2l-.3-.72-.2-.7a8.05 8.05 0 0 0-.4-.8 3.02 3.02 0 0 1-.4-1.32v-.5l-.1-1.3h2.2m-.2-14.5c-1 0-2.5.2-3.72.6-2.4 2.42-3.92 5.74-3.92 9.36v.2l.3.4c.4.9 1.3 1.82 2.22 2.42.6.4 1.7.4 2.3 1.1.4.6.3 1.32.3 2.02 0 1 .62 1.7.92 2.42l.4 1.4.2 1.2v.1c.8.52 1.7.82 2.52 1.02.2 0 .8-.8.8-1 .4-.4.7-1 1.2-1.3l.8-.52c.32-.3.52-1 .62-1.3.2-.3.3-1 .2-1.4-.1-.2-.2-.42-.5-.52-.8-.3-1.7-.3-2.42-1l-.3-1-1.5-.5h-2.93c-.4-.2-.7-.72-1-1.22 0-.1 0-.4-.3-.4H14.14l-.1-.5c0-.4.3-.8.5-1.1l.4-.1 1 .2.3.2c.4.1.5.7.5 1.1v.3c0 .2.2.2.3.2l.3-2.2c0-.92.9-1.83 1.62-2.03h.7c1-.3 3.12-1.2 2.72-2.4-.3-1.02-1.02-1.92-2.12-1.92h-.4l-.7.5c-.4.3-1.32 1.1-1.72 1.1-.8-.1-.8-1.1-.6-1.6.1-.5 1.3-2.22 2.1-2.22h.2l.6.6c.3.2.72.2 1.22.2l.4-.2.1-.3c0-.4-.4-.8-.7-1.1-.3-.3-.7-.6-1.2-.7a3.02 3.02 0 0 0-.8-.1z"/></g><g><path fill="#7496c4" d="M24.1 1766.3a12.18 12.18 0 1 1 0 24.36 12.18 12.18 0 0 1 0-24.35m0-.7a12.88 12.88 0 1 0 0 25.77 12.88 12.88 0 0 0 0-25.76z"/></g></g></g><g><path fill="#fff" d="M6 1644.65v-47h24.54l11.67 11.68v35.22z"/><path fill="#4788c7" d="M30.24 1598.37l11.27 11.07v34.4H6.8v-45.67h23.54m.6-1.3H5.28v48.3h37.74v-36.24z"/><path fill="#dff0fe" d="M30.14 1609.74v-12.08h.4l11.67 11.67v.4z"/><path fill="#4788c7" d="M30.84 1598.87l10.06 10.06h-9.96v-10.06m0-2h-1.4v13.57H43v-1.3z"/><path fill="#800080" d="M34.16 1618.4H14.04a.7.7 0 0 1-.7-.7c0-.32.3-.62.7-.62h20.12c.4 0 .7.3.7.6 0 .4-.3.7-.7.7z"/><path fill="#f55" d="M28.83 1622.42h-14.8a.7.7 0 0 1-.7-.7c0-.3.3-.6.7-.6h14.9c.3 0 .6.3.6.6 0 .4-.3.7-.6.7z"/><path fill="#008000" d="M34.16 1626.44H14.04a.7.7 0 0 1-.7-.7c0-.3.3-.6.7-.6h20.12c.4 0 .7.3.7.6 0 .4-.3.7-.7.7z"/><path fill="#808000" d="M28.83 1630.47h-14.8a.7.7 0 0 1-.7-.7c0-.3.3-.6.7-.6h14.9c.3 0 .6.3.6.6 0 .4-.3.7-.6.7z"/><path fill="#500" d="M34.16 1634.5H14.04a.7.7 0 0 1-.7-.7c0-.32.3-.62.7-.62h20.12c.4 0 .7.3.7.6 0 .4-.3.7-.7.7z"/></g><g><path fill="#fff" d="M42.2 1659.55v35.22H6v-46.9h24.54z"/><path fill="#c74343" d="M30.24 1648.48l11.27 11.27v34.4H6.8v-45.67h23.54m.6-1.3H5.28v48.3h37.74v-36.24z"/><path fill="#ffd9d9" d="M42.2 1659.55v.4H30.15v-12.08h.4z"/><path fill="#c74343" d="M30.84 1649.08L41 1659.24H30.94v-10.16m0-1.9h-1.4v13.37H43v-1.3zm-16 40.64c-.9 0-1.6-.6-1.6-1.3 0-1.92 2.4-3.33 5.53-4.43a38.24 38.24 0 0 0 3.52-7.96c-.82-2.02-1.22-3.73-1.22-5.03 0-.7.1-1.4.4-1.8.2-.5.8-.9 1.4-.9.62 0 1.12.3 1.42.8.2.4.2 1 .2 1.6 0 1.2-.4 3.02-.9 5.04a26.16 26.16 0 0 0 3.72 6.23c2.42-.3 4.43-.1 5.53.3 1.3.4 1.6 1.2 1.6 1.72 0 .5-.3 1.9-2.5 1.9-1.9 0-3.82-1-5.23-2.72-2.42.3-5.03.8-7.25 1.5-1.2 3.03-3.02 5.04-4.63 5.04zm-.2-1.3h.2c.7 0 1.8-1 2.82-2.52-1.8.8-3.02 1.7-3.02 2.5zm14.2-5.04c1 1 2.3 1.5 3.3 1.5 1.22 0 1.22-.4 1.22-.5 0-.3-.5-.4-.6-.5-1-.4-2.32-.6-3.93-.4zm-5.75-5.53a40.25 40.25 0 0 1-2.42 5.43c1.7-.4 3.42-.8 5.03-1a35.22 35.22 0 0 1-2.6-4.43zm0-8.25c-.2 0-.3 0-.3.2l-.1 1c0 .8.1 1.82.4 2.82.2-1 .4-2 .4-2.92 0-.7-.2-1-.2-1h-.2z"/></g><g><path fill="#fff" d="M6 1745.28v-47h24.54l11.67 11.68v35.22z"/><path fill="#ffd5d5" d="M30.14 1710.36v-12.07h.4l11.67 11.66v.4z"/><path fill="#e64a19" d="M30.24 1699l11.27 11.06v34.4H6.8v-45.67h23.54m.6-1.32H5.28v48.3h37.74v-36.22z"/><path fill="#e64a19" d="M30.84 1699.5l10.06 10.06h-9.96v-10.07m0-2.02h-1.4v13.6H43v-1.32zm-18.3 22.64l14.58-5.33 7.95 2v22.54l-8.05 2-14.5-5.32 14.6 2v-19.2l-9.36 2v13.2l-5.23 2z"/></g><g id="e"><path fill="#fff" d="M5.96 1845.75v-46.97h24.67l11.73 11.67v35.3z"/><path fill="#4788c7" d="M30.36 1799.45l11.32 11.27v34.36H6.63v-45.63h23.73m.54-1.34H5.28v48.32h37.75v-36.23z"/><path fill="#dff0fe" d="M30.22 1810.86v-12.08h.4l11.73 11.67v.4z"/><path fill="#4788c7" d="M30.9 1800l10.24 10.2H30.9V1800m0-1.9h-1.35v13.43h13.48v-1.34z"/><g fill="none" stroke="#4788c7" stroke-miterlimit="10" stroke-linecap="round"><path d="M31.57 1822.9l2.7 5.37-2.7 5.37m-14.83-10.74l-2.7 5.37 2.7 5.37m10.8-14.77l-6.75 18.8"/></g></g><g id="g" transform="matrix(1.011 0 0 1.006 -.276 1268.146)"><path fill="#ffeea3" d="M6.17 977.33h36V1024h-36z"/><path fill="#ba9b48" d="M41.5 978v45.33H6.83V978H41.5m1.33-1.33H5.5v48h37.33z"/><path fill="#fffae0" d="M24.17 1014.67c-2.67 0-4.67-2.14-4.67-4.67 0-.8.53-3.33 1.33-7.07.14-.93.94-1.6 1.87-1.6h2.93c.94 0 1.74.67 1.87 1.6l1.33 7.07c0 2.67-2.13 4.67-4.66 4.67z"/><path fill="#ba9b48" d="M25.5 1002c.67 0 1.33.4 1.33 1.07 1.34 5.33 1.34 6.66 1.34 6.93a4 4 0 0 1-8 0c0-.27 0-1.47 1.33-6.93a1.33 1.33 0 0 1 1.33-1.07h2.67m0-1.33h-2.67a2.67 2.67 0 0 0-2.66 2.13c-.54 2.4-1.34 6.13-1.34 7.2a5.33 5.33 0 0 0 10.67 0c0-1.07-.8-4.8-1.33-7.2a2.67 2.67 0 0 0-2.67-2.13z"/><circle cx="20" cy="27" r="1.5" fill="#ba9b48" transform="matrix(1.333 0 0 1.333 -2.5 974)"/><path fill="#ba9b48" d="M27.5 999.33h-3.33L22.83 998h4.67z"/><circle cx="22.5" cy="18.5" r=".5" fill="#ba9b48" transform="matrix(1.333 0 0 1.333 -2.5 974)"/><path fill="#ba9b48" d="M20.83 1000.67h3.34l1.33-1.34h-4.67z"/><circle cx="17.5" cy="19.5" r=".5" fill="#ba9b48" transform="matrix(1.333 0 0 1.333 -2.5 974)"/><path fill="#ba9b48" d="M27.5 996.67h-3.33l-1.34-1.34h4.67z"/><circle cx="22.5" cy="16.5" r=".5" fill="#ba9b48" transform="matrix(1.333 0 0 1.333 -2.5 974)"/><path fill="#ba9b48" d="M20.83 998h3.34l1.33-1.33h-4.67z"/><circle cx="17.5" cy="17.5" r=".5" fill="#ba9b48" transform="matrix(1.333 0 0 1.333 -2.5 974)"/><path fill="#ba9b48" d="M27.5 994h-3.33l-1.34-1.33h4.67z"/><circle cx="22.5" cy="14.5" r=".5" fill="#ba9b48" transform="matrix(1.333 0 0 1.333 -2.5 974)"/><path fill="#ba9b48" d="M20.83 995.33h3.34L25.5 994h-4.67z"/><circle cx="17.5" cy="15.5" r=".5" fill="#ba9b48" transform="matrix(1.333 0 0 1.333 -2.5 974)"/><path fill="#ba9b48" d="M27.5 991.33h-3.33L22.83 990h4.67z"/><circle cx="22.5" cy="12.5" r=".5" fill="#ba9b48" transform="matrix(1.333 0 0 1.333 -2.5 974)"/><path fill="#ba9b48" d="M20.83 992.67h3.34l1.33-1.34h-4.67z"/><circle cx="17.5" cy="13.5" r=".5" fill="#ba9b48" transform="matrix(1.333 0 0 1.333 -2.5 974)"/><path fill="#ba9b48" d="M27.5 988.67h-3.33l-1.34-1.34h4.67z"/><circle cx="22.5" cy="10.5" r=".5" fill="#ba9b48" transform="matrix(1.333 0 0 1.333 -2.5 974)"/><path fill="#ba9b48" d="M20.83 990h3.34l1.33-1.33h-4.67z"/><circle cx="17.5" cy="11.5" r=".5" fill="#ba9b48" transform="matrix(1.333 0 0 1.333 -2.5 974)"/><path fill="#ba9b48" d="M27.5 986h-3.33l-1.34-1.33h4.67z"/><circle cx="22.5" cy="8.5" r=".5" fill="#ba9b48" transform="matrix(1.333 0 0 1.333 -2.5 974)"/><path fill="#ba9b48" d="M20.83 987.33h3.34L25.5 986h-4.67z"/><circle cx="17.5" cy="9.5" r=".5" fill="#ba9b48" transform="matrix(1.333 0 0 1.333 -2.5 974)"/><path fill="#ba9b48" d="M27.5 983.33h-3.33L22.83 982h4.67z"/><circle cx="22.5" cy="6.5" r=".5" fill="#ba9b48" transform="matrix(1.333 0 0 1.333 -2.5 974)"/><path fill="#ba9b48" d="M20.83 984.67h3.34l1.33-1.34h-4.67z"/><circle cx="17.5" cy="7.5" r=".5" fill="#ba9b48" transform="matrix(1.333 0 0 1.333 -2.5 974)"/><path fill="#ba9b48" d="M27.5 980.67h-3.33l-1.34-1.34h4.67z"/><circle cx="22.5" cy="4.5" r=".5" fill="#ba9b48" transform="matrix(1.333 0 0 1.333 -2.5 974)"/><path fill="#ba9b48" d="M20.83 982h3.34l1.33-1.33h-4.67z"/><circle cx="17.5" cy="5.5" r=".5" fill="#ba9b48" transform="matrix(1.333 0 0 1.333 -2.5 974)"/><g><path fill="#ba9b48" d="M20.83 979.33h3.34L25.5 978h-4.67z"/></g><g transform="matrix(1.333 0 0 1.333 -2.5 974)"><circle cx="17.5" cy="3.5" r=".5" fill="#ba9b48"/></g></g><g><path fill="#fff" d="M6 2499.77v-46.9h24.54l11.67 11.65v35.15z"/><path fill="#c74343" d="M30.24 2453.58l11.27 11.24v34.24H6.8v-45.38h23.54m.6-1.4H5.28v48.2h37.74v-36.16z"/><g><path fill="#ffd9d9" d="M30.14 2464.92v-12.05h.4l11.67 11.65v.4z"/><path fill="#c74343" d="M30.84 2454.08L41 2464.22H30.94v-10.04m0-2h-1.4v13.45H43v-1.4z"/></g><g><path fill="#f44336" d="M10.4 2471.65a3.02 3 0 0 1 3.03-3h21.13a3.02 3 0 0 1 3.12 3v21.1a3.02 3 0 0 1-3 3H13.42a3.02 3 0 0 1-3.02-3z"/><path fill="#210403" d="M12.63 2470.85v22.7h22.74v-22.7zm12.98 7.73h-3.8v2.7h3.4v1.82h-3.4v4.42h-2.23v-10.75h6.04zm3.13 8.94h-2v-10.75h2z"/></g></g><g><path fill="#fff" d="M22.7 2538.2V2503h16.96l8.04 8.72v26.48z"/><path fill="#4788c7" d="M39.46 2503.5l7.84 8.42v25.77H23.2v-34.2h16.26m.4-1.02H22.2v36.23h26.1v-27.1z"/><path fill="#dff0fe" d="M39.36 2512.02v-9.13h.3l8.04 8.82v.3z"/><path fill="#4788c7" d="M39.87 2503.9l7.02 7.6h-7.03v-7.6m0-1.42h-1v10.15h9.33v-1.02z"/><g><path fill="#fff" d="M12.05 2543.68v-35.3h17.07l8.03 8.82v26.38z"/><path fill="#4788c7" d="M28.92 2508.87l7.73 8.53v25.77h-24.1v-34.3h16.37m.4-1H11.65v36.22h25.9V2517z"/><path fill="#dff0fe" d="M28.82 2517.5v-9.13h.2l8.03 8.83v.3z"/><path fill="#4788c7" d="M29.22 2509.28l7.03 7.7h-7.03v-7.7m0-1.42h-.9V2518h9.24v-1z"/></g><g><path fill="#fff" d="M.5 2550.17v-35.2h16.97l8.04 8.82v26.37z"/><path fill="#4788c7" d="M17.27 2515.47L25 2524v25.77H.9v-34.3h16.37m.4-1H0v36.3h26v-27.18z"/><path fill="#dff0fe" d="M17.17 2524.1v-9.14h.3l8.04 8.83v.3z"/><path fill="#4788c7" d="M17.67 2515.98l7.03 7.6h-7.03v-7.6m0-1.42h-1v10.04H26v-1z"/></g></g><g id="f"><path fill="#fff" d="M5.96 1896.06v-46.97h24.67l11.73 11.67v35.3z"/><path fill="#4788c7" d="M30.36 1849.76l11.32 11.27v34.36H6.63v-45.64h23.73m.54-1.34H5.28v48.3h37.75v-36.22z"/><path fill="#dff0fe" d="M30.22 1861.17v-12.08h.4l11.73 11.67v.4z"/><path fill="#4788c7" d="M30.9 1850.3l10.24 10.2H30.9v-10.2m0-1.88h-1.35v13.42h13.48v-1.34z"/><g><path fill="#fff" d="M11.1 1867.48h26.33v24.7H11.1z"/><path fill="#4788c7" d="M37.05 1867.85v23.97H11.48v-23.97h25.57m.75-.75H10.73v25.47H37.8z"/><path fill="#98ccfd" d="M11.48 1867.85h25.57v3.75H11.48z"/><path fill="none" stroke="#4788c7" stroke-width="0.75" stroke-miterlimit="10" d="M20.2 1883.28c.38.82.98 1.42 1.66 1.42 1.58 0 2.4-1.5 2.4-3.37s-.9-3.37-2.4-3.37c-.75 0-1.28.6-1.66 1.5m8.13 3.82c-.38.82-.98 1.42-1.66 1.42-1.58 0-2.4-1.5-2.4-3.37s.9-3.37 2.4-3.37c.75 0 1.28.6 1.66 1.5m2.33 6.74a15.5 15.43 0 0 0 0-9.74m-12.8 0a15.5 15.43 0 0 0 0 9.74" stroke-linecap="round"/></g></g><use width="100%" height="100%" transform="translate(0 402.5)" xlink:href="#e"/><use width="100%" height="100%" transform="translate(0 50.312)" xlink:href="#f"/><use width="100%" height="100%" transform="translate(0 100.625)" xlink:href="#f"/><use width="100%" height="100%" transform="translate(0 150.937)" xlink:href="#f"/><use width="100%" height="100%" transform="translate(0 201.25)" xlink:href="#f"/><use width="100%" height="100%" transform="translate(0 251.562)" xlink:href="#f"/><use width="100%" height="100%" transform="translate(0 301.875)" xlink:href="#f"/><use width="100%" height="100%" transform="translate(0 50.312)" xlink:href="#g"/><use width="100%" height="100%" transform="translate(0 100.625)" xlink:href="#g"/><use width="100%" height="100%" transform="translate(0 150.937)" xlink:href="#g"/><use width="100%" height="100%" transform="translate(0 1157.188)" xlink:href="#h"/></g></svg>