<?xml version="1.0" encoding="UTF-8"?>
<svg width="48" height="1600" version="1.1" viewBox="0 0 480 16000" xmlns="http://www.w3.org/2000/svg" xmlns:cc="http://creativecommons.org/ns#" xmlns:dc="http://purl.org/dc/elements/1.1/" xmlns:rdf="http://www.w3.org/1999/02/22-rdf-syntax-ns#" xmlns:xlink="http://www.w3.org/1999/xlink">
<metadata>
<rdf:RDF>
<cc:Work rdf:about="">
<dc:format>image/svg+xml</dc:format>
<dc:type rdf:resource="http://purl.org/dc/dcmitype/StillImage"/>
<dc:title/>
</cc:Work>
</rdf:RDF>
</metadata>
<defs>
<linearGradient id="k">
<stop stop-color="#85b1d9" offset="0"/>
<stop stop-color="#dff0fe" offset="1"/>
</linearGradient>
<linearGradient id="r" x1="20.2" x2="20.2" y1="35.7" y2="12.5" gradientTransform="matrix(1.2385 0 0 1.2385 -1.2075 27.023)" gradientUnits="userSpaceOnUse" xlink:href="#k"/>
<linearGradient id="s" x1="21.7" x2="21.9" y1="35.4" y2="7.4" gradientTransform="matrix(1.2711 0 0 1.2711 -1.2075 -24.184)" gradientUnits="userSpaceOnUse" xlink:href="#k"/>
<filter id="p" color-interpolation-filters="sRGB">
<feColorMatrix values="1 0 0 -0.2 -0 0 1 0 -0.2 -0 0 0 1 -0.2 -0 0 0 0 1 0"/>
</filter>
<filter id="o" color-interpolation-filters="sRGB">
<feColorMatrix result="color1" type="hueRotate" values="203"/>
<feColorMatrix result="color2" type="saturate" values="0.7"/>
</filter>
<filter id="n" color-interpolation-filters="sRGB">
<feColorMatrix result="color1" type="hueRotate" values="135"/>
<feColorMatrix result="color2" type="saturate" values="0.7"/>
</filter>
</defs>
<g transform="matrix(9.9379 0 0 9.9379 0 -10369)">
<g transform="translate(-.21719 1267.9)">
<path d="m42.2-212.06v35.2h-36v-46.7h24.4z" fill="#fff"/>
<path d="m30.455-223.25 11.27 11.27v34.313h-34.716v-45.482h23.546m0.60375-1.3081h-25.659v48.3h37.734v-36.225z" fill="#788b9c" stroke-width="1.0063"/>
<path d="m42.2-212.06v0.4h-12v-12h0.4z" fill="#eef0f2"/>
<path d="m31.101-222.46 10 10h-9.9v-10m0-2h-1.4v13.5h13.4v-1.3z" fill="#788b9c"/>
<path d="m21.2-186.56h4v4h-4zm3.8-2.3h-3.6v-2.5q0-1.6 0.5-2.6t2.3-2.4l1.7-1.4q1-0.8 1.6-1.6 0.5-0.7 0.5-1.5 0-1.4-1.3-2.2-1.3-1-3.3-1-1.5 0-3.3 0.6-1.7 0.6-3.6 1.6v-3q1.9-0.8 3.7-1.3 1.9-0.4 3.8-0.4 3.6 0 5.7 1.5 2.2 1.6 2.2 4 0 1.3-0.7 2.4-0.7 1-2.4 2.4l-1.8 1.4q-1 0.7-1.3 1.1-0.4 0.4-0.5 0.8l-0.2 0.8v1.3z" fill="#000080" font-size="8.5" font-weight="400" letter-spacing="0" stroke-width=".2" word-spacing="0" aria-label="?"/>
</g>
<g transform="translate(0 1117.4)">
<path d="m0.60375 20.996v-39.445h13.081l3.8238 3.8238h30.188v35.621z" fill="#b6dcfe" stroke-width="1.0063"/>
<path d="m13.484-17.845 3.8238 3.8238h29.785v34.313h-45.784v-38.137h12.075m0.60375-1.2075h-13.987v40.652h48.3v-36.829h-30.489z" fill="#4788c7" stroke-width="1.0063"/>
<path d="m0.69908 20.938v-33.047h13.6l3.8132-2.5421h29.616v35.59z" fill="url(#s)" stroke-width="1.2711"/>
<path d="m47.092-14.021v34.313h-45.784v-31.798h13.081l0.30188-0.20125 3.5219-2.3144h28.879m1.2075-1.2075h-30.489l-3.8238 2.5156h-13.987v34.212h48.3z" fill="#4788c7" stroke-width="1.0063"/>
</g>
<g transform="translate(0 1117.7)">
<path d="m0.60375 70.996v-38.439h12.779l3.7231 3.7231h25.659v34.716z" fill="#b6dcfe" stroke-width="1.0063"/>
<path d="m13.081 33.161 3.7231 3.7231h25.458v33.508h-41.055v-37.231h11.874m0.60375-1.2075h-13.685v39.646h43.269v-35.923h-25.861z" fill="#4788c7" stroke-width="1.0063"/>
<path d="m0.77404 70.989 4.7062-26.008h13.375l3.7154-2.4769h25.017l-4.7062 28.485z" fill="url(#r)" stroke-width="1.2385"/>
<path d="m46.891 43.123-4.5281 27.169h-40.854l4.5281-24.653h12.981l3.6225-2.415h24.15m1.5094-1.4088h-25.961l-3.7231 2.5156h-13.685l-4.9306 27.169h43.269z" fill="#4788c7" stroke-width="1.0063"/>
</g>
<g transform="translate(-.21719 1116.9)">
<path d="m6.2029 125.12v-46.995h24.501l11.648 11.648v35.146z" fill="#fff" stroke-width="1.0042"/>
<path d="m30.455 78.828 11.27 11.069v34.414h-34.716v-45.583h23.546m0.60375-1.3081h-25.659v48.3h37.734v-36.225z" fill="#4788c7" stroke-width="1.0063"/>
<path d="m30.303 90.273v-12.05h0.40166l11.648 11.648v0.40166z" fill="#dff0fe" stroke-width="1.0042"/>
<path d="m31.006 79.428 10.042 10.042h-9.9412v-10.042m0-2.0083h-1.4058v13.556h13.456v-1.3054z" fill="#4788c7" stroke-width="1.0042"/>
<path d="m15.542 99.612h1.5062v6.025m6.527-0.60249c-0.70291 0-1.3054-0.70292-1.3054-1.4058v-2.7112a1.3556 1.3556 0 0 1 2.7112 0v2.7112c0 0.70291-0.6025 1.3054-1.4058 1.3054zm8.0333 0c-0.70291 0-1.3054-0.70292-1.3054-1.4058v-2.7112a1.3556 1.3556 0 0 1 2.7112 0v2.7112c0 0.70291-0.6025 1.3054-1.4058 1.3054zm0 4.0166h1.5062v6.025m-8.1337-0.70292c-0.80333 0-1.4058-0.60249-1.4058-1.4058v-2.6108a1.3556 1.3556 0 0 1 2.7112 0v2.6108c0 0.80333-0.6025 1.4058-1.3054 1.4058zm-8.0333 0c-0.80333 0-1.4058-0.60249-1.4058-1.4058v-2.6108a1.3556 1.3556 0 0 1 2.7112 0v2.6108c0 0.80333-0.60249 1.4058-1.3054 1.4058z" fill="none" stroke="#4788c7" stroke-miterlimit="10" stroke-width="1.3389"/>
</g>
<g id="m" transform="matrix(1.0107 0 0 1.0063 -.27626 1117.2)">
<path transform="matrix(1.3333 0 0 1.3333 -2.5 124)" d="m6.5 37.5v-35h18.3l8.7 8.7v26.3z" fill="#fff"/>
<path transform="matrix(1.3333 0 0 1.3333 -2.5 124)" d="m24.6 3 8.4 8.4v25.6h-26v-34h17.6m0.4-1h-19v36h28v-27z" fill="#4788c7"/>
<path transform="matrix(1.3333 0 0 1.3333 -2.5 124)" d="m24.5 11.5v-9h0.3l8.7 8.7v0.3z" fill="#dff2fe"/>
<path transform="matrix(1.3333 0 0 1.3333 -2.5 124)" d="m25 3.4 7.6 7.6h-7.6v-7.6m0-1.4h-1v10h10v-1z" fill="#4788c7"/>
<g fill="#4788c7">
<path transform="matrix(1.3333 0 0 1.3333 -2.5 125.2)" d="m27.5 17h-15a0.5 0.5 0 0 1-0.5-0.5c0-0.3 0.2-0.5 0.5-0.5h15c0.3 0 0.5 0.2 0.5 0.5s-0.2 0.5-0.5 0.5zm-4 3h-11a0.5 0.5 0 0 1-0.5-0.5c0-0.3 0.2-0.5 0.5-0.5h11c0.3 0 0.5 0.2 0.5 0.5s-0.2 0.5-0.5 0.5zm4 3h-15a0.5 0.5 0 0 1-0.5-0.5c0-0.3 0.2-0.5 0.5-0.5h15c0.3 0 0.5 0.2 0.5 0.5s-0.2 0.5-0.5 0.5zm-4 3h-11a0.5 0.5 0 0 1-0.5-0.5c0-0.3 0.2-0.5 0.5-0.5h11c0.3 0 0.5 0.2 0.5 0.5s-0.2 0.5-0.5 0.5zm4 3h-15a0.5 0.5 0 0 1-0.5-0.5c0-0.3 0.2-0.5 0.5-0.5h15c0.3 0 0.5 0.2 0.5 0.5s-0.2 0.5-0.5 0.5z"/>
</g>
</g>
<g transform="translate(-.21719 1116.9)">
<path d="m6.2044 178.85h24.552l11.672 11.672v35.219h-36.225z" fill="#fff" stroke-width="1.0063"/>
<path d="m30.455 179.55 11.27 11.069v34.414h-34.716v-45.684h23.546m0.60375-1.3081h-25.659v48.3h37.734v-36.225z" fill="#2ea26c" stroke-width="1.0063"/>
<path d="m30.354 178.85h0.4025l11.672 11.672v0.4025h-12.075z" fill="#e8f8f1" stroke-width="1.0063"/>
<path d="m31.059 180.06 10.062 10.062h-9.9619v-10.062m0-2.0125h-1.4087v13.584h13.484v-1.3081z" fill="#2ea26c" stroke-width="1.0063"/>
<g transform="matrix(1.3417 0 0 1.3417 -2.55 178.15)" filter="url(#p)">
<path d="m28 29v-3l-5-4.8-3 2.8 4.6 5z" fill="#79efa8"/>
<circle cx="26" cy="17" r="2" fill="#b5ffc9"/>
<path d="m26 29h-14v-4l5-5z" fill="#b5ffc9"/>
</g>
</g>
<g transform="matrix(1.0062 0 0 1.0062 -.25156 1117.5)">
<path d="m6.2 273.9v-46.7h24.4l11.6 11.6v35z" fill="#fff"/>
<path d="m30.3 227.9 11.2 11.1v34.1h-34.5v-45.3h23.4m0.6-1.4h-25.5v48h37.5v-36z" fill="#7bad2a"/>
<path d="m42.2 239.2h-12v-12h0.4l11.6 11.6z" fill="#f2f9e7"/>
<path d="m30.9 228.4 10.1 10.1h-10v-10.1m0-1.9h-1.4v13.5h13.4v-1.4z" fill="#7bad2a"/>
<path d="m24.9 260v-12.6c3.4 0 5.3 1.3 5.3 1.3v2.7s-2.4-1.4-4.7-1.4" fill="#c9e69a"/>
<path d="m25.5 260h-1.3v-13.3h0.7c3.7 0 5.6 1.5 5.7 1.5l0.3 0.1v4.1l-1-0.5s-2.4-1.2-4.4-1.2zm0-10.6c1.5 0 3.1 0.5 4 0.9v-1.2c-0.5-0.3-1.8-1-4-1z" fill="#7bad2a"/>
<g transform="matrix(1.3333 0 0 1.3333 -2.5 225.4)">
<circle cx="18" cy="26" r="2.5" fill="#c4e490"/>
<path d="m18 24a2 2 0 0 1 2 2 2 2 0 0 1-2 2 2 2 0 0 1-2-2c0-1.1 0.9-2 2-2m0-1a3 3 0 0 0-3 3 3 3 0 0 0 3 3 3 3 0 0 0 3-3 3 3 0 0 0-3-3z" fill="#7bad2a"/>
</g>
</g>
<g transform="matrix(1.0062 0 0 1.0042 -.25156 1117.9)">
<path d="m30.6 277.3 11.6 11.6v35h-36v-46.6z" fill="#fff"/>
<path d="m30.3 278 11.2 11.2v34h-34.5v-45.2h23.4m0.6-1.3h-25.5v48h37.5v-36z" fill="#788b9c"/>
<path d="m30.6 277.3 11.6 11.6v0.4h-12v-12z" fill="#eef0f2"/>
<path d="m30.9 278.5 10 10.1h-9.9v-10.1m0-1.9h-1.4v13.4h13.4v-1.3z" fill="#788b9c"/>
<path d="m18.9 313.9 14.7-8.3-14.7-8.3z" fill="#8bb7f0"/>
</g>
<g transform="matrix(1.0062 0 0 1.0062 -.25156 1117.4)">
<path d="m34.2 496.6h-20a0.7 0.7 0 0 1-0.7-0.7c0-0.3 0.3-0.6 0.7-0.6h20c0.4 0 0.7 0.3 0.7 0.6 0 0.4-0.3 0.7-0.7 0.7zm-5.3 4h-14.7a0.7 0.7 0 0 1-0.7-0.7c0-0.3 0.3-0.6 0.7-0.6h14.8c0.3 0 0.6 0.3 0.6 0.6 0 0.4-0.3 0.7-0.6 0.7zm5.3 4h-20a0.7 0.7 0 0 1-0.7-0.7c0-0.3 0.3-0.6 0.7-0.6h20c0.4 0 0.7 0.3 0.7 0.6 0 0.4-0.3 0.7-0.7 0.7zm-5.3 4h-14.7a0.7 0.7 0 0 1-0.7-0.7c0-0.3 0.3-0.6 0.7-0.6h14.8c0.3 0 0.6 0.3 0.6 0.6 0 0.4-0.3 0.7-0.6 0.7zm5.3 4h-20a0.7 0.7 0 0 1-0.7-0.7c0-0.3 0.3-0.6 0.7-0.6h20c0.4 0 0.7 0.3 0.7 0.6 0 0.4-0.3 0.7-0.7 0.7z" fill="#4788c7"/>
<path d="m6.2 524v-46.7h24.4l11.6 11.6v35z" fill="#fff"/>
<path d="m30.3 478 11.2 11v34.2h-34.5v-45.4h23.4m0.6-1.3h-25.5v48h37.5v-36z" fill="#4788c7"/>
<path d="m30.2 489.3v-12h0.4l11.6 11.6v0.4z" fill="#dff0fe"/>
<path d="m30.9 478.5 10 10h-9.9v-10m0-2h-1.4v13.5h13.4v-1.3z" fill="#4788c7"/>
<path d="m36.7 507a12.4 12.4 0 0 1-24.8 0c0-6.8 5.5-12.3 12.4-12.3s12.4 5.5 12.4 12.3z" fill="#c2e8ff"/>
<path d="m31.6 516.7-0.4-1.3a8 8 0 0 1-0.6-1.7v-0.5c-0.1-0.4-0.2-0.9-0.6-1.3l-0.6-0.4h-0.2c-0.5-0.3-1-0.3-1.4-0.3-0.8 0-1.2-0.1-1.6-0.6-0.1-0.2-0.1-0.4 0-0.8v-0.3l0.6-1.2v-0.1l0.4-0.8 0.5-1.3 0.1-0.6v-0.3l0.6-0.3h0.1l0.1-0.2c0.1 0 0.3-0.1 0.3-0.4l-0.1-0.4s0-0.2 0.2-0.2l1-1a29.8 29.8 0 0 0 1.4-1.3v-0.5c0-0.1-0.2-0.3-0.4-0.3a3 3 0 0 0-0.4-0.1l-0.3-0.2h-0.1v-0.1l1-1.4 0.3-0.3c0.1-0.3 0.3-0.5 0.5-0.6a1 1 0 0 1 0.7 0 12.3 12.3 0 0 1-1 19.1z" fill="#bae0bd"/>
<path d="m32.4 498.2h0.1a12 12 0 0 1 3.8 8.8c0 3.7-1.6 7.1-4.4 9.4-0.2-0.3-0.3-0.7-0.3-1v-0.1l-0.1-0.1c-0.3-0.5-0.4-1-0.5-1.6l-0.1-0.4c-0.1-0.4-0.2-1-0.6-1.5-0.2-0.3-0.6-0.5-0.8-0.5l-0.2-0.1-1.5-0.3c-0.8 0-1 0-1.3-0.3v-0.9l1-2 0.6-1.4v-0.8l0.5-0.2 0.2-0.1c0.1-0.1 0.4-0.3 0.4-0.8v-0.4l2-2c0.3 0 0.4-0.2 0.5-0.4v-0.7a0.9 0.9 0 0 0-0.6-0.5l-0.4-0.1 0.7-1.2 0.3-0.3 0.4-0.5h0.3m0-0.7h-0.4c-0.4 0.2-0.7 0.8-1 1.1l-1 1.4c-0.1 0.2-0.3 0.5-0.1 0.6l0.3 0.1 0.7 0.3c0.1 0 0.3 0.2 0.1 0.3l-0.1 0.2-2.2 2-0.3 0.6c0 0.1 0.2 0.1 0.2 0.3l-0.3 0.3-0.7 0.4c-0.2 0.3 0 0.7-0.2 1-0.1 0.8-0.6 1.3-0.9 2l-0.7 1.4c0 0.6-0.1 1 0.2 1.4 0.7 1 2 0.5 3 1 0.3 0 0.6 0 0.7 0.3 0.5 0.5 0.5 1.2 0.6 1.6l0.6 1.8c0.1 0.7 0.4 1.4 0.6 2l0.3-0.2a12.8 12.8 0 0 0 1-19.7l-0.4-0.1z" fill="#5e9c76"/>
<path d="m24.4 500-0.1-1.1 0.1-0.7c0.1-0.4 0.2-0.8 0.1-1.3l-0.1-1.2v-0.3h-0.4l-0.4-0.1h-0.3v-0.3l0.2-0.4a12.2 12.2 0 0 1 4.9 0.7c0 0.1-0.1 0.5-0.5 1.1v0.2c-0.2 0.5-0.5 1-0.8 1.1-0.3 0.4-0.7 0.8-1.1 1l-0.7 0.6-0.7 0.5a2.7 2.7 0 0 0-0.3 0.2z" fill="#bae0bd"/>
<path d="m24.2 494.9c1.3 0 2.6 0.2 3.9 0.6l-0.4 0.8v0.2a2 2 0 0 1-0.7 1l-1.1 1-0.7 0.5-0.6 0.5v-0.6l0.1-0.6c0.1-0.4 0.3-0.8 0.2-1.4l-0.2-1.3v-0.4l-0.5-0.2h-0.4v-0.1h0.4m0-0.7h-0.8l-0.4 0.8c-0.1 0.7 0.5 0.6 1 0.7l0.2 1.3c0.2 0.7-0.3 1.2-0.3 1.9 0 0.4 0 1.2 0.3 1.5h0.2l0.5-0.3 1.3-1 1.2-1c0.4-0.4 0.7-1 0.9-1.4 0.1-0.3 0.6-1.1 0.5-1.6a13 13 0 0 0-4.6-0.9z" fill="#5e9c76"/>
<path d="m20.5 519a12.4 12.4 0 0 1-2.2-1v-0.5l-0.2-0.6-0.2-0.8a18.7 18.7 0 0 0-0.6-1.4c-0.2-0.5-0.5-1-0.5-1.5v-0.5c0-0.5 0-1.1-0.3-1.7h2.9l0.3 0.1c0.3 0.1 0.7 0.2 0.9 0.4v0.3l0.3 0.5c0.6 0.7 1.3 0.8 2 1l0.6 0.2c0.1 0 0.2 0 0.2 0.3 0.2 0.4 0 0.9 0 1.1l-0.2 0.3c0 0.3-0.2 0.7-0.4 1l-0.8 0.4-0.8 0.9-0.4 0.5-0.1 0.1v0.1l-0.5 0.7zm-5-8.7-0.6-0.3c-0.3 0-0.6-0.2-0.8-0.3-1-0.6-1.7-1.5-2.1-2.2 0-0.2-0.2-0.3-0.3-0.4 0-3.5 1.4-6.7 3.8-9a12 12 0 0 1 3.5-0.7h0.7c0.4 0.2 0.8 0.4 1 0.7 0.3 0.3 0.7 0.6 0.7 1h-1.2l-0.6-0.6a1 1 0 0 0-0.4-0.1c-1 0-2.3 1.8-2.4 2.5a2 2 0 0 0 0 1.4c0.2 0.3 0.5 0.5 0.8 0.6 0.5 0 1-0.4 1.5-0.9l0.5-0.3 0.4-0.3 0.2-0.1h0.2c0.9 0 1.5 0.8 1.7 1.6v0.5c-0.3 0.6-1.4 1.1-2.4 1.4h-0.7c-0.9 0.4-1.8 1.4-1.8 2.4l-0.1 0.8a1 1 0 0 0-0.6-0.5c-0.1-0.2-0.2-0.2-0.4-0.2l-0.4-0.1-0.6-0.2a1 1 0 0 0-0.5 0.2c-0.3 0.2-0.8 0.8-0.8 1.4 0 0.2 0 0.5 0.3 0.7l0.4 0.2h0.3l0.2-0.1h0.1v0.2a56.9 56.9 0 0 0 0.5 0.7z" fill="#bae0bd"/>
<path d="m19 497.7h0.6l1 0.7 0.3 0.4h-0.5l-0.6-0.6h-0.2l-0.4-0.1c-1.3 0-2.6 2-2.8 2.6-0.1 0.5-0.1 1.3 0.2 1.8 0.2 0.4 0.5 0.6 1 0.7 0.6 0 1-0.4 1.7-1l0.5-0.2 0.3-0.3 0.2-0.1c0.7 0 1.3 0.7 1.5 1.4v0.2c-0.2 0.4-1 1-2.1 1.3h-0.4a1 1 0 0 0-0.5 0c-1 0.4-2 1.5-2 2.6v0.1a0.9 0.9 0 0 0-0.7-0.2l-0.3-0.1a2 2 0 0 0-0.7-0.2c-0.3 0-0.5 0-0.7 0.2l-0.1 0.1c-0.3 0.2-0.8 0.9-0.8 1.6v0.2c-0.5-0.5-1-1-1.2-1.5a7 7 0 0 0-0.2-0.3 12 12 0 0 1 3.6-8.7c1.2-0.3 2.4-0.6 3.3-0.6m0.3 13.7a16.4 16.4 0 0 0 1 0.3v0.2l0.2 0.5 0.1 0.1v0.1c0.7 0.7 1.5 0.9 2.1 1l0.7 0.2v0.9h-0.1v0.1l-0.1 0.3-0.3 0.8-0.7 0.4h-0.2l-0.9 1-0.4 0.5-0.2 0.2v0.1l-0.2 0.4-1.8-0.7v-0.4l-0.1-0.5v-0.2l-0.3-0.7-0.2-0.7a8 8 0 0 0-0.4-0.8 3 3 0 0 1-0.4-1.3v-0.5l-0.1-1.3h2.2m-0.2-14.4c-1 0-2.5 0.2-3.7 0.6-2.4 2.4-3.9 5.7-3.9 9.3v0.2l0.3 0.4c0.4 0.9 1.3 1.8 2.2 2.4 0.6 0.4 1.7 0.4 2.3 1.1 0.4 0.6 0.3 1.3 0.3 2 0 1 0.6 1.7 0.9 2.4l0.4 1.4 0.2 1.2v0.1c0.8 0.5 1.7 0.8 2.5 1 0.2 0 0.8-0.8 0.8-1 0.4-0.4 0.7-1 1.2-1.3l0.8-0.5c0.3-0.3 0.5-1 0.6-1.3 0.2-0.3 0.3-1 0.2-1.4-0.1-0.2-0.2-0.4-0.5-0.5-0.8-0.3-1.7-0.3-2.4-1l-0.3-1-1.5-0.5h-2.9c-0.4-0.2-0.7-0.7-1-1.2 0-0.1 0-0.4-0.3-0.4h-0.9l-0.1-0.5c0-0.4 0.3-0.8 0.5-1.1l0.4-0.1 1 0.2 0.3 0.2c0.4 0.1 0.5 0.7 0.5 1.1v0.3c0 0.2 0.2 0.2 0.3 0.2l0.3-2.2c0-0.9 0.9-1.8 1.6-2h0.7c1-0.3 3.1-1.2 2.7-2.4-0.3-1-1-1.9-2.1-1.9h-0.4l-0.7 0.5c-0.4 0.3-1.3 1.1-1.7 1.1-0.8-0.1-0.8-1.1-0.6-1.6 0.1-0.5 1.3-2.2 2.1-2.2h0.2l0.6 0.6c0.3 0.2 0.7 0.2 1.2 0.2l0.4-0.2 0.1-0.3c0-0.4-0.4-0.8-0.7-1.1s-0.7-0.6-1.2-0.7a3 3 0 0 0-0.8-0.1z" fill="#5e9c76"/>
<path d="m24.2 494.9a12.1 12.1 0 1 1 0 24.2 12.1 12.1 0 0 1 0-24.2m0-0.7a12.8 12.8 0 1 0 0 25.6 12.8 12.8 0 0 0 0-25.6z" fill="#7496c4"/>
</g>
<g transform="matrix(1.0062 0 0 1.0062 -.25156 1117.4)">
<path d="m6.2 374v-46.7h24.4l11.6 11.6v35z" fill="#fff"/>
<path d="m30.3 328 11.2 11v34.2h-34.5v-45.4h23.4m0.6-1.3h-25.5v48h37.5v-36z" fill="#4788c7"/>
<path d="m30.2 339.3v-12h0.4l11.6 11.6v0.4z" fill="#dff0fe"/>
<path d="m30.9 328.5 10 10h-9.9v-10m0-2h-1.4v13.5h13.4v-1.3z" fill="#4788c7"/>
<path d="m34.2 347.9h-20a0.7 0.7 0 0 1-0.7-0.7c0-0.3 0.3-0.6 0.7-0.6h20c0.4 0 0.7 0.3 0.7 0.6 0 0.4-0.3 0.7-0.7 0.7z" fill="#800080"/>
<path d="m28.9 351.9h-14.7a0.7 0.7 0 0 1-0.7-0.7c0-0.3 0.3-0.6 0.7-0.6h14.8c0.3 0 0.6 0.3 0.6 0.6 0 0.4-0.3 0.7-0.6 0.7z" fill="#f55"/>
<path d="m34.2 355.9h-20a0.7 0.7 0 0 1-0.7-0.7c0-0.3 0.3-0.6 0.7-0.6h20c0.4 0 0.7 0.3 0.7 0.6 0 0.4-0.3 0.7-0.7 0.7z" fill="#008000"/>
<path d="m28.9 359.9h-14.7a0.7 0.7 0 0 1-0.7-0.7c0-0.3 0.3-0.6 0.7-0.6h14.8c0.3 0 0.6 0.3 0.6 0.6 0 0.4-0.3 0.7-0.6 0.7z" fill="#808000"/>
<path d="m34.2 363.9h-20a0.7 0.7 0 0 1-0.7-0.7c0-0.3 0.3-0.6 0.7-0.6h20c0.4 0 0.7 0.3 0.7 0.6 0 0.4-0.3 0.7-0.7 0.7z" fill="#500"/>
</g>
<g transform="matrix(1.0062 0 0 1.0062 -.25156 1117.6)">
<path d="m42.2 388.6v35h-36v-46.6h24.4z" fill="#fff"/>
<path d="m30.3 377.6 11.2 11.2v34.2h-34.5v-45.4h23.4m0.6-1.3h-25.5v48h37.5v-36z" fill="#c74343"/>
<path d="m42.2 388.6v0.4h-12v-12h0.4z" fill="#ffd9d9"/>
<path d="m30.9 378.2 10.1 10.1h-10v-10.1m0-1.9h-1.4v13.3h13.4v-1.3zm-15.9 40.4c-0.9 0-1.6-0.6-1.6-1.3 0-1.9 2.4-3.3 5.5-4.4a38 38 0 0 0 3.5-7.9c-0.8-2-1.2-3.7-1.2-5 0-0.7 0.1-1.4 0.4-1.8 0.2-0.5 0.8-0.9 1.4-0.9s1.1 0.3 1.4 0.8c0.2 0.4 0.2 1 0.2 1.6 0 1.2-0.4 3-0.9 5a26 26 0 0 0 3.7 6.2c2.4-0.3 4.4-0.1 5.5 0.3 1.3 0.4 1.6 1.2 1.6 1.7s-0.3 1.9-2.5 1.9c-1.9 0-3.8-1-5.2-2.7-2.4 0.3-5 0.8-7.2 1.5-1.2 3-3 5-4.6 5zm-0.2-1.3h0.2c0.7 0 1.8-1 2.8-2.5-1.8 0.8-3 1.7-3 2.5zm14.1-5c1 1 2.3 1.5 3.3 1.5 1.2 0 1.2-0.4 1.2-0.5 0-0.3-0.5-0.4-0.6-0.5-1-0.4-2.3-0.6-3.9-0.4zm-5.7-5.5a40 40 0 0 1-2.4 5.4c1.7-0.4 3.4-0.8 5-1a35 35 0 0 1-2.6-4.4zm0-8.2c-0.2 0-0.3 0-0.3 0.2l-0.1 1c0 0.8 0.1 1.8 0.4 2.8 0.2-1 0.4-2 0.4-2.9 0-0.7-0.2-1-0.2-1h-0.2z" fill="#c74343"/>
</g>
<g id="l" transform="matrix(1.0062 0 0 1.0062 -.25156 1117.4)">
<path d="m6.2 474v-46.7h24.4l11.6 11.6v35z" fill="#fff"/>
<path d="m30.2 439.3v-12h0.4l11.6 11.6v0.4z" fill="#ffd5d5"/>
<path d="m30.3 428 11.2 11v34.2h-34.5v-45.4h23.4m0.6-1.3h-25.5v48h37.5v-36z" fill="#e64a19"/>
<path d="m30.9 428.5 10 10h-9.9v-10m0-2h-1.4v13.5h13.4v-1.3zm-18.2 22.5 14.5-5.3 7.9 2v22.4l-8 2-14.4-5.3 14.5 2v-19.1l-9.3 2v13.1l-5.2 2z" fill="#e64a19"/>
</g>
<g id="q" transform="matrix(1.0107 0 0 1.0063 -.27626 1117.2)">
<path transform="matrix(1.3333 0 0 1.3333 -2.5 524)" d="m6.5 37.5v-35h18.3l8.7 8.7v26.3z" fill="#fff"/>
<path transform="matrix(1.3333 0 0 1.3333 -2.5 524)" d="m24.6 3 8.4 8.4v25.6h-26v-34h17.6m0.4-1h-19v36h28v-27z" fill="#4788c7"/>
<path transform="matrix(1.3333 0 0 1.3333 -2.5 524)" d="m24.5 11.5v-9h0.3l8.7 8.7v0.3z" fill="#dff0fe"/>
<path transform="matrix(1.3333 0 0 1.3333 -2.5 524)" d="m25 3.4 7.6 7.6h-7.6v-7.6m0-1.4h-1v10h10v-1z" fill="#4788c7"/>
<g fill="none" stroke="#4788c7" stroke-linecap="round" stroke-miterlimit="10">
<path transform="matrix(1.3333 0 0 1.3333 -2.5 525.3)" d="m25.5 19.5 2 4-2 4m-11-8-2 4 2 4m8-11-5 14"/>
</g>
</g>
<g id="i" transform="matrix(1.0107 0 0 1.0063 -.27626 1117.2)">
<path transform="matrix(1.3333 0 0 1.3333 -2.5 974)" d="m6.5 2.5h27v35h-27z" fill="#ffeea3"/>
<path transform="matrix(1.3333 0 0 1.3333 -2.5 974)" d="m33 3v34h-26v-34h26m1-1h-28v36h28z" fill="#ba9b48"/>
<path transform="matrix(1.3333 0 0 1.3333 -2.5 974)" d="m20 30.5c-2 0-3.5-1.6-3.5-3.5 0-0.6 0.4-2.5 1-5.3 0.1-0.7 0.7-1.2 1.4-1.2h2.2c0.7 0 1.3 0.5 1.4 1.2l1 5.3c0 2-1.6 3.5-3.5 3.5z" fill="#fffae0"/>
<path transform="matrix(1.3333 0 0 1.3333 -2.5 974)" d="m21 21c0.5 0 1 0.3 1 0.8 1 4 1 5 1 5.2a3 3 0 0 1-6 0c0-0.2 0-1.1 1-5.2a1 1 0 0 1 1-0.8h2m0-1h-2a2 2 0 0 0-2 1.6c-0.4 1.8-1 4.6-1 5.4a4 4 0 0 0 8 0c0-0.8-0.6-3.6-1-5.4a2 2 0 0 0-2-1.6z" fill="#ba9b48"/>
<circle transform="matrix(1.3333 0 0 1.3333 -2.5 974)" cx="20" cy="27" r="1.5" fill="#ba9b48"/>
<path transform="matrix(1.3333 0 0 1.3333 -2.5 974)" d="m22.5 19h-2.5l-1-1h3.5z" fill="#ba9b48"/>
<circle transform="matrix(1.3333 0 0 1.3333 -2.5 974)" cx="22.5" cy="18.5" r=".5" fill="#ba9b48"/>
<path transform="matrix(1.3333 0 0 1.3333 -2.5 974)" d="m17.5 20h2.5l1-1h-3.5z" fill="#ba9b48"/>
<circle transform="matrix(1.3333 0 0 1.3333 -2.5 974)" cx="17.5" cy="19.5" r=".5" fill="#ba9b48"/>
<path transform="matrix(1.3333 0 0 1.3333 -2.5 974)" d="m22.5 17h-2.5l-1-1h3.5z" fill="#ba9b48"/>
<circle transform="matrix(1.3333 0 0 1.3333 -2.5 974)" cx="22.5" cy="16.5" r=".5" fill="#ba9b48"/>
<path transform="matrix(1.3333 0 0 1.3333 -2.5 974)" d="m17.5 18h2.5l1-1h-3.5z" fill="#ba9b48"/>
<circle transform="matrix(1.3333 0 0 1.3333 -2.5 974)" cx="17.5" cy="17.5" r=".5" fill="#ba9b48"/>
<path transform="matrix(1.3333 0 0 1.3333 -2.5 974)" d="m22.5 15h-2.5l-1-1h3.5z" fill="#ba9b48"/>
<circle transform="matrix(1.3333 0 0 1.3333 -2.5 974)" cx="22.5" cy="14.5" r=".5" fill="#ba9b48"/>
<path transform="matrix(1.3333 0 0 1.3333 -2.5 974)" d="m17.5 16h2.5l1-1h-3.5z" fill="#ba9b48"/>
<circle transform="matrix(1.3333 0 0 1.3333 -2.5 974)" cx="17.5" cy="15.5" r=".5" fill="#ba9b48"/>
<path transform="matrix(1.3333 0 0 1.3333 -2.5 974)" d="m22.5 13h-2.5l-1-1h3.5z" fill="#ba9b48"/>
<circle transform="matrix(1.3333 0 0 1.3333 -2.5 974)" cx="22.5" cy="12.5" r=".5" fill="#ba9b48"/>
<path transform="matrix(1.3333 0 0 1.3333 -2.5 974)" d="m17.5 14h2.5l1-1h-3.5z" fill="#ba9b48"/>
<circle transform="matrix(1.3333 0 0 1.3333 -2.5 974)" cx="17.5" cy="13.5" r=".5" fill="#ba9b48"/>
<path transform="matrix(1.3333 0 0 1.3333 -2.5 974)" d="m22.5 11h-2.5l-1-1h3.5z" fill="#ba9b48"/>
<circle transform="matrix(1.3333 0 0 1.3333 -2.5 974)" cx="22.5" cy="10.5" r=".5" fill="#ba9b48"/>
<path transform="matrix(1.3333 0 0 1.3333 -2.5 974)" d="m17.5 12h2.5l1-1h-3.5z" fill="#ba9b48"/>
<circle transform="matrix(1.3333 0 0 1.3333 -2.5 974)" cx="17.5" cy="11.5" r=".5" fill="#ba9b48"/>
<path transform="matrix(1.3333 0 0 1.3333 -2.5 974)" d="m22.5 9h-2.5l-1-1h3.5z" fill="#ba9b48"/>
<circle transform="matrix(1.3333 0 0 1.3333 -2.5 974)" cx="22.5" cy="8.5" r=".5" fill="#ba9b48"/>
<path transform="matrix(1.3333 0 0 1.3333 -2.5 974)" d="m17.5 10h2.5l1-1h-3.5z" fill="#ba9b48"/>
<circle transform="matrix(1.3333 0 0 1.3333 -2.5 974)" cx="17.5" cy="9.5" r=".5" fill="#ba9b48"/>
<path transform="matrix(1.3333 0 0 1.3333 -2.5 974)" d="m22.5 7h-2.5l-1-1h3.5z" fill="#ba9b48"/>
<circle transform="matrix(1.3333 0 0 1.3333 -2.5 974)" cx="22.5" cy="6.5" r=".5" fill="#ba9b48"/>
<path transform="matrix(1.3333 0 0 1.3333 -2.5 974)" d="m17.5 8h2.5l1-1h-3.5z" fill="#ba9b48"/>
<circle transform="matrix(1.3333 0 0 1.3333 -2.5 974)" cx="17.5" cy="7.5" r=".5" fill="#ba9b48"/>
<path transform="matrix(1.3333 0 0 1.3333 -2.5 974)" d="m22.5 5h-2.5l-1-1h3.5z" fill="#ba9b48"/>
<circle transform="matrix(1.3333 0 0 1.3333 -2.5 974)" cx="22.5" cy="4.5" r=".5" fill="#ba9b48"/>
<path transform="matrix(1.3333 0 0 1.3333 -2.5 974)" d="m17.5 6h2.5l1-1h-3.5z" fill="#ba9b48"/>
<circle transform="matrix(1.3333 0 0 1.3333 -2.5 974)" cx="17.5" cy="5.5" r=".5" fill="#ba9b48"/>
<path transform="matrix(1.3333 0 0 1.3333 -2.5 974)" d="m17.5 4h2.5l1-1h-3.5z" fill="#ba9b48"/>
<g transform="matrix(1.3333 0 0 1.3333 -2.5 974)">
<circle cx="17.5" cy="3.5" r=".5" fill="#ba9b48"/>
</g>
</g>
<g transform="matrix(1.0062 0 0 1.0042 -.25156 1119.8)">
<path d="m6.2 1223.9v-46.7h24.4l11.6 11.6v35z" fill="#fff"/>
<path d="m30.3 1177.9 11.2 11.2v34.1h-34.5v-45.2h23.4m0.6-1.4h-25.5v48h37.5v-36z" fill="#f44336"/>
<g>
<path d="m30.2 1189.2v-12h0.4l11.6 11.6v0.4z" fill="#fde4e3"/>
<path d="m30.9 1178.4 10.1 10.1h-10v-10m0-2h-1.4v13.4h13.4v-1.4z" fill="#f44336"/>
</g>
<g transform="matrix(.95941 0 0 .96491 1.0803 43.499)">
<path d="m10.6 1195.9a3 3 0 0 1 3-3h21a3 3 0 0 1 3.1 3v21a3 3 0 0 1-3 3h-21.1a3 3 0 0 1-3-3z" fill="#f44336"/>
<path d="m12.8 1195.1v22.6h22.6v-22.6zm12.9 7.7h-3.8v2.7h3.4v1.8h-3.4v4.4h-2.2v-10.7h6zm3.1 8.9h-2v-10.7h2z" fill="#210403"/>
</g>
</g>
<g transform="matrix(1.0042 0 0 1.0147 -.20083 1106.5)">
<path d="m22.8 1262.2v-34.7h16.9l8 8.6v26.1z" fill="#fff"/>
<path d="m39.5 1228 7.8 8.3v25.4h-24v-33.7h16.2m0.4-1h-17.6v35.7h26v-26.7z" fill="#4788c7"/>
<path d="m39.4 1236.4v-9h0.3l8 8.7v0.3z" fill="#dff0fe"/>
<path d="m39.9 1228.4 7 7.5h-7v-7.5m0-1.4h-1v10h9.3v-1z" fill="#4788c7"/>
<path d="m12.2 1267.6v-34.8h17l8 8.7v26z" fill="#fff"/>
<path d="m29 1233.3 7.7 8.4v25.4h-24v-33.8h16.3m0.4-1h-17.6v35.7h25.8v-26.7z" fill="#4788c7"/>
<path d="m28.9 1241.8v-9h0.2l8 8.7v0.3z" fill="#dff0fe"/>
<path d="m29.3 1233.7 7 7.6h-7v-7.6m0-1.4h-0.9v10h9.2v-1z" fill="#4788c7"/>
<path d="m0.7 1274v-34.7h16.9l8 8.7v26z" fill="#fff"/>
<path d="m17.4 1239.8 7.7 8.4v25.4h-24v-33.8h16.3m0.4-1h-17.6v35.8h25.9v-26.8z" fill="#4788c7"/>
<path d="m17.3 1248.3v-9h0.3l8 8.7v0.3z" fill="#dff0fe"/>
<path d="m17.8 1240.3 7 7.5h-7v-7.5m0-1.4h-1v9.9h9.3v-1z" fill="#4788c7"/>
</g>
<g id="h" transform="matrix(1.0107 0 0 1.0063 -.27626 1117.2)">
<path transform="matrix(1.3333 0 0 1.3333 -2.5 574)" d="m6.5 37.5v-35h18.3l8.7 8.7v26.3z" fill="#fff"/>
<path transform="matrix(1.3333 0 0 1.3333 -2.5 574)" d="m24.6 3 8.4 8.4v25.6h-26v-34h17.6m0.4-1h-19v36h28v-27z" fill="#4788c7"/>
<path transform="matrix(1.3333 0 0 1.3333 -2.5 574)" d="m24.5 11.5v-9h0.3l8.7 8.7v0.3z" fill="#dff0fe"/>
<path transform="matrix(1.3333 0 0 1.3333 -2.5 574)" d="m25 3.4 7.6 7.6h-7.6v-7.6m0-1.4h-1v10h10v-1z" fill="#4788c7"/>
<path transform="matrix(.74402 0 0 .74402 9.4 593)" d="m2.5 3.5h35v33h-35z" fill="#fff"/>
<path transform="matrix(.74402 0 0 .74402 9.4 593)" d="m37 4v32h-34v-32h34m1-1h-36v34h36z" fill="#4788c7"/>
<path transform="matrix(.74402 0 0 .74402 9.4 593)" d="m3 4h34v5h-34z" fill="#98ccfd"/>
<path transform="matrix(.74402 0 0 .74402 9.4 593)" d="m14.6 24.6c0.5 1.1 1.3 1.9 2.2 1.9 2.1 0 3.2-2 3.2-4.5s-1.2-4.5-3.2-4.5c-1 0-1.7 0.8-2.2 2m10.8 5.1c-0.5 1.1-1.3 1.9-2.2 1.9-2.1 0-3.2-2-3.2-4.5s1.2-4.5 3.2-4.5c1 0 1.7 0.8 2.2 2m3.1 9a20.6 20.6 0 0 0 0-13m-17 0a20.6 20.6 0 0 0 0 13" fill="none" stroke="#4788c7" stroke-linecap="round" stroke-miterlimit="10"/>
</g>
<use transform="translate(0 402.5)" width="100%" height="100%" xlink:href="#q"/>
<use transform="translate(0 50.312)" width="100%" height="100%" xlink:href="#h"/>
<use transform="translate(0 100.62)" width="100%" height="100%" xlink:href="#h"/>
<use transform="translate(0 150.94)" width="100%" height="100%" xlink:href="#h"/>
<use transform="translate(0 201.25)" width="100%" height="100%" xlink:href="#h"/>
<use transform="translate(0 251.56)" width="100%" height="100%" xlink:href="#h"/>
<use transform="translate(0 301.87)" width="100%" height="100%" xlink:href="#h"/>
<use transform="translate(0 50.312)" width="100%" height="100%" xlink:href="#i"/>
<use transform="translate(0 100.62)" width="100%" height="100%" xlink:href="#i"/>
<use transform="translate(0 150.94)" width="100%" height="100%" xlink:href="#i"/>
<use transform="translate(0 1157.2)" width="100%" height="100%" xlink:href="#m"/>
<g id="j" transform="matrix(1.0769 0 0 1.0769 -2.1587 -191.45)">
<use transform="matrix(.92857 0 0 .92857 2.0045 1018.7)" width="100%" height="100%" xlink:href="#l"/>
<rect x="11.348" y="2469.7" width="26.162" height="28.031" fill="#fff"/>
</g>
<g transform="matrix(.86667 0 0 .86667 -55.21 260.77)">
<g transform="matrix(.83854 0 0 .83854 71.444 2545.6)">
<path d="m41 10h-16v28h16c0.553 0 1-0.447 1-1v-26c0-0.553-0.447-1-1-1z" fill="#ff8a65"/>
<g fill="#fbe9e7">
<rect x="24" y="29" width="14" height="2"/>
<rect x="24" y="33" width="14" height="2"/>
<path d="m30 15c-3.313 0-6 2.687-6 6s2.687 6 6 6 6-2.687 6-6h-6z"/>
<path d="m32 13v6h6c0-3.313-2.687-6-6-6z"/>
</g>
<polygon points="27 6 27 42 6 38 6 10" fill="#e64a19"/>
<path d="m16.828 17h-4.828v14h3v-4.823h1.552c1.655 0 2.976-0.436 3.965-1.304 0.988-0.869 1.484-2.007 1.482-3.412 1e-3 -2.974-1.724-4.461-5.171-4.461zm-0.534 6.785h-1.294v-4.364h1.294c1.641 0 2.461 0.72 2.461 2.158 0 1.472-0.82 2.206-2.461 2.206z" fill="#fff"/>
</g>
</g>
<g transform="translate(.025156)">
<use transform="translate(-.025156 50.313)" width="100%" height="100%" fill="none" filter="url(#n)" stroke-width="1.0063" xlink:href="#j"/>
<g transform="matrix(.92857 0 0 .92857 -34.001 187.54)">
<g transform="matrix(.78264 0 0 .78264 43.841 2508.9)">
<path d="m41 10h-16v28h16c0.55469 0 1-0.44531 1-1v-26c0-0.55469-0.44531-1-1-1z" fill="#4caf50"/>
<path d="m32 15h7v3h-7z" fill="#fff"/>
<path d="m32 25h7v3h-7z" fill="#fff"/>
<path d="m32 30h7v3h-7z" fill="#fff"/>
<path d="m32 20h7v3h-7z" fill="#fff"/>
<path d="m25 15h5v3h-5z" fill="#fff"/>
<path d="m25 25h5v3h-5z" fill="#fff"/>
<path d="m25 30h5v3h-5z" fill="#fff"/>
<path d="m25 20h5v3h-5z" fill="#fff"/>
<path d="m27 42-21-4v-28l21-4z" fill="#2e7d32"/>
<path d="m19.129 31-2.4102-4.5625c-0.09375-0.16797-0.1875-0.48047-0.28516-0.9375h-0.03516c-0.04687 0.21484-0.15625 0.54297-0.32422 0.98047l-2.4219 4.5195h-3.7578l4.4609-7-4.082-7h3.8359l2.0039 4.1953c0.15625 0.33203 0.29297 0.72656 0.41797 1.1797h0.03906c0.07813-0.26953 0.22656-0.67969 0.44141-1.2188l2.2266-4.1562h3.5156l-4.1992 6.9375 4.3125 7.0586h-3.7383z" fill="#fff"/>
</g>
</g>
</g>
<use transform="translate(1.9242e-8 100.63)" width="100%" height="100%" filter="url(#o)" xlink:href="#j"/>
<g transform="matrix(.72674 0 0 .72674 6.7083 2567.6)">
<path d="m41 10h-16v28h16c0.55469 0 1-0.44531 1-1v-26c0-0.55469-0.44531-1-1-1z" fill="#2196f3"/>
<path d="m25 15h14v2h-14z" fill="#fff"/>
<path d="m25 19h14v2h-14z" fill="#fff"/>
<path d="m25 23h14v2h-14z" fill="#fff"/>
<path d="m25 27h14v2h-14z" fill="#fff"/>
<path d="m25 31h14v2h-14z" fill="#fff"/>
<path d="m27 42-21-4v-28l21-4z" fill="#0d47a1"/>
<path d="m21.168 31.012h-2.7188l-1.8008-8.9883c-0.09766-0.47656-0.15625-0.99609-0.17578-1.5742h-0.03125c-0.04297 0.63672-0.10938 1.1602-0.19531 1.5742l-1.8516 8.9883h-2.8281l-2.8594-14.016h2.6758l1.5352 9.3281c0.0625 0.40625 0.11328 0.94141 0.14453 1.6094h0.04297c0.01563-0.5 0.09766-1.0508 0.22266-1.6445l1.9688-9.293h2.6211l1.7852 9.4062c0.0625 0.34766 0.12109 0.84375 0.17188 1.5078h0.03125c0.01953-0.51172 0.07031-1.0312 0.16016-1.5625l1.5-9.3516h2.4688z" fill="#fff"/>
</g>
<g transform="matrix(1.0107 0 0 1.0063 -.27626 2073.1)">
<path transform="matrix(1.3333 0 0 1.3333 -2.5 524)" d="m6.5 37.5v-35h18.3l8.7 8.7v26.3z" fill="#fff"/>
<path transform="matrix(1.3333 0 0 1.3333 -2.5 524)" d="m24.6 3 8.4 8.4v25.6h-26v-34h17.6m0.4-1h-19v36h28v-27z" fill="#ff5722"/>
<path transform="matrix(1.3333 0 0 1.3333 -2.5 524)" d="m24.5 11.5v-9h0.3l8.7 8.7v0.3z" fill="#ffe8e1"/>
<path transform="matrix(1.3333 0 0 1.3333 -2.5 524)" d="m25 3.4 7.6 7.6h-7.6v-7.6m0-1.4h-1v10h10v-1z" fill="#ff5722"/>
<g transform="matrix(.71901 0 0 .72222 6.9103 540.33)">
<path d="m6 10c0-2.2109 1.7891-4 4-4h28c2.2109 0 4 1.7891 4 4v28c0 2.2109-1.7891 4-4 4h-28c-2.2109 0-4-1.7891-4-4z" fill="#ff5722"/>
<path d="m9 9v30h30v-30zm14.691 22-0.76172-2.9102h-3.918l-0.75781 2.9102h-3.0391l4.4414-14.219h2.6289l4.4727 14.219zm7.1602 0h-2.7734v-10.566h2.7734zm-0.30078-12.246c-0.26953 0.28125-0.63672 0.42188-1.0977 0.42188-0.46484 0-0.82812-0.14062-1.0977-0.42188-0.27344-0.28125-0.40625-0.63281-0.40625-1.0547 0-0.42969 0.13672-0.78125 0.41016-1.0547 0.27344-0.27344 0.63672-0.41016 1.0938-0.41016 0.45312 0 0.82031 0.13672 1.0938 0.41016 0.27344 0.27344 0.41016 0.625 0.41016 1.0547 0 0.42188-0.13672 0.77344-0.40625 1.0547z" fill="#1c0802"/>
<path d="m19.641 25.695h2.6562l-1.3281-5.0664z" fill="#1c0802"/>
</g>
</g>
</g>
</svg>
