<svg width="64" height="64" viewBox="0 0 48 48" xmlns="http://www.w3.org/2000/svg" overflow="visible"><path d="M36.05 41h-8.6a1.5 1.5 0 0 0-.73-.64v-8.69h-4.88v8.7a1.5 1.5 0 0 0-.73.63h-8.6v4.88h8.45A1.5 1.5 0 0 0 22.4 47h3.75c.7 0 1.28-.48 1.45-1.12h8.44V41z" opacity=".2"/><path d="M35.86 40.82h-8.6a1.5 1.5 0 0 0-.73-.64v-8.7h-4.87v8.7a1.5 1.5 0 0 0-.74.64h-8.6v4.87h8.45a1.5 1.5 0 0 0 1.45 1.13h3.75c.7 0 1.28-.48 1.45-1.13h8.44v-4.87z" opacity=".2"/><path d="M35.67 40.63h-8.6a1.5 1.5 0 0 0-.73-.64V31.3h-4.87v8.69a1.5 1.5 0 0 0-.74.64h-8.59v4.87h8.44a1.5 1.5 0 0 0 1.45 1.13h3.75c.7 0 1.29-.48 1.45-1.13h8.44v-4.87z" opacity=".2"/><path fill="#616161" d="M34.81 40.44H11.95v4.88H35.5v-4.88z"/><linearGradient id="a" gradientUnits="userSpaceOnUse" x1="23.72" y1="41.11" x2="23.72" y2="44.64"><stop offset="0" stop-color="#cecedb"/><stop offset=".19" stop-color="#fff"/><stop offset=".48" stop-color="#cecedb"/><stop offset=".75" stop-color="#b3b3c6"/><stop offset=".99" stop-color="#828282"/></linearGradient><path fill="url(#a)" d="M12.62 41.11h22.2v3.53h-22.2z"/><path fill="#616161" d="M21.28 31.48v12.48h4.88V31.1h-4.88z"/><linearGradient id="b" gradientUnits="userSpaceOnUse" x1="291.57" y1="864.85" x2="291.57" y2="868.38" gradientTransform="rotate(-90 -256.9 586)"><stop offset="0" stop-color="#cecedb"/><stop offset=".19" stop-color="#fff"/><stop offset=".48" stop-color="#cecedb"/><stop offset=".75" stop-color="#b3b3c6"/><stop offset=".99" stop-color="#828282"/></linearGradient><path fill="url(#b)" d="M21.95 31.48h3.53v12.11h-3.53z"/><linearGradient id="c" gradientUnits="userSpaceOnUse" x1="23.72" y1="46.44" x2="23.72" y2="39.69"><stop offset="0" stop-color="#cf0000"/><stop offset=".99" stop-color="#ff6d00"/></linearGradient><path d="M27.1 44.94c0 .83-.68 1.5-1.5 1.5h-3.76a1.5 1.5 0 0 1-1.5-1.5V41.2c0-.83.68-1.5 1.5-1.5h3.75c.83 0 1.5.67 1.5 1.5v3.75z" fill="url(#c)"/><linearGradient id="d" gradientUnits="userSpaceOnUse" x1="23.72" y1="37.07" x2="23.72" y2="49.63"><stop offset="0" stop-color="#fff030"/><stop offset=".99" stop-color="#ffae00"/></linearGradient><path d="M21.84 40.44a.75.75 0 0 0-.75.75v3.75c0 .42.34.75.75.75h3.75c.42 0 .75-.33.75-.75V41.2a.75.75 0 0 0-.75-.75h-3.75z" fill="url(#d)"/><linearGradient id="e" gradientUnits="userSpaceOnUse" x1="23.72" y1="41" x2="23.72" y2="43.82"><stop offset="0" stop-color="#fff"/><stop offset=".5" stop-color="#ffe3a9"/><stop offset=".99" stop-color="#ffc957"/></linearGradient><path d="M21.84 41c-.1 0-.18.09-.18.2v3.74c0 .1.08.19.18.19h3.75c.1 0 .2-.08.2-.19V41.2c0-.1-.1-.19-.2-.19h-3.75z" fill="url(#e)"/><path d="M25.25 1.28L12.14 9.87l-.04.02-.05.04-.04.03-.17.2-.02.04-.04.08-.02.04-.03.09-.02.04-.02.08v.05l-.02.1V33.51c0 .44.29.83.7.97l9.77 3.26c.32.1.67.05.94-.15l13.02-9.77c.26-.2.41-.5.41-.82V4.22v-.05-.07l-.01-.06V4l-.02-.03-.02-.08-.02-.06-.04-.07-.03-.06-.04-.07-.04-.05-.04-.05-.02-.02-.03-.04-.05-.04-.06-.05-.06-.03-.07-.05-.07-.03-.06-.02a7 7 0 0 0-.08-.03l-.05-.01-9.67-2.08c-.27-.06-.55 0-.78.15zm-13.56 9.25" opacity=".2"/><path d="M36.14 4.2v-.05l-.01-.05v-.02l-.01-.02a.87.87 0 0 0-.05-.13l-.02-.04-.03-.04L36 3.8l-.03-.03-.03-.03-.04-.03-.03-.03a.83.83 0 0 0-.04-.03l-.04-.02h-.01l-.03-.02-.05-.02-.05-.01-.03-.01-9.67-2.08a.66.66 0 0 0-.5.1l-13.1 8.58h-.01l-.02.02-.03.02-.02.02a.71.71 0 0 0-.11.13l-.02.02c0 .02-.02.04-.03.05v.03l-.03.05v.03l-.02.06v.03l-.01.06V33.5c0 .28.18.53.45.62l9.76 3.25c.2.07.43.04.6-.1l13.02-9.76a.66.66 0 0 0 .26-.52V4.22 4.2z" opacity=".2"/><path d="M25.06 1.09l-13.1 8.59-.05.02-.05.04-.03.03-.18.2-.02.04-.04.08-.02.04-.03.09-.01.04-.03.09v.05l-.01.1v22.82c0 .44.28.83.7.98l9.76 3.25c.32.1.68.05.95-.15l13.02-9.77c.25-.19.4-.5.4-.82V4.03v-.05-.06l-.01-.07V3.8l-.02-.03-.02-.08-.02-.06-.03-.07-.03-.06-.05-.06-.04-.06-.04-.05-.01-.01-.04-.04-.05-.05-.06-.04-.06-.04-.07-.04-.06-.03-.07-.03a7 7 0 0 0-.08-.02l-.05-.02L25.84.94c-.27-.05-.55 0-.78.15zm-13.55 9.26" opacity=".2"/><path d="M35.95 4v-.04l-.01-.05V3.9l-.01-.02-.01-.05-.02-.04a.34.34 0 0 0-.02-.04l-.02-.04-.03-.04-.02-.04-.03-.03-.03-.03-.04-.03-.03-.03a.83.83 0 0 0-.12-.07l-.04-.02-.05-.01-.03-.01-9.68-2.08a.66.66 0 0 0-.5.1l-13.1 8.58h-.01l-.02.02-.03.02-.02.02a.71.71 0 0 0-.11.13l-.02.02-.02.05-.02.03-.02.05v.03l-.02.06v.09l-.01.02v22.79c0 .28.18.53.45.62l9.76 3.25c.2.07.43.04.6-.1l13.02-9.76a.66.66 0 0 0 .26-.52V4.03v-.02z" opacity=".2"/><linearGradient id="f" gradientUnits="userSpaceOnUse" x1="32.27" y1="26.92" x2="14.03" y2="8.67"><stop offset="0" stop-color="#585868"/><stop offset="1" stop-color="#494949"/></linearGradient><path d="M24.87.77l-13.1 8.6-.05.02-.05.04-.03.03-.17.2-.03.04-.04.08-.02.04-.03.08-.01.04-.02.1-.01.04-.01.1V33.01c0 .44.28.83.7.97l9.77 3.26c.32.1.67.05.94-.15l13.02-9.77c.26-.2.41-.5.41-.82V3.7v-.04-.07l-.02-.07V3.5l-.01-.04-.03-.07-.02-.06A14.21 14.21 0 0 0 36 3.2l-.04-.07-.04-.05-.04-.05-.02-.02-.04-.04-.05-.04-.06-.05-.06-.04-.07-.04-.06-.03-.07-.03-.07-.02-.06-.01L25.65.63c-.27-.06-.55 0-.78.14zm-13.55 9.26" fill="url(#f)"/><linearGradient id="g" gradientUnits="userSpaceOnUse" x1="15.17" y1="9.81" x2="33.41" y2="28.05"><stop offset="0" stop-color="#7d7d99"/><stop offset="1" stop-color="#494949"/></linearGradient><path d="M35.76 3.7v-.05-.05l-.01-.02v-.02l-.02-.05-.02-.04a.34.34 0 0 0-.02-.05l-.02-.03-.02-.04-.03-.04-.03-.03c0-.02-.02-.03-.03-.04a1.09 1.09 0 0 0-.03-.03l-.04-.02-.04-.03-.04-.02-.04-.02-.04-.02-.05-.01-.03-.01L25.57 1a.66.66 0 0 0-.5.09l-13.1 8.59h-.01l-.02.01-.03.03-.02.02a.71.71 0 0 0-.11.13l-.01.02-.03.05-.02.03-.01.05-.01.03-.02.05V33c0 .29.17.54.44.63l9.76 3.25c.2.07.43.03.6-.1l13.02-9.76a.66.66 0 0 0 .26-.52V3.7 3.7z" fill="url(#g)"/><radialGradient id="h" cx="105.2" cy="47.28" r="139.09" fx="105.2" fy="47.28" gradientTransform="translate(19.5 19.5) scale(.1875)" gradientUnits="userSpaceOnUse"><stop offset="0" stop-color="#fff"/><stop offset=".28" stop-color="#cecedb"/><stop offset=".64" stop-color="#bdbdcf"/><stop offset="1" stop-color="#9a9ab1"/></radialGradient><path fill="url(#h)" d="M12.33 10.22l9.76 3.26L35.11 3.7V26.5l-13.02 9.76-9.76-3.25z"/><linearGradient id="i" gradientUnits="userSpaceOnUse" x1="23.72" y1="13.22" x2="23.72" y2="3.36"><stop offset="0" stop-color="#cecedb"/><stop offset="1" stop-color="#eee"/></linearGradient><path fill="url(#i)" d="M25.44 1.64l-13.11 8.58 9.76 3.26L35.11 3.7z"/><linearGradient id="j" gradientUnits="userSpaceOnUse" x1="15.04" y1="16.69" x2="22.17" y2="38.24"><stop offset="0" stop-color="#fff"/><stop offset="1" stop-color="#cecedb"/></linearGradient><path fill="url(#j)" d="M12.33 33l9.76 3.26V13.48l-9.76-3.26z"/><linearGradient id="k" gradientUnits="userSpaceOnUse" x1="16.64" y1="35.2" x2="17.78" y2="28.48"><stop offset="0" stop-color="#fff"/><stop offset="1" stop-color="#bdbdcf"/></linearGradient><path fill="url(#k)" d="M12.33 27.4V33l9.76 3.26V30.5z"/><linearGradient id="l" gradientUnits="userSpaceOnUse" x1="13.81" y1="16.36" x2="20.09" y2="16.36"><stop offset="0" stop-color="#7d7d99"/><stop offset="1" stop-color="#cecedb"/></linearGradient><path fill="url(#l)" d="M13.8 16.16l6.3 2.1v-1.71l-6.3-2.1z"/><linearGradient id="m" gradientUnits="userSpaceOnUse" x1="13.81" y1="18.78" x2="20.09" y2="18.78"><stop offset="0" stop-color="#7d7d99"/><stop offset="1" stop-color="#cecedb"/></linearGradient><path fill="url(#m)" d="M13.8 18.6l6.3 2.09v-1.72l-6.3-2.1z"/><linearGradient id="n" gradientUnits="userSpaceOnUse" x1="14.63" y1="18.9" x2="18.67" y2="22.93"><stop offset="0" stop-color="#7d7d99"/><stop offset="1" stop-color="#cecedb"/></linearGradient><path fill="url(#n)" d="M13.8 21.02l6.3 2.1V21.4l-6.3-2.1z"/><linearGradient id="o" gradientUnits="userSpaceOnUse" x1="271.32" y1="478.92" x2="271.32" y2="477.59" gradientTransform="matrix(.9659 .2588 0 1.0353 -242.05 -531.04)"><stop offset=".01" stop-color="#fff"/><stop offset="1" stop-color="#b6b6b6"/></linearGradient><path d="M19.78 33.41c-.46-.12-.81.1-.81.5s.35.8.8.93l.49.13c.45.12.8-.1.8-.5s-.35-.8-.8-.93l-.48-.13z" fill="url(#o)"/><linearGradient id="p" gradientUnits="userSpaceOnUse" x1="271.32" y1="478.86" x2="271.32" y2="477.72" gradientTransform="matrix(.9659 .2588 0 1.0353 -242.05 -531.04)"><stop offset=".01" stop-color="#b6b6b6"/><stop offset=".37" stop-color="#9d9d9d"/><stop offset=".74" stop-color="#898989"/><stop offset="1" stop-color="#828282"/></linearGradient><path d="M19.78 33.6c-.35-.1-.63.07-.63.36s.28.6.63.69l.48.13c.34.09.63-.07.63-.36s-.29-.6-.63-.69l-.48-.13z" fill="url(#p)"/><linearGradient id="q" gradientUnits="userSpaceOnUse" x1="-890.74" y1="529.26" x2="-890.74" y2="528.08" gradientTransform="matrix(-.9659 -.2588 0 .7765 -840.35 -606.85)"><stop offset=".01" stop-color="#9f6"/><stop offset=".24" stop-color="#68de56"/><stop offset=".48" stop-color="#3bc147"/><stop offset=".7" stop-color="#1bab3c"/><stop offset=".88" stop-color="#079e35"/><stop offset="1" stop-color="#093"/></linearGradient><path d="M20.83 34.4c0 .26-.26.4-.57.31l-.48-.13c-.32-.08-.57-.35-.57-.6 0-.26.25-.4.57-.31l.48.12c.31.09.57.36.57.62z" fill="url(#q)"/><linearGradient id="r" gradientUnits="userSpaceOnUse" x1="271.31" y1="478.52" x2="271.34" y2="477.65" gradientTransform="matrix(.9659 .2588 0 1.0353 -242.05 -531.04)"><stop offset=".01" stop-color="#3c3"/><stop offset=".36" stop-color="#1bb433"/><stop offset=".74" stop-color="#07a033"/><stop offset="1" stop-color="#093"/></linearGradient><path d="M19.78 33.8c-.25-.07-.46.03-.46.22s.21.4.46.47l.48.13c.24.06.45-.04.45-.23s-.2-.4-.45-.47l-.48-.13z" fill="url(#r)"/><linearGradient id="s" gradientUnits="userSpaceOnUse" x1="271.32" y1="477.78" x2="271.32" y2="478.35" gradientTransform="matrix(.9659 .2588 0 1.0353 -242.05 -531.04)"><stop offset="0" stop-color="#fff"/><stop offset=".09" stop-color="#e8f7d6"/><stop offset=".23" stop-color="#c8ed9e"/><stop offset=".36" stop-color="#ade46d"/><stop offset=".5" stop-color="#97dc46"/><stop offset=".63" stop-color="#85d627"/><stop offset=".76" stop-color="#79d212"/><stop offset=".89" stop-color="#72d004"/><stop offset="1" stop-color="#6fcf00"/></linearGradient><path d="M19.76 33.71c-.2-.05-.36.04-.36.15s.16.3.36.35l.52.14c.2.05.35-.04.35-.15s-.15-.3-.35-.35l-.52-.14z" fill="url(#s)"/><path fill="none" d="M0 48V0h48v48"/></svg>