<svg width="64" height="64" viewBox="0 0 48 48" xmlns="http://www.w3.org/2000/svg" xmlns:xlink="http://www.w3.org/1999/xlink" overflow="visible"><defs><linearGradient id="b" gradientUnits="userSpaceOnUse" x1="24" y1="39.07" x2="24" y2="8.93"><stop offset="0" stop-color="#7d7d99"/><stop offset="1" stop-color="#585868"/></linearGradient><linearGradient id="c" gradientUnits="userSpaceOnUse" x1="24" y1="41.44" x2="24" y2="6.56"><stop offset="0" stop-color="#cecedb"/><stop offset=".58" stop-color="#b1b1c5"/><stop offset="1" stop-color="#9a9ab1"/></linearGradient><linearGradient id="a" gradientUnits="userSpaceOnUse" x1="42.8" y1="3.42" x2="18.71" y2="27.51"><stop offset="0" stop-color="#fff"/><stop offset=".07" stop-color="#f5f5f7"/><stop offset=".31" stop-color="#d7d7e1"/><stop offset=".55" stop-color="#c2c2d2"/><stop offset=".78" stop-color="#b5b5c8"/><stop offset="1" stop-color="#b1b1c5"/></linearGradient><linearGradient id="e" gradientUnits="userSpaceOnUse" x1="4.39" y1="28.4" x2="43.61" y2="28.4"><stop offset="0" stop-color="#9a9ab1"/><stop offset=".26" stop-color="#7d7d99"/><stop offset="1" stop-color="#585868"/></linearGradient><linearGradient id="f" gradientUnits="userSpaceOnUse" x1="4.39" y1="28.4" x2="43.61" y2="28.4"><stop offset="0" stop-color="#fff"/><stop offset="1" stop-color="#ccc"/></linearGradient><linearGradient id="g" gradientUnits="userSpaceOnUse" x1="24" y1="28.28" x2="24" y2="38.75"><stop offset="0" stop-color="#fff"/><stop offset="1" stop-color="#ccc"/></linearGradient><linearGradient id="h" gradientUnits="userSpaceOnUse" x1="24" y1="38.25" x2="24" y2="27.38"><stop offset="0" stop-color="#fff"/><stop offset="1" stop-color="#ccc"/></linearGradient><linearGradient id="i" gradientUnits="userSpaceOnUse" x1="39.51" y1="37.32" x2="39.51" y2="35.18"><stop offset=".01" stop-color="#fff"/><stop offset="1" stop-color="#b6b6b6"/></linearGradient><linearGradient id="j" gradientUnits="userSpaceOnUse" x1="39.51" y1="37.22" x2="39.51" y2="35.38"><stop offset=".01" stop-color="#b6b6b6"/><stop offset=".37" stop-color="#9d9d9d"/><stop offset=".74" stop-color="#898989"/><stop offset="1" stop-color="#828282"/></linearGradient><linearGradient id="k" gradientUnits="userSpaceOnUse" x1="-323.35" y1="37.99" x2="-323.35" y2="36.08" gradientTransform="matrix(-1 0 0 .75 -283.84 8.29)"><stop offset=".01" stop-color="#9f6"/><stop offset=".24" stop-color="#68de56"/><stop offset=".48" stop-color="#3bc147"/><stop offset=".7" stop-color="#1bab3c"/><stop offset=".88" stop-color="#079e35"/><stop offset="1" stop-color="#093"/></linearGradient><linearGradient id="l" gradientUnits="userSpaceOnUse" x1="39.49" y1="36.68" x2="39.54" y2="35.27"><stop offset=".01" stop-color="#3c3"/><stop offset=".36" stop-color="#1bb433"/><stop offset=".74" stop-color="#07a033"/><stop offset="1" stop-color="#093"/></linearGradient><linearGradient id="m" gradientUnits="userSpaceOnUse" x1="39.51" y1="35.48" x2="39.51" y2="36.4"><stop offset="0" stop-color="#fff"/><stop offset=".09" stop-color="#e8f7d6"/><stop offset=".23" stop-color="#c8ed9e"/><stop offset=".36" stop-color="#ade46d"/><stop offset=".5" stop-color="#97dc46"/><stop offset=".63" stop-color="#85d627"/><stop offset=".76" stop-color="#79d212"/><stop offset=".89" stop-color="#72d004"/><stop offset="1" stop-color="#6fcf00"/></linearGradient><linearGradient id="n" gradientUnits="userSpaceOnUse" x1="8.18" y1="35.36" x2="20.94" y2="35.36"><stop offset="0" stop-color="#dfdfdf"/><stop offset="1" stop-color="#a2a2a2"/></linearGradient><linearGradient id="o" gradientUnits="userSpaceOnUse" x1="14.56" y1="33.7" x2="14.56" y2="37.03"><stop offset="0" stop-color="#828282"/><stop offset="1" stop-color="#a2a2a2"/></linearGradient><linearGradient xlink:href="#a" id="d" x1="41.87" y1="9.41" x2="5.74" y2="29.21" gradientUnits="userSpaceOnUse"/></defs><path d="M10.39 9a2.85 2.85 0 0 0-2.85 2.6l.03-.17-.1.5.04-.18-.09.49.03-.17-.09.49.03-.17-.09.48.03-.16-.09.48.03-.16-.08.48.03-.17-.1.49.04-.17-.1.48.04-.16-.09.48.03-.16-.09.48.03-.17-.09.49.03-.17-.09.48.03-.16-.08.48.03-.16-.1.48.04-.16-.09.48.03-.16-.09.48.03-.16-.09.47.03-.16-.09.48.03-.16-.08.48.02-.16-.08.48.03-.16-.09.47.03-.15-.09.47.03-.16-.09.48.03-.16-.08.48.02-.16-.08.48.03-.16-.09.47.03-.15-.09.47.03-.15-.09.47.03-.16-.09.47.03-.15-.08.47.02-.15-.08.47.02-.15-.08.47.03-.15-.09.47.03-.16-.09.47.03-.15-.09.47.03-.15-.08.47.02-.15-.08.47.02-.15-.08.46.02-.14-.08.46.03-.15-.09.47.03-.15-.09.47.03-.15-.08.47.02-.15-.08.46.02-.14-.08.46.03-.14-.09.46.03-.14-.09.46.03-.15-.09.47.03-.15-.08.47.02-.15-.08.46.02-.14-.08.46.03-.14-.09.46.03-.15-.09.46.02-.14-.08.46.03-.14-.09.46.03-.15-.08.46.02-.14-.08.46.02-.14-.08.46.02-.14-.08.46.02-.14-.08.45.03-.14-.09.46.03-.14c-.07.27-.1.54-.1.8v5.9a3.28 3.28 0 0 0 3.28 3.28h34.65a3.28 3.28 0 0 0 3.28-3.28v-5.9c0-.27-.04-.53-.1-.8l.02.14-.08-.46.02.14-.08-.45.02.14-.08-.46.02.14-.08-.46.02.14-.08-.46.02.15-.08-.46-.06-.32.03.14-.09-.46.03.15-.08-.47.02.15-.08-.47.02.15-.08-.46.02.14-.08-.46.02.15-.08-.47.02.14-.08-.46.03.15-.09-.46.03.14-.09-.46.03.14-.09-.46.03.15-.08-.47.02.15-.08-.47.02.15-.08-.47.02.15-.08-.47.02.16-.08-.47.03.14-.09-.46.03.15-.09-.47.03.15-.09-.47.03.15-.09-.47.03.16-.09-.48.03.16-.08-.47.02.15-.08-.47.02.15-.08-.47.03.15-.09-.47.03.16-.09-.48.03.16-.09-.48.03.16-.09-.47.03.15-.09-.47.03.16-.08-.48.02.15-.08-.47.02.16-.08-.48.03.16-.09-.48.03.16-.09-.48.03.17-.07-.48.03.16-.09-.48.03.16-.09-.48.03.16-.09-.48.03.17-.09-.48.03.16-.08-.48.02.16-.08-.48.02.16-.08-.48.03.17-.1-.48.04.16-.09-.48.03.16-.09-.48.03.16-.09-.48.03.16-.09-.48.03.17-.09-.49.03.17-.08-.48.02.17-.08-.5.03.18-.1-.49.04.17-.1-.49.04.17-.09-.49.03.17-.09-.49.03.18A2.84 2.84 0 0 0 38.74 9H10.38z" font-size="12" opacity=".2"/><path d="M10.2 8.63a2.85 2.85 0 0 0-2.85 2.6l.03-.17-.09.49.03-.18-.09.5.03-.18-.09.49.03-.17-.08.49.03-.17-.1.49.04-.17-.1.48.04-.16-.1.48.04-.16-.09.48.03-.17-.09.49.03-.17-.08.48.02-.16-.08.48.03-.16-.1.48.04-.17-.09.48.03-.16-.09.48.03-.16-.09.48.03-.16-.08.48.02-.16-.08.47.03-.16-.1.48.04-.16-.09.48.03-.16-.09.48.03-.16-.09.47.03-.15-.09.47.03-.15-.08.47.02-.16-.08.48.03-.16-.09.48.03-.16-.09.47.03-.15-.09.47.03-.15-.08.47.02-.16-.08.48.03-.16-.09.47.03-.15-.09.47.03-.15-.09.47.03-.15-.08.47.02-.15-.08.47.02-.16-.08.47.03-.15-.09.47.03-.15-.1.47.03-.15-.08.47.03-.15-.09.47.03-.15-.09.47.03-.15-.08.46.02-.15-.08.47.02-.15-.08.47.03-.15-.09.46.03-.14-.09.46.03-.14-.09.46.03-.15-.09.47.03-.15-.08.47.02-.15-.08.46.02-.14-.08.46.02-.14-.08.46.03-.14-.09.46.03-.15-.09.46.03-.14-.08.46.02-.14-.08.46.02-.14-.08.46.03-.14-.09.45.03-.14-.09.46.03-.14-.09.46.03-.14-.08.45.02-.13c-.07.26-.1.53-.1.8v5.9a3.28 3.28 0 0 0 3.28 3.27H41.7a3.28 3.28 0 0 0 3.28-3.28v-5.9c0-.26-.04-.53-.1-.8l.02.15-.08-.46.02.14-.08-.46.02.14-.08-.46.02.14-.08-.45.02.14-.08-.46.03.14-.09-.46-.06-.32.03.14-.09-.46.03.15-.08-.46.02.14-.08-.46.02.14-.08-.46.02.15-.08-.46.02.14-.08-.46.03.14-.09-.46.03.14-.09-.46.03.15-.09-.47.03.15-.08-.47.02.15-.08-.47.02.15-.08-.46.02.14-.08-.46.02.15-.08-.47.03.15-.09-.47.03.15-.09-.46.03.14-.09-.46.03.15-.09-.47.03.15-.08-.47.02.15-.07-.47.03.15-.09-.47.03.15-.09-.47.03.15-.09-.47.03.16-.09-.48.03.16-.08-.48.02.16-.08-.47.03.16-.09-.48.03.16-.09-.48.03.16-.09-.47.03.15-.09-.48.03.16-.09-.48.03.17-.08-.48.02.16-.08-.48.03.16-.1-.48.04.16-.09-.47.03.15-.09-.47.03.15-.09-.47.03.16-.09-.48.03.16-.09-.48.03.16-.09-.48.03.17-.08-.48.02.16-.08-.48.03.16-.1-.48.04.17-.1-.49.04.17-.09-.48.03.16-.09-.48.03.16-.09-.48.03.17-.09-.49.03.17-.09-.49.03.17-.08-.49.03.17-.1-.48.04.17-.1-.5.04.18-.1-.5.04.18a2.85 2.85 0 0 0-2.85-2.6H10.2z" font-size="12" opacity=".2"/><path d="M9.83 8.25a2.85 2.85 0 0 0-2.86 2.6l.03-.17-.08.5.03-.18-.1.49.04-.17-.1.48.04-.16-.09.48.03-.16-.09.48.03-.16-.09.48.03-.17-.09.49.03-.17-.08.48.03-.16-.1.48.04-.17-.09.49.03-.16-.09.48.03-.17-.09.48.03-.16-.08.48.02-.16-.08.48.03-.16-.1.47.04-.16-.09.49.03-.16-.09.47.03-.16-.09.48.03-.16-.08.48.02-.16-.08.48.02-.16-.08.47.03-.15-.09.47.03-.16-.09.48.03-.16-.09.48.03-.16-.08.48.02-.16-.08.47.02-.15-.08.47.03-.15-.09.47.03-.16-.09.47.03-.15-.08.47.02-.15-.08.47.02-.15-.08.47.03-.15-.09.47.03-.15-.09.47.03-.16-.09.47.03-.15-.08.47.02-.15-.08.47.02-.15-.08.47.02-.15-.08.46.03-.14-.09.46.03-.15-.09.47.03-.15-.09.46.03-.14-.09.46.03-.14-.08.46.02-.15-.08.47.02-.15-.08.47.02-.15-.08.47.03-.15-.09.46.03-.14-.09.46.03-.14-.08.46.02-.15-.08.47.02-.15-.08.46.02-.14-.08.46.02-.14-.08.46.03-.15-.09.46.03-.14-.08.46.02-.14-.08.46.02-.14-.08.46.02-.15-.08.46.02-.14-.08.46.02-.14c-.06.27-.1.54-.1.8v5.9a3.28 3.28 0 0 0 3.29 3.28h34.64a3.28 3.28 0 0 0 3.28-3.28v-5.9c0-.27-.03-.53-.1-.8l.03.14-.09-.46.03.14-.09-.45.03.14-.09-.46.03.14-.08-.46.02.14-.08-.46.02.15-.08-.46-.06-.32.02.14-.08-.46.03.15-.09-.47.03.15-.09-.47.03.15-.09-.46.03.14-.08-.46.02.15-.08-.47.02.14-.08-.46.02.15-.08-.46.02.14-.08-.46.03.14-.09-.46.03.15-.09-.47.03.15-.09-.47.03.15-.08-.46.02.15-.09-.48.03.16-.08-.47.02.14-.08-.46.02.15-.08-.47.03.15-.09-.47.03.15-.09-.46.03.15-.09-.48.03.16-.09-.47.03.15-.08-.47.02.15-.08-.47.02.15-.08-.47.02.16-.08-.48.03.16-.09-.47.03.15-.09-.47.03.15-.09-.47.03.16-.07-.48.03.15-.09-.47.03.16-.09-.48.03.17-.09-.48.03.15-.09-.47.03.16-.09-.48.03.16-.08-.48.02.16-.08-.48.02.16-.08-.48.03.17-.1-.48.04.16-.09-.48.03.16-.09-.48.03.16-.09-.48.03.17-.09-.48.03.16-.09-.48.03.16-.09-.48.03.16-.08-.48.03.16-.1-.48.04.17-.1-.49.04.17-.09-.48.03.17-.09-.5.03.18-.09-.49.03.17-.09-.49.03.17-.08-.49.03.17-.09-.49.04.17a2.85 2.85 0 0 0-2.86-2.6H9.83z" font-size="12" fill="url(#b)"/><path d="M43.54 30.01a2.3 2.3 0 0 0-.06-.31c-.01-.11-.03-.22-.06-.32-.01-.1-.03-.22-.06-.32a2.2 2.2 0 0 0-.06-.32c0-.1-.03-.2-.06-.31 0-.11-.03-.22-.06-.32 0-.1-.03-.21-.05-.32l-.06-.32-.06-.31c-.01-.11-.03-.22-.06-.32l-.06-.32-.06-.32-.06-.31a2.2 2.2 0 0 0-.06-.32c0-.1-.03-.21-.05-.32l-.06-.32-.06-.31c-.01-.11-.03-.22-.06-.32l-.06-.32a2.1 2.1 0 0 0-.06-.32c0-.1-.03-.2-.06-.31 0-.11-.03-.22-.06-.32 0-.11-.03-.22-.05-.32l-.06-.32-.06-.31c-.01-.11-.03-.22-.06-.32-.01-.11-.03-.22-.06-.32l-.06-.32a2 2 0 0 0-.06-.32c0-.1-.03-.2-.06-.31 0-.11-.03-.22-.06-.32 0-.1-.03-.21-.05-.32l-.06-.32-.06-.31c-.01-.11-.03-.22-.06-.32-.01-.11-.03-.22-.06-.32a2 2 0 0 0-.06-.32c0-.1-.03-.21-.06-.32 0-.1-.03-.21-.06-.31 0-.11-.03-.22-.05-.32-.01-.11-.04-.22-.06-.32l-.06-.32-.06-.32-.06-.31c-.01-.11-.03-.22-.06-.32 0-.1-.03-.21-.06-.32 0-.1-.03-.21-.06-.32 0-.1-.03-.21-.05-.31-.01-.11-.04-.22-.06-.32-.01-.11-.03-.22-.06-.32l-.06-.32-.06-.32c-.01-.1-.03-.21-.06-.31 0-.11-.03-.22-.06-.32 0-.11-.03-.22-.06-.32 0-.1-.03-.21-.05-.32l-.06-.32c-.01-.1-.03-.21-.06-.31-.01-.11-.03-.22-.06-.32-.01-.11-.03-.22-.06-.32a1.87 1.87 0 0 0-1.86-1.7H9.83c-.98 0-1.78.75-1.86 1.7-.03.1-.05.2-.06.32-.03.1-.05.2-.06.32-.03.1-.05.2-.06.31-.03.1-.05.2-.06.31-.03.1-.05.21-.06.32l-.05.32c-.03.1-.05.2-.06.32-.03.1-.05.2-.06.32-.03.1-.05.2-.06.31-.03.1-.05.21-.06.32-.03.1-.05.21-.06.32-.03.1-.05.2-.06.32l-.05.32c-.03.1-.05.2-.06.31-.03.1-.05.21-.06.32-.03.1-.05.21-.06.32-.03.1-.05.2-.06.32-.03.1-.05.2-.06.31-.03.1-.05.21-.06.32l-.05.32c-.03.1-.05.21-.06.32-.03.1-.05.2-.06.32-.02.1-.05.2-.06.31l-.06.32-.05.32c-.03.1-.05.2-.06.32-.03.1-.05.2-.06.32-.03.1-.05.2-.06.31-.03.1-.05.21-.06.32-.02.1-.05.2-.06.32l-.06.32-.05.31c-.03.1-.05.21-.06.32-.03.1-.05.21-.06.32-.03.1-.05.2-.06.32-.03.1-.05.2-.06.31-.02.1-.05.21-.06.32l-.06.32-.05.32c-.03.1-.05.2-.06.32-.03.1-.05.2-.06.32-.02.1-.05.2-.06.31-.02.1-.05.21-.06.32l-.05.32c-.03.1-.05.2-.06.32-.03.1-.05.2-.06.31-.03.1-.05.21-.06.32-.03.1-.05.21-.06.32-.02.1-.05.2-.06.32l-.06.31-.06.32-.05.32c-.03.1-.05.2-.06.31-.03.1-.05.21-.06.32-.03.1-.05.21-.06.32-.02.1-.05.21-.06.32l-.06.31-.05.32c-.03.1-.05.21-.06.32-.03.1-.05.2-.06.32a2.3 2.3 0 0 0-.07.55v5.9a2.28 2.28 0 0 0 2.28 2.29h34.65a2.28 2.28 0 0 0 2.28-2.29v-5.9c0-.18-.02-.37-.06-.55z" font-size="12" fill="url(#c)"/><path d="M11.98 9.25L5.42 29.69c12.48-1.5 24.63-1.5 36.93-.83L36.03 9.25H11.98z" font-size="12" fill="url(#d)"/><path d="M4.75 28.63l-.05.31c-.03.1-.05.21-.06.32-.03.1-.05.2-.06.32-.03.1-.05.2-.06.31-.02.1-.05.21-.06.32a2.3 2.3 0 0 0-.07.56v2.42c.43.4 1 .64 1.63.64h35.96c.63 0 1.2-.24 1.63-.64v-2.42c0-.2-.03-.38-.07-.56a2.3 2.3 0 0 0-.06-.32c-.01-.1-.03-.21-.06-.31-.01-.11-.03-.22-.06-.32a2.2 2.2 0 0 0-.06-.32c0-.1-.03-.21-.06-.32 0-.1-.03-.21-.06-.31 0-.11-.03-.22-.05-.32l-.06-.32-.06-.32c-.01-.1-.03-.21-.06-.31-.01-.11-.03-.22-.06-.32-.01-.1-.03-.22-.06-.32l-.06-.32a2.2 2.2 0 0 0-.06-.31c0-.11-.03-.22-.05-.32a2.1 2.1 0 0 0-.06-.32l-.06-.32-.06-.31a2.1 2.1 0 0 0-.06-.32c-.01-.11-.03-.22-.06-.32 0-.1-.03-.21-.06-.32 0-.1-.03-.21-.06-.31 0-.09-.02-.17-.04-.25H5.8a2.1 2.1 0 0 0-.04.25c-.03.1-.05.2-.06.31-.03.1-.05.21-.06.32-.03.1-.05.21-.06.32-.02.1-.05.2-.06.32-.02.1-.05.2-.06.31l-.05.32c-.03.1-.05.21-.06.32-.03.1-.05.2-.06.32-.03.1-.05.2-.06.31-.03.1-.05.21-.06.32-.02.1-.05.21-.06.32l-.06.32-.06.31-.05.32c-.03.1-.05.21-.06.32-.03.1-.05.2-.06.32l-.05.31z" font-size="12" fill="url(#e)"/><path d="M43.48 29.7c-.01-.11-.03-.22-.06-.32-.01-.11-.03-.22-.06-.32a2.2 2.2 0 0 0-.06-.32c0-.1-.03-.21-.06-.31 0-.11-.03-.22-.05-.32l-.06-.32-.06-.32c-.01-.1-.03-.21-.06-.31-.01-.11-.03-.22-.06-.32-.01-.11-.03-.22-.06-.32l-.06-.32c0-.1-.03-.21-.06-.31a2.2 2.2 0 0 0-.05-.32l-.06-.32-.06-.32c-.01-.1-.03-.21-.06-.31-.01-.11-.03-.22-.06-.32-.01-.1-.03-.22-.06-.32a2.1 2.1 0 0 0-.06-.32c0-.08-.02-.17-.04-.25-.3-.15-.64-.24-1-.24H6.68c-.36 0-.7.09-1 .24l-.05.25c-.02.1-.05.21-.06.32l-.06.32-.05.32c-.03.1-.05.2-.06.31-.03.1-.05.21-.06.32-.03.1-.05.21-.06.32-.03.1-.05.2-.06.32-.02.1-.05.2-.06.31l-.06.32-.05.32c-.03.1-.05.2-.06.32-.03.1-.05.2-.06.31-.03.1-.05.21-.06.32-.03.1-.05.21-.06.32-.02.1-.05.2-.06.32l-.06.31-.05.32c-.03.1-.05.21-.06.32-.03.1-.05.2-.06.32-.03.1-.05.2-.06.31-.04.18-.07.36-.07.56v.78a2.28 2.28 0 0 0 2.28 2.29h34.65a2.28 2.28 0 0 0 2.28-2.29v-.78c0-.2-.02-.38-.07-.56 0-.1-.03-.21-.05-.31z" font-size="12" fill="url(#f)"/><path d="M4.4 36.47a2.28 2.28 0 0 0 2.28 2.28h34.64a2.28 2.28 0 0 0 2.29-2.28v-5.9a2.28 2.28 0 0 0-2.29-2.29H6.68a2.28 2.28 0 0 0-2.29 2.29v5.9z" font-size="12" fill="url(#g)"/><path d="M6.68 29.48c-.6 0-1.1.49-1.1 1.09v5.9c0 .6.5 1.09 1.1 1.09h34.64c.6 0 1.1-.5 1.1-1.1v-5.9c0-.6-.5-1.08-1.1-1.08H6.68z" font-size="12" fill="url(#h)"/><path d="M39.1 34.95c-.75 0-1.35.48-1.35 1.11s.6 1.12 1.36 1.12h.8c.76 0 1.36-.5 1.36-1.12s-.6-1.12-1.36-1.12h-.8z" font-size="12" fill="url(#i)"/><path d="M39.1 35.24c-.58 0-1.05.37-1.05.82s.47.82 1.06.82h.8c.59 0 1.06-.37 1.06-.82s-.48-.82-1.06-.82h-.8z" font-size="12" fill="url(#j)"/><path d="M40.87 36.06c0 .4-.43.72-.96.72h-.8c-.53 0-.96-.32-.96-.72 0-.4.43-.72.96-.72h.8c.53 0 .96.32.96.72z" font-size="12" fill="url(#k)"/><path d="M39.1 35.54c-.4 0-.75.25-.75.55 0 .3.35.54.76.54h.8c.41 0 .76-.25.76-.54 0-.3-.35-.55-.76-.55h-.8z" font-size="12" fill="url(#l)"/><path d="M39.08 35.43c-.34 0-.6.2-.6.38s.26.39.6.39h.86c.35 0 .6-.2.6-.39 0-.18-.25-.38-.6-.38h-.86z" font-size="12" fill="url(#m)"/><path font-size="12" fill="url(#n)" d="M8.18 33.7h12.76v3.32H8.18z"/><path font-size="12" fill="url(#o)" d="M8.18 33.7v.4h12.36v2.92h.4V33.7z"/><path font-size="12" fill="#949494" d="M17.89 33.7h.8v3.32h-.8zm-4.17 0h.8v3.32h-.8zm2.08 0h.8v3.32h-.8zm-4.16 0h.8v3.32h-.8z"/><path font-size="12" fill="#f0f0f0" d="M17.69 33.7h.8v3.32h-.8zm-4.17 0h.8v3.32h-.8zm2.08 0h.8v3.32h-.8zm-4.16 0h.8v3.32h-.8z"/><path font-size="12" fill="none" d="M0 48V0h48v48"/></svg>