<svg xmlns="http://www.w3.org/2000/svg" xmlns:xlink="http://www.w3.org/1999/xlink" width="48" height="48"><defs><linearGradient id="e"><stop offset="0" stop-color="#729fcf"/><stop offset="1" stop-color="#729fcf" stop-opacity="0"/></linearGradient><linearGradient id="l"><stop offset="0"/><stop offset="1" stop-opacity="0"/></linearGradient><linearGradient id="i"><stop offset="0" stop-color="#d7d7d7"/><stop offset="1" stop-color="#eeeeec"/></linearGradient><linearGradient id="h"><stop offset="0" stop-color="#d7d7d7"/><stop offset="1" stop-color="#eeeeec"/></linearGradient><linearGradient id="j"><stop offset="0" stop-color="#d3d7cf"/><stop offset="1" stop-color="#eeeeec"/></linearGradient><linearGradient id="g"><stop offset="0" stop-color="#959595"/><stop offset="1" stop-color="#fff" stop-opacity=".9"/></linearGradient><radialGradient xlink:href="#a" id="o" gradientUnits="userSpaceOnUse" gradientTransform="matrix(-2.77439 0 0 1.9697 112.8 -872.9)" cx="605.7" cy="486.6" fx="605.7" fy="486.6" r="117.1"/><linearGradient id="a"><stop offset="0"/><stop offset="1" stop-opacity="0"/></linearGradient><radialGradient xlink:href="#a" id="n" gradientUnits="userSpaceOnUse" gradientTransform="matrix(2.77439 0 0 1.9697 -1891.6 -872.9)" cx="605.7" cy="486.6" fx="605.7" fy="486.6" r="117.1"/><linearGradient id="b"><stop offset="0" stop-opacity="0"/><stop offset=".5"/><stop offset="1" stop-opacity="0"/></linearGradient><linearGradient xlink:href="#b" id="m" gradientUnits="userSpaceOnUse" gradientTransform="matrix(2.77439 0 0 1.9697 -1892.2 -872.9)" x1="302.9" y1="366.6" x2="302.9" y2="609.5"/><linearGradient id="d"><stop offset="0" stop-color="#729fcf"/><stop offset="1" stop-color="#729fcf" stop-opacity="0"/></linearGradient><linearGradient xlink:href="#c" id="r" gradientUnits="userSpaceOnUse" x1="7.5" y1="27.5" x2="1.1" y2="27.5" gradientTransform="matrix(.9091 0 0 1 1 -1)"/><linearGradient xlink:href="#d" id="s" x1="6.5" y1="24.5" x2=".1" y2="24.5" gradientUnits="userSpaceOnUse" gradientTransform="matrix(.9091 0 0 1 2 2)"/><linearGradient xlink:href="#c" id="p" gradientUnits="userSpaceOnUse" gradientTransform="matrix(-.9091 0 0 1 47 -1)" x1="7.5" y1="27.5" x2="1.1" y2="27.5"/><linearGradient xlink:href="#e" id="q" gradientUnits="userSpaceOnUse" gradientTransform="matrix(-.9091 0 0 1 46 2)" x1="6.5" y1="24.5" x2=".1" y2="24.5"/><linearGradient id="k"><stop offset="0" stop-color="#d3d7cf"/><stop offset=".3" stop-color="#eeeeec"/><stop offset=".9" stop-color="#fff"/><stop offset="1" stop-color="#d3d7cf"/></linearGradient><linearGradient id="f"><stop offset="0" stop-color="#888a85"/><stop offset="1" stop-color="#eeeeec"/></linearGradient><linearGradient id="c"><stop offset="0" stop-color="#d3d7cf"/><stop offset="1" stop-color="#eeeeec" stop-opacity="0"/></linearGradient><linearGradient xlink:href="#f" id="y" gradientUnits="userSpaceOnUse" x1="53.6" y1="4.5" x2="53.6" y2="37.3" gradientTransform="translate(-40 -1)"/><linearGradient xlink:href="#g" id="x" gradientUnits="userSpaceOnUse" gradientTransform="translate(6 -7)" x1="10.2" y1="32.6" x2="12.5" y2="36.4"/><linearGradient xlink:href="#h" id="w" gradientUnits="userSpaceOnUse" gradientTransform="matrix(.88235 0 0 1 2.7 1)" x1="25" y1="19" x2="24.9" y2="17.8"/><linearGradient xlink:href="#i" id="v" gradientUnits="userSpaceOnUse" gradientTransform="matrix(.88235 0 0 1 2.7 1)" x1="24.9" y1="12" x2="24.9" y2="10.9"/><linearGradient xlink:href="#j" id="u" gradientUnits="userSpaceOnUse" x1="60.4" y1="18.5" x2="60.4" y2="72.1" gradientTransform="translate(-40 -1)"/><linearGradient xlink:href="#k" id="t" gradientUnits="userSpaceOnUse" x1="73.1" y1="6.5" x2="53.6" y2="6.5" gradientTransform="translate(-40 -1)"/><linearGradient xlink:href="#l" id="z" gradientUnits="userSpaceOnUse" x1="57.5" y1="38.3" x2="57.5" y2="31.3"/><linearGradient xlink:href="#l" id="A" gradientUnits="userSpaceOnUse" gradientTransform="translate(2)" x1="57.5" y1="38.3" x2="57.5" y2="31.3"/><linearGradient xlink:href="#l" id="B" gradientUnits="userSpaceOnUse" gradientTransform="translate(4)" x1="57.5" y1="38.3" x2="57.5" y2="31.3"/><linearGradient xlink:href="#l" id="C" gradientUnits="userSpaceOnUse" gradientTransform="translate(6)" x1="57.5" y1="38.3" x2="57.5" y2="31.3"/><linearGradient xlink:href="#l" id="D" gradientUnits="userSpaceOnUse" gradientTransform="translate(8)" x1="57.5" y1="38.3" x2="57.5" y2="31.3"/><linearGradient xlink:href="#l" id="E" gradientUnits="userSpaceOnUse" gradientTransform="translate(10)" x1="57.5" y1="38.3" x2="57.5" y2="31.3"/></defs><g opacity=".6" color="#000"><path style="marker:none" opacity=".4" fill="url(#m)" overflow="visible" d="M-1559.3-150.7h1339.6v478.4h-1339.6z" transform="matrix(.01478 0 0 .02195 36.1 38.8)"/><path d="M-219.6-150.7v478.4c142.9.9 345.4-107.2 345.4-239.2S-33.7-150.7-219.6-150.7z" style="marker:none" opacity=".4" fill="url(#n)" overflow="visible" transform="matrix(.01478 0 0 .02195 36.1 38.8)"/><path style="marker:none" d="M-1559.3-150.7v478.4c-142.8.9-345.4-107.2-345.4-239.2s159.5-239.2 345.4-239.2z" opacity=".4" fill="url(#o)" overflow="visible" transform="matrix(.01478 0 0 .02195 36.1 38.8)"/></g><path d="M46.5 25.5h-10v2h10" fill="url(#p)" stroke="url(#q)" stroke-linecap="round"/><path d="M36.5 26.5a2 2 0 1 1-4 0 2 2 0 1 1 4 0z" fill="#d0d0ca" stroke="#729fcf" stroke-linecap="round"/><path d="M1.5 25.5h10v2h-10" fill="url(#r)" stroke="url(#s)" stroke-linecap="round"/><path style="marker:none" d="M18.1 2.5c-.7 0-1.4.3-1.9.8L12 8.6a4 4 0 0 0-.5 2v28.9a4 4 0 0 0 4 4h15a4 4 0 0 0 4-4v-29a4 4 0 0 0-.5-2l-4.3-5.2c-.4-.5-1-.8-1.8-.8H18z" color="#000" fill="url(#t)" stroke="#888a85" stroke-linecap="round" stroke-dashoffset="1.4" overflow="visible"/><path style="marker:none" d="M18.1 3.5c-.4 0-.8.2-1.1.5l-4 5a3 3 0 0 0-.5 1.5v26a3 3 0 0 0 3 3h15a3 3 0 0 0 3-3v-26c0-.5-.2-1-.4-1.4L29 4c-.3-.3-.7-.5-1.1-.5H18z" opacity=".7" color="#000" fill="none" stroke="#f9f9f9" stroke-linecap="round" stroke-linejoin="round" stroke-dashoffset="1.4" overflow="visible"/><path d="M15.5 7.5h15a3 3 0 0 1 3 3v29a3 3 0 0 1-3 3h-15a3 3 0 0 1-3-3v-29a3 3 0 0 1 3-3z" style="marker:none" color="#000" fill="url(#u)" stroke="#fff" stroke-linecap="round" stroke-dashoffset="1.4" overflow="visible"/><rect style="marker:none" width="15" height="5" x="15.5" y="10.5" rx="0" ry="0" color="#000" fill="url(#v)" stroke="#babdb6" stroke-linecap="round" stroke-linejoin="round" overflow="visible"/><rect width="15" height="5" x="15.5" y="17.5" rx="0" ry="0" fill="url(#w)" stroke="#babdb6" stroke-linecap="round" stroke-linejoin="round"/><path d="M18.6 28a1.5 1.5 0 1 1-3.1 0 1.5 1.5 0 1 1 3 0z" fill="#d0d0ca" stroke="#555753" stroke-linecap="round" stroke-linejoin="round" stroke-width=".95455"/><rect width="5" height="5" x="14.5" y="25.5" rx="2.5" ry="2.5" fill="none" stroke="url(#x)" stroke-linecap="round" stroke-dashoffset="1.2"/><rect width="10" height="3" x="21.5" y="26.5" rx="0" ry="0" fill="#eeeeec" stroke="#babdb6" stroke-linecap="round" stroke-linejoin="round"/><path d="M17 27.5a.5.5 0 1 1-1 0 .5.5 0 1 1 1 0z" fill="#f7f7f7"/><path d="M17 27.5a.5.5 0 1 1-1 0 .5.5 0 1 1 1 0z" fill="#f7f7f7"/><rect style="marker:none" width="19" height="33" x="13.5" y="8.5" rx="2" ry="2" opacity=".8" color="#000" fill="none" stroke="url(#y)" stroke-linecap="round" stroke-dashoffset="1.4" overflow="visible"/><g opacity=".2" color="#000"><path style="marker:none" fill="url(#z)" overflow="visible" d="M57 31h1v8h-1z" transform="translate(-40 2)"/><path style="marker:none" fill="url(#A)" overflow="visible" d="M59 31h1v8h-1z" transform="translate(-40 2)"/><path style="marker:none" fill="url(#B)" overflow="visible" d="M61 31h1v8h-1z" transform="translate(-40 2)"/><path style="marker:none" fill="url(#C)" overflow="visible" d="M63 31h1v8h-1z" transform="translate(-40 2)"/><path style="marker:none" fill="url(#D)" overflow="visible" d="M65 31h1v8h-1z" transform="translate(-40 2)"/><path style="marker:none" fill="url(#E)" overflow="visible" d="M67 31h1v8h-1z" transform="translate(-40 2)"/></g></svg>